G04 #@! TF.GenerationSoftware,KiCad,Pcbnew,(6.0.0)*
G04 #@! TF.CreationDate,2022-02-24T22:11:55+04:00*
G04 #@! TF.ProjectId,RPi3-screw-terminal-shiel,52506933-2d73-4637-9265-772d7465726d,rev?*
G04 #@! TF.SameCoordinates,Original*
G04 #@! TF.FileFunction,Soldermask,Bot*
G04 #@! TF.FilePolarity,Negative*
%FSLAX46Y46*%
G04 Gerber Fmt 4.6, Leading zero omitted, Abs format (unit mm)*
G04 Created by KiCad (PCBNEW (6.0.0)) date 2022-02-24 22:11:55*
%MOMM*%
%LPD*%
G01*
G04 APERTURE LIST*
G04 Aperture macros list*
%AMRoundRect*
0 Rectangle with rounded corners*
0 $1 Rounding radius*
0 $2 $3 $4 $5 $6 $7 $8 $9 X,Y pos of 4 corners*
0 Add a 4 corners polygon primitive as box body*
4,1,4,$2,$3,$4,$5,$6,$7,$8,$9,$2,$3,0*
0 Add four circle primitives for the rounded corners*
1,1,$1+$1,$2,$3*
1,1,$1+$1,$4,$5*
1,1,$1+$1,$6,$7*
1,1,$1+$1,$8,$9*
0 Add four rect primitives between the rounded corners*
20,1,$1+$1,$2,$3,$4,$5,0*
20,1,$1+$1,$4,$5,$6,$7,0*
20,1,$1+$1,$6,$7,$8,$9,0*
20,1,$1+$1,$8,$9,$2,$3,0*%
G04 Aperture macros list end*
%ADD10RoundRect,0.050000X0.750000X-0.750000X0.750000X0.750000X-0.750000X0.750000X-0.750000X-0.750000X0*%
%ADD11C,1.600000*%
%ADD12C,6.000000*%
%ADD13RoundRect,0.050000X-0.750000X-0.750000X0.750000X-0.750000X0.750000X0.750000X-0.750000X0.750000X0*%
%ADD14O,1.600000X1.600000*%
G04 APERTURE END LIST*
D10*
G04 #@! TO.C,J3*
X109500000Y-65900000D03*
D11*
X109500000Y-63360000D03*
X109500000Y-60820000D03*
X109500000Y-58280000D03*
X109500000Y-55740000D03*
X109500000Y-53200000D03*
X109500000Y-50660000D03*
X109500000Y-48120000D03*
X109500000Y-45580000D03*
X109500000Y-43040000D03*
G04 #@! TD*
D10*
G04 #@! TO.C,J4*
X102300000Y-92460000D03*
D11*
X102300000Y-89920000D03*
X102300000Y-87380000D03*
X102300000Y-84840000D03*
X102300000Y-82300000D03*
X102300000Y-79760000D03*
X102300000Y-77220000D03*
X102300000Y-74680000D03*
X102300000Y-72140000D03*
X102300000Y-69600000D03*
G04 #@! TD*
D10*
G04 #@! TO.C,J2*
X109500000Y-92460000D03*
D11*
X109500000Y-89920000D03*
X109500000Y-87380000D03*
X109500000Y-84840000D03*
X109500000Y-82300000D03*
X109500000Y-79760000D03*
X109500000Y-77220000D03*
X109500000Y-74680000D03*
X109500000Y-72140000D03*
X109500000Y-69600000D03*
G04 #@! TD*
D10*
G04 #@! TO.C,J5*
X102300000Y-65900000D03*
D11*
X102300000Y-63360000D03*
X102300000Y-60820000D03*
X102300000Y-58280000D03*
X102300000Y-55740000D03*
X102300000Y-53200000D03*
X102300000Y-50660000D03*
X102300000Y-48120000D03*
X102300000Y-45580000D03*
X102300000Y-43040000D03*
G04 #@! TD*
D12*
G04 #@! TO.C,J1*
X114830000Y-38870000D03*
X114830000Y-96870000D03*
X91830000Y-38870000D03*
X91830000Y-96870000D03*
D13*
X93100000Y-92000000D03*
D14*
X90560000Y-92000000D03*
X93100000Y-89460000D03*
X90560000Y-89460000D03*
X93100000Y-86920000D03*
X90560000Y-86920000D03*
X93100000Y-84380000D03*
X90560000Y-84380000D03*
X93100000Y-81840000D03*
X90560000Y-81840000D03*
X93100000Y-79300000D03*
X90560000Y-79300000D03*
X93100000Y-76760000D03*
X90560000Y-76760000D03*
X93100000Y-74220000D03*
X90560000Y-74220000D03*
X93100000Y-71680000D03*
X90560000Y-71680000D03*
X93100000Y-69140000D03*
X90560000Y-69140000D03*
X93100000Y-66600000D03*
X90560000Y-66600000D03*
X93100000Y-64060000D03*
X90560000Y-64060000D03*
X93100000Y-61520000D03*
X90560000Y-61520000D03*
X93100000Y-58980000D03*
X90560000Y-58980000D03*
X93100000Y-56440000D03*
X90560000Y-56440000D03*
X93100000Y-53900000D03*
X90560000Y-53900000D03*
X93100000Y-51360000D03*
X90560000Y-51360000D03*
X93100000Y-48820000D03*
X90560000Y-48820000D03*
X93100000Y-46280000D03*
X90560000Y-46280000D03*
X93100000Y-43740000D03*
X90560000Y-43740000D03*
G04 #@! TD*
M02*
