M48
; DRILL file {KiCad (6.0.0)} date Thu Feb 24 22:11:58 2022
; FORMAT={-:-/ absolute / inch / decimal}
; #@! TF.CreationDate,2022-02-24T22:11:58+04:00
; #@! TF.GenerationSoftware,Kicad,Pcbnew,(6.0.0)
; #@! TF.FileFunction,Plated,1,2,PTH
FMAT,2
INCH
; #@! TA.AperFunction,Plated,PTH,ViaDrill
T1C0.0157
; #@! TA.AperFunction,Plated,PTH,ComponentDrill
T2C0.0354
%
G90
G05
T1
X3.8268Y-1.5197
X3.8661Y-1.5197
X3.9055Y-1.435
X3.9902Y-1.5551
X4.1476Y-3.7409
X4.1528Y-3.6941
X4.1811Y-1.6457
X4.2244Y-1.5197
X4.2638Y-1.4331
X4.2685Y-3.8209
X4.3091Y-3.8209
X4.3543Y-1.6083
T2
X3.5654Y-1.722
X3.5654Y-1.822
X3.5654Y-1.922
X3.5654Y-2.022
X3.5654Y-2.122
X3.5654Y-2.222
X3.5654Y-2.322
X3.5654Y-2.422
X3.5654Y-2.522
X3.5654Y-2.622
X3.5654Y-2.722
X3.5654Y-2.822
X3.5654Y-2.922
X3.5654Y-3.022
X3.5654Y-3.122
X3.5654Y-3.222
X3.5654Y-3.322
X3.5654Y-3.422
X3.5654Y-3.522
X3.5654Y-3.622
X3.6654Y-1.722
X3.6654Y-1.822
X3.6654Y-1.922
X3.6654Y-2.022
X3.6654Y-2.122
X3.6654Y-2.222
X3.6654Y-2.322
X3.6654Y-2.422
X3.6654Y-2.522
X3.6654Y-2.622
X3.6654Y-2.722
X3.6654Y-2.822
X3.6654Y-2.922
X3.6654Y-3.022
X3.6654Y-3.122
X3.6654Y-3.222
X3.6654Y-3.322
X3.6654Y-3.422
X3.6654Y-3.522
X3.6654Y-3.622
X4.0276Y-1.6945
X4.0276Y-1.7945
X4.0276Y-1.8945
X4.0276Y-1.9945
X4.0276Y-2.0945
X4.0276Y-2.1945
X4.0276Y-2.2945
X4.0276Y-2.3945
X4.0276Y-2.4945
X4.0276Y-2.5945
X4.0276Y-2.7402
X4.0276Y-2.8402
X4.0276Y-2.9402
X4.0276Y-3.0402
X4.0276Y-3.1402
X4.0276Y-3.2402
X4.0276Y-3.3402
X4.0276Y-3.4402
X4.0276Y-3.5402
X4.0276Y-3.6402
X4.311Y-1.6945
X4.311Y-1.7945
X4.311Y-1.8945
X4.311Y-1.9945
X4.311Y-2.0945
X4.311Y-2.1945
X4.311Y-2.2945
X4.311Y-2.3945
X4.311Y-2.4945
X4.311Y-2.5945
X4.311Y-2.7402
X4.311Y-2.8402
X4.311Y-2.9402
X4.311Y-3.0402
X4.311Y-3.1402
X4.311Y-3.2402
X4.311Y-3.3402
X4.311Y-3.4402
X4.311Y-3.5402
X4.311Y-3.6402
T0
M30
