G04 #@! TF.GenerationSoftware,KiCad,Pcbnew,(6.0.0)*
G04 #@! TF.CreationDate,2022-02-24T22:11:55+04:00*
G04 #@! TF.ProjectId,RPi3-screw-terminal-shiel,52506933-2d73-4637-9265-772d7465726d,rev?*
G04 #@! TF.SameCoordinates,Original*
G04 #@! TF.FileFunction,Legend,Top*
G04 #@! TF.FilePolarity,Positive*
%FSLAX46Y46*%
G04 Gerber Fmt 4.6, Leading zero omitted, Abs format (unit mm)*
G04 Created by KiCad (PCBNEW (6.0.0)) date 2022-02-24 22:11:55*
%MOMM*%
%LPD*%
G01*
G04 APERTURE LIST*
%ADD10C,0.120000*%
G04 APERTURE END LIST*
D10*
G04 #@! TO.C,J3*
X112100000Y-67460000D02*
X112100000Y-41480000D01*
X112900000Y-67700000D02*
X112900000Y-67200000D01*
X106340000Y-41480000D02*
X112660000Y-41480000D01*
X112160000Y-67700000D02*
X112900000Y-67700000D01*
X106340000Y-67460000D02*
X106340000Y-41480000D01*
X106340000Y-67460000D02*
X112660000Y-67460000D01*
X112660000Y-67460000D02*
X112660000Y-41480000D01*
X106800000Y-67460000D02*
X106800000Y-41480000D01*
G04 #@! TO.C,J4*
X105700000Y-94260000D02*
X105700000Y-93760000D01*
X99140000Y-68040000D02*
X105460000Y-68040000D01*
X99600000Y-94020000D02*
X99600000Y-68040000D01*
X99140000Y-94020000D02*
X99140000Y-68040000D01*
X104900000Y-94020000D02*
X104900000Y-68040000D01*
X105460000Y-94020000D02*
X105460000Y-68040000D01*
X104960000Y-94260000D02*
X105700000Y-94260000D01*
X99140000Y-94020000D02*
X105460000Y-94020000D01*
G04 #@! TO.C,J2*
X106340000Y-94020000D02*
X112660000Y-94020000D01*
X112900000Y-94260000D02*
X112900000Y-93760000D01*
X106800000Y-94020000D02*
X106800000Y-68040000D01*
X112100000Y-94020000D02*
X112100000Y-68040000D01*
X112660000Y-94020000D02*
X112660000Y-68040000D01*
X112160000Y-94260000D02*
X112900000Y-94260000D01*
X106340000Y-94020000D02*
X106340000Y-68040000D01*
X106340000Y-68040000D02*
X112660000Y-68040000D01*
G04 #@! TO.C,kibuzzard-61EAB7AC*
G36*
X96771387Y-52744087D02*
G01*
X96818219Y-52817112D01*
X96840444Y-52925856D01*
X96844611Y-52990745D01*
X96846000Y-53060000D01*
X96844611Y-53129056D01*
X96840444Y-53193350D01*
X96818219Y-53302094D01*
X96770594Y-53375913D01*
X96690425Y-53402900D01*
X96609462Y-53375913D01*
X96562631Y-53302888D01*
X96540406Y-53194144D01*
X96536239Y-53129255D01*
X96534850Y-53060000D01*
X96536239Y-52990944D01*
X96540406Y-52926650D01*
X96562631Y-52817906D01*
X96609462Y-52744087D01*
X96690425Y-52717100D01*
X96771387Y-52744087D01*
G37*
G36*
X95072895Y-52034607D02*
G01*
X99127105Y-52034607D01*
X99127105Y-54085393D01*
X95072895Y-54085393D01*
X95072895Y-52731387D01*
X95585525Y-52731387D01*
X95799837Y-52731387D01*
X95799837Y-53390200D01*
X95585525Y-53390200D01*
X95585525Y-53552125D01*
X96209412Y-53552125D01*
X96209412Y-53390200D01*
X95996687Y-53390200D01*
X95996687Y-53060000D01*
X96336412Y-53060000D01*
X96342118Y-53179211D01*
X96359233Y-53282845D01*
X96387758Y-53370902D01*
X96427694Y-53443381D01*
X96497632Y-53515260D01*
X96585738Y-53558387D01*
X96692012Y-53572763D01*
X96795729Y-53558387D01*
X96882512Y-53515260D01*
X96952362Y-53443381D01*
X96992645Y-53370902D01*
X97021419Y-53282845D01*
X97038683Y-53179211D01*
X97044437Y-53060000D01*
X97038782Y-52940789D01*
X97021816Y-52837155D01*
X97001615Y-52774250D01*
X97163500Y-52774250D01*
X97227000Y-52936175D01*
X97323838Y-52897281D01*
X97425438Y-52840925D01*
X97425438Y-53390200D01*
X97219063Y-53390200D01*
X97219063Y-53552125D01*
X97815963Y-53552125D01*
X97815963Y-53390200D01*
X97620700Y-53390200D01*
X97620700Y-52677412D01*
X97949313Y-52677412D01*
X98046150Y-52813937D01*
X98146163Y-52739325D01*
X98243000Y-52717100D01*
X98335075Y-52749644D01*
X98371588Y-52842512D01*
X98342219Y-52926650D01*
X98267606Y-53012375D01*
X98220775Y-53057817D01*
X98170769Y-53105244D01*
X98120763Y-53155647D01*
X98073931Y-53210019D01*
X98032656Y-53268955D01*
X97999319Y-53333050D01*
X97977292Y-53402900D01*
X97969950Y-53479100D01*
X97969156Y-53512438D01*
X97973125Y-53552125D01*
X98614475Y-53552125D01*
X98614475Y-53390200D01*
X98192200Y-53390200D01*
X98208869Y-53337813D01*
X98249350Y-53281456D01*
X98300150Y-53227481D01*
X98347775Y-53182238D01*
X98428738Y-53102863D01*
X98500175Y-53017137D01*
X98550975Y-52925856D01*
X98570025Y-52828225D01*
X98544625Y-52705194D01*
X98476363Y-52617087D01*
X98377938Y-52564700D01*
X98262050Y-52547237D01*
X98179302Y-52555175D01*
X98096156Y-52578987D01*
X98017773Y-52619469D01*
X97949313Y-52677412D01*
X97620700Y-52677412D01*
X97620700Y-52569462D01*
X97487350Y-52569462D01*
X97419088Y-52631375D01*
X97334950Y-52688525D01*
X97246050Y-52737737D01*
X97163500Y-52774250D01*
X97001615Y-52774250D01*
X96993538Y-52749098D01*
X96953950Y-52676619D01*
X96884453Y-52604740D01*
X96796611Y-52561613D01*
X96690425Y-52547237D01*
X96587414Y-52561613D01*
X96500631Y-52604740D01*
X96430075Y-52676619D01*
X96389098Y-52749098D01*
X96359828Y-52837155D01*
X96342266Y-52940789D01*
X96336412Y-53060000D01*
X95996687Y-53060000D01*
X95996687Y-52731387D01*
X96209412Y-52731387D01*
X96209412Y-52569462D01*
X95585525Y-52569462D01*
X95585525Y-52731387D01*
X95072895Y-52731387D01*
X95072895Y-52034607D01*
G37*
G04 #@! TO.C,kibuzzard-61EAB89C*
G36*
X99120393Y-78315393D02*
G01*
X95799607Y-78315393D01*
X95799607Y-77290000D01*
X96312237Y-77290000D01*
X96319381Y-77409261D01*
X96340812Y-77513044D01*
X96375341Y-77601150D01*
X96421775Y-77673381D01*
X96479520Y-77729738D01*
X96547981Y-77770219D01*
X96626364Y-77794627D01*
X96713875Y-77802763D01*
X96810911Y-77798794D01*
X96892469Y-77786888D01*
X96910595Y-77782125D01*
X97148850Y-77782125D01*
X97344112Y-77782125D01*
X97344112Y-77420175D01*
X97445712Y-77420175D01*
X97499489Y-77510067D01*
X97549694Y-77598769D01*
X97595136Y-77688661D01*
X97634625Y-77782125D01*
X97839413Y-77782125D01*
X97834578Y-77771013D01*
X97942600Y-77771013D01*
X98049756Y-77789269D01*
X98152150Y-77794825D01*
X98247995Y-77787880D01*
X98335506Y-77767044D01*
X98413095Y-77731127D01*
X98479175Y-77678938D01*
X98532952Y-77609683D01*
X98573631Y-77522569D01*
X98599230Y-77416405D01*
X98607763Y-77290000D01*
X98600023Y-77166373D01*
X98576806Y-77062194D01*
X98539698Y-76976072D01*
X98490288Y-76906619D01*
X98428573Y-76853636D01*
X98354556Y-76816925D01*
X98270220Y-76795494D01*
X98177550Y-76788350D01*
X98068013Y-76793112D01*
X97942600Y-76812162D01*
X97942600Y-77771013D01*
X97834578Y-77771013D01*
X97794169Y-77678144D01*
X97739400Y-77568606D01*
X97680663Y-77463831D01*
X97623513Y-77372550D01*
X97692966Y-77327703D01*
X97739400Y-77266187D01*
X97765594Y-77192369D01*
X97774325Y-77110612D01*
X97767777Y-77033420D01*
X97748131Y-76966944D01*
X97672725Y-76866137D01*
X97618750Y-76831609D01*
X97555250Y-76807400D01*
X97483019Y-76793112D01*
X97402850Y-76788350D01*
X97347287Y-76789938D01*
X97280612Y-76793906D01*
X97211556Y-76801844D01*
X97148850Y-76813750D01*
X97148850Y-77782125D01*
X96910595Y-77782125D01*
X97001212Y-77758313D01*
X97001212Y-77267775D01*
X96805950Y-77267775D01*
X96805950Y-77626550D01*
X96767850Y-77631313D01*
X96729750Y-77632900D01*
X96634897Y-77612064D01*
X96566237Y-77549556D01*
X96535369Y-77483675D01*
X96516849Y-77397156D01*
X96510675Y-77290000D01*
X96514048Y-77217173D01*
X96524169Y-77151094D01*
X96568619Y-77043144D01*
X96647200Y-76972500D01*
X96764675Y-76947100D01*
X96869450Y-76964562D01*
X96955175Y-77004250D01*
X97005975Y-76848675D01*
X96973431Y-76829625D01*
X96918662Y-76805812D01*
X96840081Y-76785969D01*
X96737687Y-76777237D01*
X96651566Y-76785373D01*
X96571000Y-76809781D01*
X96498372Y-76850461D01*
X96436062Y-76907412D01*
X96384866Y-76980239D01*
X96345575Y-77068544D01*
X96320572Y-77171930D01*
X96312237Y-77290000D01*
X95799607Y-77290000D01*
X95799607Y-76264607D01*
X99120393Y-76264607D01*
X99120393Y-78315393D01*
G37*
G36*
X97473097Y-76967341D02*
G01*
X97528263Y-76994725D01*
X97563981Y-77041556D01*
X97575888Y-77109025D01*
X97531438Y-77219356D01*
X97473097Y-77248527D01*
X97386975Y-77258250D01*
X97344112Y-77258250D01*
X97344112Y-76962975D01*
X97375862Y-76959006D01*
X97402850Y-76958212D01*
X97473097Y-76967341D01*
G37*
G36*
X98301375Y-76985994D02*
G01*
X98366463Y-77059812D01*
X98399800Y-77166175D01*
X98409325Y-77290000D01*
X98406348Y-77360048D01*
X98397419Y-77424144D01*
X98357731Y-77529713D01*
X98284706Y-77599563D01*
X98172788Y-77624963D01*
X98155325Y-77624963D01*
X98137863Y-77623375D01*
X98137863Y-76962975D01*
X98166438Y-76959006D01*
X98195013Y-76958212D01*
X98301375Y-76985994D01*
G37*
G04 #@! TO.C,kibuzzard-61EAB5B7*
G36*
X115146294Y-84910013D02*
G01*
X114924044Y-84910013D01*
X114971669Y-84819525D01*
X115028025Y-84728244D01*
X115087556Y-84641725D01*
X115146294Y-84563937D01*
X115146294Y-84910013D01*
G37*
G36*
X114377944Y-84494087D02*
G01*
X114424775Y-84567112D01*
X114447000Y-84675856D01*
X114451167Y-84740745D01*
X114452556Y-84810000D01*
X114451167Y-84879056D01*
X114447000Y-84943350D01*
X114424775Y-85052094D01*
X114377150Y-85125913D01*
X114296981Y-85152900D01*
X114216019Y-85125913D01*
X114169187Y-85052888D01*
X114146962Y-84944144D01*
X114142795Y-84879255D01*
X114141406Y-84810000D01*
X114142795Y-84740944D01*
X114146962Y-84676650D01*
X114169187Y-84567906D01*
X114216019Y-84494087D01*
X114296981Y-84467100D01*
X114377944Y-84494087D01*
G37*
G36*
X115960549Y-85835393D02*
G01*
X112679451Y-85835393D01*
X112679451Y-84481387D01*
X113192081Y-84481387D01*
X113406394Y-84481387D01*
X113406394Y-85140200D01*
X113192081Y-85140200D01*
X113192081Y-85302125D01*
X113815969Y-85302125D01*
X113815969Y-85140200D01*
X113603244Y-85140200D01*
X113603244Y-84810000D01*
X113942969Y-84810000D01*
X113948674Y-84929211D01*
X113965789Y-85032845D01*
X113994314Y-85120902D01*
X114034250Y-85193381D01*
X114104188Y-85265260D01*
X114192294Y-85308387D01*
X114298569Y-85322763D01*
X114402285Y-85308387D01*
X114489069Y-85265260D01*
X114558919Y-85193381D01*
X114599202Y-85120902D01*
X114615720Y-85070350D01*
X114736719Y-85070350D01*
X115146294Y-85070350D01*
X115146294Y-85302125D01*
X115341556Y-85302125D01*
X115341556Y-85070350D01*
X115447919Y-85070350D01*
X115447919Y-84910013D01*
X115341556Y-84910013D01*
X115341556Y-84319462D01*
X115166931Y-84319462D01*
X115103431Y-84387130D01*
X115039931Y-84463131D01*
X114978019Y-84543895D01*
X114919281Y-84625850D01*
X114864513Y-84707408D01*
X114814506Y-84786981D01*
X114771247Y-84861395D01*
X114736719Y-84927475D01*
X114736719Y-85070350D01*
X114615720Y-85070350D01*
X114627975Y-85032845D01*
X114645239Y-84929211D01*
X114650994Y-84810000D01*
X114645338Y-84690789D01*
X114628372Y-84587155D01*
X114600095Y-84499098D01*
X114560506Y-84426619D01*
X114491009Y-84354740D01*
X114403167Y-84311613D01*
X114296981Y-84297237D01*
X114193970Y-84311613D01*
X114107187Y-84354740D01*
X114036631Y-84426619D01*
X113995654Y-84499098D01*
X113966384Y-84587155D01*
X113948823Y-84690789D01*
X113942969Y-84810000D01*
X113603244Y-84810000D01*
X113603244Y-84481387D01*
X113815969Y-84481387D01*
X113815969Y-84319462D01*
X113192081Y-84319462D01*
X113192081Y-84481387D01*
X112679451Y-84481387D01*
X112679451Y-83784607D01*
X115960549Y-83784607D01*
X115960549Y-85835393D01*
G37*
G04 #@! TO.C,kibuzzard-61EAB79F*
G36*
X97453097Y-50267341D02*
G01*
X97508263Y-50294725D01*
X97543981Y-50341556D01*
X97555888Y-50409025D01*
X97511438Y-50519356D01*
X97453097Y-50548527D01*
X97366975Y-50558250D01*
X97324112Y-50558250D01*
X97324112Y-50262975D01*
X97355862Y-50259006D01*
X97382850Y-50258212D01*
X97453097Y-50267341D01*
G37*
G36*
X98281375Y-50285994D02*
G01*
X98346463Y-50359812D01*
X98379800Y-50466175D01*
X98389325Y-50590000D01*
X98386348Y-50660048D01*
X98377419Y-50724144D01*
X98337731Y-50829713D01*
X98264706Y-50899563D01*
X98152788Y-50924963D01*
X98135325Y-50924963D01*
X98117863Y-50923375D01*
X98117863Y-50262975D01*
X98146438Y-50259006D01*
X98175013Y-50258212D01*
X98281375Y-50285994D01*
G37*
G36*
X99100393Y-51615393D02*
G01*
X95779607Y-51615393D01*
X95779607Y-50590000D01*
X96292237Y-50590000D01*
X96299381Y-50709261D01*
X96320812Y-50813044D01*
X96355341Y-50901150D01*
X96401775Y-50973381D01*
X96459520Y-51029738D01*
X96527981Y-51070219D01*
X96606364Y-51094627D01*
X96693875Y-51102763D01*
X96790911Y-51098794D01*
X96872469Y-51086888D01*
X96890595Y-51082125D01*
X97128850Y-51082125D01*
X97324112Y-51082125D01*
X97324112Y-50720175D01*
X97425712Y-50720175D01*
X97479489Y-50810067D01*
X97529694Y-50898769D01*
X97575136Y-50988661D01*
X97614625Y-51082125D01*
X97819413Y-51082125D01*
X97814578Y-51071013D01*
X97922600Y-51071013D01*
X98029756Y-51089269D01*
X98132150Y-51094825D01*
X98227995Y-51087880D01*
X98315506Y-51067044D01*
X98393095Y-51031127D01*
X98459175Y-50978938D01*
X98512952Y-50909683D01*
X98553631Y-50822569D01*
X98579230Y-50716405D01*
X98587763Y-50590000D01*
X98580023Y-50466373D01*
X98556806Y-50362194D01*
X98519698Y-50276072D01*
X98470288Y-50206619D01*
X98408573Y-50153636D01*
X98334556Y-50116925D01*
X98250220Y-50095494D01*
X98157550Y-50088350D01*
X98048013Y-50093112D01*
X97922600Y-50112162D01*
X97922600Y-51071013D01*
X97814578Y-51071013D01*
X97774169Y-50978144D01*
X97719400Y-50868606D01*
X97660663Y-50763831D01*
X97603513Y-50672550D01*
X97672966Y-50627703D01*
X97719400Y-50566187D01*
X97745594Y-50492369D01*
X97754325Y-50410612D01*
X97747777Y-50333420D01*
X97728131Y-50266944D01*
X97652725Y-50166137D01*
X97598750Y-50131609D01*
X97535250Y-50107400D01*
X97463019Y-50093112D01*
X97382850Y-50088350D01*
X97327287Y-50089938D01*
X97260612Y-50093906D01*
X97191556Y-50101844D01*
X97128850Y-50113750D01*
X97128850Y-51082125D01*
X96890595Y-51082125D01*
X96981212Y-51058313D01*
X96981212Y-50567775D01*
X96785950Y-50567775D01*
X96785950Y-50926550D01*
X96747850Y-50931313D01*
X96709750Y-50932900D01*
X96614897Y-50912064D01*
X96546237Y-50849556D01*
X96515369Y-50783675D01*
X96496849Y-50697156D01*
X96490675Y-50590000D01*
X96494048Y-50517173D01*
X96504169Y-50451094D01*
X96548619Y-50343144D01*
X96627200Y-50272500D01*
X96744675Y-50247100D01*
X96849450Y-50264562D01*
X96935175Y-50304250D01*
X96985975Y-50148675D01*
X96953431Y-50129625D01*
X96898662Y-50105812D01*
X96820081Y-50085969D01*
X96717687Y-50077237D01*
X96631566Y-50085373D01*
X96551000Y-50109781D01*
X96478372Y-50150461D01*
X96416062Y-50207412D01*
X96364866Y-50280239D01*
X96325575Y-50368544D01*
X96300572Y-50471930D01*
X96292237Y-50590000D01*
X95779607Y-50590000D01*
X95779607Y-49564607D01*
X99100393Y-49564607D01*
X99100393Y-51615393D01*
G37*
G04 #@! TO.C,kibuzzard-61EAB57E*
G36*
X112670195Y-68594607D02*
G01*
X116749805Y-68594607D01*
X116749805Y-70645393D01*
X112670195Y-70645393D01*
X112670195Y-70112125D01*
X113182825Y-70112125D01*
X113362212Y-70112125D01*
X113354275Y-69348537D01*
X113470162Y-69764463D01*
X113613037Y-69764463D01*
X113733687Y-69348537D01*
X113724162Y-70112125D01*
X113903550Y-70112125D01*
X113899978Y-69986514D01*
X113895612Y-69863681D01*
X113890255Y-69742634D01*
X113883706Y-69622381D01*
X113883549Y-69620000D01*
X113982925Y-69620000D01*
X113988630Y-69739211D01*
X114005745Y-69842845D01*
X114034271Y-69930902D01*
X114074206Y-70003381D01*
X114144144Y-70075260D01*
X114232251Y-70118387D01*
X114338525Y-70132763D01*
X114442242Y-70118387D01*
X114529025Y-70075260D01*
X114545652Y-70058150D01*
X114797313Y-70058150D01*
X114906850Y-70106569D01*
X114992178Y-70126214D01*
X115102113Y-70132763D01*
X115213502Y-70124384D01*
X115257764Y-70112125D01*
X115613288Y-70112125D01*
X116237175Y-70112125D01*
X116237175Y-69950200D01*
X116024450Y-69950200D01*
X116024450Y-69291387D01*
X116237175Y-69291387D01*
X116237175Y-69129462D01*
X115613288Y-69129462D01*
X115613288Y-69291387D01*
X115827600Y-69291387D01*
X115827600Y-69950200D01*
X115613288Y-69950200D01*
X115613288Y-70112125D01*
X115257764Y-70112125D01*
X115304254Y-70099249D01*
X115374369Y-70057356D01*
X115441639Y-69966273D01*
X115464063Y-69843838D01*
X115457316Y-69769820D01*
X115437075Y-69709694D01*
X115368019Y-69620794D01*
X115275944Y-69563644D01*
X115179900Y-69524750D01*
X115118781Y-69500937D01*
X115063219Y-69471569D01*
X115022738Y-69433469D01*
X115006863Y-69383462D01*
X115024149Y-69320844D01*
X115076007Y-69283274D01*
X115162438Y-69270750D01*
X115274356Y-69286625D01*
X115362463Y-69324725D01*
X115419613Y-69173912D01*
X115306106Y-69127875D01*
X115232883Y-69112397D01*
X115148150Y-69107237D01*
X115050872Y-69115881D01*
X114968586Y-69141810D01*
X114901294Y-69185025D01*
X114834023Y-69277894D01*
X114811600Y-69400925D01*
X114837000Y-69517606D01*
X114901294Y-69596187D01*
X114987813Y-69648575D01*
X115079888Y-69685088D01*
X115146563Y-69712869D01*
X115206888Y-69746206D01*
X115251338Y-69788275D01*
X115268800Y-69842250D01*
X115261656Y-69889081D01*
X115235463Y-69930356D01*
X115183869Y-69958931D01*
X115102113Y-69969250D01*
X115022936Y-69963694D01*
X114956856Y-69947025D01*
X114854463Y-69899400D01*
X114797313Y-70058150D01*
X114545652Y-70058150D01*
X114598875Y-70003381D01*
X114639158Y-69930902D01*
X114667931Y-69842845D01*
X114685195Y-69739211D01*
X114690950Y-69620000D01*
X114685295Y-69500789D01*
X114668328Y-69397155D01*
X114640051Y-69309098D01*
X114600462Y-69236619D01*
X114530965Y-69164740D01*
X114443124Y-69121613D01*
X114336937Y-69107237D01*
X114233926Y-69121613D01*
X114147143Y-69164740D01*
X114076587Y-69236619D01*
X114035610Y-69309098D01*
X114006341Y-69397155D01*
X113988779Y-69500789D01*
X113982925Y-69620000D01*
X113883549Y-69620000D01*
X113875769Y-69501930D01*
X113866244Y-69380287D01*
X113855727Y-69256462D01*
X113844812Y-69129462D01*
X113682887Y-69129462D01*
X113654312Y-69213600D01*
X113619387Y-69322344D01*
X113579700Y-69442994D01*
X113540012Y-69564437D01*
X113503500Y-69450137D01*
X113465400Y-69327900D01*
X113429681Y-69215187D01*
X113401900Y-69129462D01*
X113239975Y-69129462D01*
X113229458Y-69237016D01*
X113220131Y-69353300D01*
X113211995Y-69475934D01*
X113205050Y-69602537D01*
X113198898Y-69731522D01*
X113193144Y-69861300D01*
X113187786Y-69989094D01*
X113182825Y-70112125D01*
X112670195Y-70112125D01*
X112670195Y-68594607D01*
G37*
G36*
X114417900Y-69304087D02*
G01*
X114464731Y-69377112D01*
X114486956Y-69485856D01*
X114491123Y-69550745D01*
X114492512Y-69620000D01*
X114491123Y-69689056D01*
X114486956Y-69753350D01*
X114464731Y-69862094D01*
X114417106Y-69935913D01*
X114336937Y-69962900D01*
X114255975Y-69935913D01*
X114209144Y-69862888D01*
X114186919Y-69754144D01*
X114182752Y-69689255D01*
X114181362Y-69620000D01*
X114182752Y-69550944D01*
X114186919Y-69486650D01*
X114209144Y-69377906D01*
X114255975Y-69304087D01*
X114336937Y-69277100D01*
X114417900Y-69304087D01*
G37*
G04 #@! TO.C,J8*
X104840000Y-95565000D02*
X105890000Y-95565000D01*
X105890000Y-95565000D02*
X105890000Y-94575000D01*
X104840000Y-98065000D02*
X104840000Y-95565000D01*
X106010000Y-100035000D02*
X109890000Y-100035000D01*
X111060000Y-95565000D02*
X110010000Y-95565000D01*
X111060000Y-98065000D02*
X111060000Y-95565000D01*
G04 #@! TO.C,kibuzzard-61EAB524*
G36*
X112671626Y-49564607D02*
G01*
X116708374Y-49564607D01*
X116708374Y-51615393D01*
X112671626Y-51615393D01*
X112671626Y-50261387D01*
X113184256Y-50261387D01*
X113398569Y-50261387D01*
X113398569Y-50920200D01*
X113184256Y-50920200D01*
X113184256Y-51082125D01*
X113808144Y-51082125D01*
X113808144Y-50920200D01*
X113595419Y-50920200D01*
X113595419Y-50590000D01*
X113935144Y-50590000D01*
X113940849Y-50709211D01*
X113957964Y-50812845D01*
X113986489Y-50900902D01*
X114026425Y-50973381D01*
X114096363Y-51045260D01*
X114184469Y-51088387D01*
X114290744Y-51102763D01*
X114394460Y-51088387D01*
X114481244Y-51045260D01*
X114551094Y-50973381D01*
X114591377Y-50900902D01*
X114620150Y-50812845D01*
X114637414Y-50709211D01*
X114643169Y-50590000D01*
X114637513Y-50470789D01*
X114620547Y-50367155D01*
X114600347Y-50304250D01*
X114762231Y-50304250D01*
X114825731Y-50466175D01*
X114922569Y-50427281D01*
X115024169Y-50370925D01*
X115024169Y-50920200D01*
X114817794Y-50920200D01*
X114817794Y-51082125D01*
X115414694Y-51082125D01*
X115414694Y-51048788D01*
X115544869Y-51048788D01*
X115594081Y-51066250D01*
X115663138Y-51083713D01*
X115740925Y-51097206D01*
X115817919Y-51102763D01*
X115909597Y-51097008D01*
X115987781Y-51079744D01*
X116052869Y-51051963D01*
X116105256Y-51014656D01*
X116173519Y-50915438D01*
X116195744Y-50790025D01*
X116185227Y-50710253D01*
X116153675Y-50642388D01*
X116103073Y-50588016D01*
X116035406Y-50548725D01*
X116124306Y-50466175D01*
X116157644Y-50353462D01*
X116138594Y-50243925D01*
X116079856Y-50155819D01*
X115979050Y-50097875D01*
X115912573Y-50082397D01*
X115835381Y-50077237D01*
X115751045Y-50084580D01*
X115675838Y-50106606D01*
X115562331Y-50164550D01*
X115632181Y-50307425D01*
X115726638Y-50262181D01*
X115836969Y-50243925D01*
X115926663Y-50274881D01*
X115959206Y-50359812D01*
X115944125Y-50420137D01*
X115905231Y-50458237D01*
X115851256Y-50478875D01*
X115790931Y-50485225D01*
X115717906Y-50485225D01*
X115717906Y-50647150D01*
X115778231Y-50647150D01*
X115865147Y-50654889D01*
X115935394Y-50678106D01*
X115981828Y-50720770D01*
X115997306Y-50786850D01*
X115956825Y-50893213D01*
X115901461Y-50925359D01*
X115816331Y-50936075D01*
X115741123Y-50931709D01*
X115677425Y-50918613D01*
X115582969Y-50885275D01*
X115544869Y-51048788D01*
X115414694Y-51048788D01*
X115414694Y-50920200D01*
X115219431Y-50920200D01*
X115219431Y-50099462D01*
X115086081Y-50099462D01*
X115017819Y-50161375D01*
X114933681Y-50218525D01*
X114844781Y-50267737D01*
X114762231Y-50304250D01*
X114600347Y-50304250D01*
X114592270Y-50279098D01*
X114552681Y-50206619D01*
X114483184Y-50134740D01*
X114395342Y-50091613D01*
X114289156Y-50077237D01*
X114186145Y-50091613D01*
X114099362Y-50134740D01*
X114028806Y-50206619D01*
X113987829Y-50279098D01*
X113958559Y-50367155D01*
X113940998Y-50470789D01*
X113935144Y-50590000D01*
X113595419Y-50590000D01*
X113595419Y-50261387D01*
X113808144Y-50261387D01*
X113808144Y-50099462D01*
X113184256Y-50099462D01*
X113184256Y-50261387D01*
X112671626Y-50261387D01*
X112671626Y-49564607D01*
G37*
G36*
X114370119Y-50274087D02*
G01*
X114416950Y-50347112D01*
X114439175Y-50455856D01*
X114443342Y-50520745D01*
X114444731Y-50590000D01*
X114443342Y-50659056D01*
X114439175Y-50723350D01*
X114416950Y-50832094D01*
X114369325Y-50905913D01*
X114289156Y-50932900D01*
X114208194Y-50905913D01*
X114161362Y-50832888D01*
X114139137Y-50724144D01*
X114134970Y-50659255D01*
X114133581Y-50590000D01*
X114134970Y-50520944D01*
X114139137Y-50456650D01*
X114161362Y-50347906D01*
X114208194Y-50274087D01*
X114289156Y-50247100D01*
X114370119Y-50274087D01*
G37*
G04 #@! TO.C,kibuzzard-61EAB7C8*
G36*
X95945619Y-57845344D02*
G01*
X96010706Y-57919162D01*
X96044044Y-58025525D01*
X96053569Y-58149350D01*
X96050592Y-58219398D01*
X96041662Y-58283494D01*
X96001975Y-58389063D01*
X95928950Y-58458913D01*
X95817031Y-58484313D01*
X95799569Y-58484313D01*
X95782106Y-58482725D01*
X95782106Y-57822325D01*
X95810681Y-57818356D01*
X95839256Y-57817562D01*
X95945619Y-57845344D01*
G37*
G36*
X94280464Y-57123957D02*
G01*
X99139536Y-57123957D01*
X99139536Y-59416043D01*
X94280464Y-59416043D01*
X94280464Y-58903413D01*
X96307569Y-58903413D01*
X97075919Y-58903413D01*
X97075919Y-58733550D01*
X96307569Y-58733550D01*
X96307569Y-58903413D01*
X94280464Y-58903413D01*
X94280464Y-57820737D01*
X94793094Y-57820737D01*
X95007406Y-57820737D01*
X95007406Y-58479550D01*
X94793094Y-58479550D01*
X94793094Y-58641475D01*
X95416981Y-58641475D01*
X95416981Y-58630363D01*
X95586844Y-58630363D01*
X95694000Y-58648619D01*
X95796394Y-58654175D01*
X95892239Y-58647230D01*
X95979750Y-58626394D01*
X96057339Y-58590477D01*
X96061108Y-58587500D01*
X97152119Y-58587500D01*
X97261656Y-58635919D01*
X97346984Y-58655564D01*
X97456919Y-58662113D01*
X97568308Y-58653734D01*
X97659060Y-58628599D01*
X97729175Y-58586706D01*
X97796445Y-58495623D01*
X97818869Y-58373188D01*
X97812122Y-58299170D01*
X97791881Y-58239044D01*
X97722825Y-58150144D01*
X97721546Y-58149350D01*
X97925231Y-58149350D01*
X97932077Y-58265337D01*
X97952616Y-58367234D01*
X97986846Y-58455043D01*
X98034769Y-58528763D01*
X98118730Y-58602846D01*
X98224563Y-58647296D01*
X98352269Y-58662113D01*
X98438986Y-58656755D01*
X98514988Y-58640681D01*
X98626906Y-58593850D01*
X98577694Y-58439863D01*
X98497525Y-58474788D01*
X98371319Y-58492250D01*
X98258011Y-58469827D01*
X98181613Y-58402556D01*
X98149422Y-58334029D01*
X98130107Y-58248040D01*
X98123669Y-58144587D01*
X98129027Y-58055687D01*
X98145100Y-57982662D01*
X98200663Y-57878681D01*
X98278450Y-57823119D01*
X98368144Y-57806450D01*
X98486413Y-57823119D01*
X98574519Y-57863600D01*
X98625319Y-57708025D01*
X98592775Y-57688975D01*
X98539594Y-57665162D01*
X98465775Y-57645319D01*
X98371319Y-57636587D01*
X98278252Y-57645120D01*
X98192725Y-57670719D01*
X98116525Y-57712787D01*
X98051438Y-57770731D01*
X97998455Y-57843955D01*
X97958569Y-57931862D01*
X97933566Y-58033859D01*
X97925231Y-58149350D01*
X97721546Y-58149350D01*
X97630750Y-58092994D01*
X97534706Y-58054100D01*
X97473588Y-58030287D01*
X97418025Y-58000919D01*
X97377544Y-57962819D01*
X97361669Y-57912812D01*
X97378955Y-57850194D01*
X97430813Y-57812624D01*
X97517244Y-57800100D01*
X97629163Y-57815975D01*
X97717269Y-57854075D01*
X97774419Y-57703262D01*
X97660913Y-57657225D01*
X97587689Y-57641747D01*
X97502956Y-57636587D01*
X97405678Y-57645231D01*
X97323392Y-57671160D01*
X97256100Y-57714375D01*
X97188830Y-57807244D01*
X97166406Y-57930275D01*
X97191806Y-58046956D01*
X97256100Y-58125537D01*
X97342619Y-58177925D01*
X97434694Y-58214437D01*
X97501369Y-58242219D01*
X97561694Y-58275556D01*
X97606144Y-58317625D01*
X97623606Y-58371600D01*
X97616463Y-58418431D01*
X97590269Y-58459706D01*
X97538675Y-58488281D01*
X97456919Y-58498600D01*
X97377742Y-58493044D01*
X97311663Y-58476375D01*
X97209269Y-58428750D01*
X97152119Y-58587500D01*
X96061108Y-58587500D01*
X96123419Y-58538288D01*
X96177195Y-58469033D01*
X96217875Y-58381919D01*
X96243473Y-58275755D01*
X96252006Y-58149350D01*
X96244267Y-58025723D01*
X96221050Y-57921544D01*
X96183942Y-57835422D01*
X96134531Y-57765969D01*
X96072817Y-57712986D01*
X95998800Y-57676275D01*
X95914464Y-57654844D01*
X95821794Y-57647700D01*
X95712256Y-57652462D01*
X95586844Y-57671512D01*
X95586844Y-58630363D01*
X95416981Y-58630363D01*
X95416981Y-58479550D01*
X95204256Y-58479550D01*
X95204256Y-57820737D01*
X95416981Y-57820737D01*
X95416981Y-57658812D01*
X94793094Y-57658812D01*
X94793094Y-57820737D01*
X94280464Y-57820737D01*
X94280464Y-57123957D01*
G37*
G04 #@! TO.C,kibuzzard-61EAB879*
G36*
X99145199Y-67015393D02*
G01*
X95114801Y-67015393D01*
X95114801Y-65661387D01*
X95627431Y-65661387D01*
X95841744Y-65661387D01*
X95841744Y-66320200D01*
X95627431Y-66320200D01*
X95627431Y-66482125D01*
X96251319Y-66482125D01*
X96251319Y-66320200D01*
X96038594Y-66320200D01*
X96038594Y-65990000D01*
X96378319Y-65990000D01*
X96384024Y-66109211D01*
X96401139Y-66212845D01*
X96429664Y-66300902D01*
X96469600Y-66373381D01*
X96539538Y-66445260D01*
X96627644Y-66488387D01*
X96733919Y-66502763D01*
X96837635Y-66488387D01*
X96924419Y-66445260D01*
X96994269Y-66373381D01*
X97034552Y-66300902D01*
X97063325Y-66212845D01*
X97080589Y-66109211D01*
X97086344Y-65990000D01*
X97080688Y-65870789D01*
X97063722Y-65767155D01*
X97035445Y-65679098D01*
X96996289Y-65607412D01*
X97197469Y-65607412D01*
X97294306Y-65743937D01*
X97394319Y-65669325D01*
X97491156Y-65647100D01*
X97583231Y-65679644D01*
X97619744Y-65772512D01*
X97590375Y-65856650D01*
X97515763Y-65942375D01*
X97468931Y-65987817D01*
X97418925Y-66035244D01*
X97368919Y-66085647D01*
X97322088Y-66140019D01*
X97280813Y-66198955D01*
X97247475Y-66263050D01*
X97225448Y-66332900D01*
X97218106Y-66409100D01*
X97217313Y-66442438D01*
X97221281Y-66482125D01*
X97862631Y-66482125D01*
X97862631Y-66451963D01*
X97978519Y-66451963D01*
X98023763Y-66469425D01*
X98089644Y-66486094D01*
X98165844Y-66498000D01*
X98243631Y-66502763D01*
X98334516Y-66496809D01*
X98413494Y-66478950D01*
X98480566Y-66450375D01*
X98535731Y-66412275D01*
X98608756Y-66311469D01*
X98632569Y-66185263D01*
X98621809Y-66093188D01*
X98589530Y-66015929D01*
X98535731Y-65953487D01*
X98460060Y-65906215D01*
X98362165Y-65874465D01*
X98242044Y-65858237D01*
X98249981Y-65767750D01*
X98257919Y-65661387D01*
X98596056Y-65661387D01*
X98596056Y-65499462D01*
X98094406Y-65499462D01*
X98088453Y-65620708D01*
X98080119Y-65746319D01*
X98069006Y-65875502D01*
X98054719Y-66007463D01*
X98163859Y-66010836D01*
X98249981Y-66020956D01*
X98365075Y-66059056D01*
X98419050Y-66117794D01*
X98432544Y-66193200D01*
X98424606Y-66245588D01*
X98395238Y-66290831D01*
X98336500Y-66323375D01*
X98242044Y-66336075D01*
X98167828Y-66332503D01*
X98107106Y-66321788D01*
X98018206Y-66290038D01*
X97978519Y-66451963D01*
X97862631Y-66451963D01*
X97862631Y-66320200D01*
X97440356Y-66320200D01*
X97457025Y-66267813D01*
X97497506Y-66211456D01*
X97548306Y-66157481D01*
X97595931Y-66112238D01*
X97676894Y-66032863D01*
X97748331Y-65947137D01*
X97799131Y-65855856D01*
X97818181Y-65758225D01*
X97792781Y-65635194D01*
X97724519Y-65547087D01*
X97626094Y-65494700D01*
X97510206Y-65477237D01*
X97427458Y-65485175D01*
X97344313Y-65508987D01*
X97265930Y-65549469D01*
X97197469Y-65607412D01*
X96996289Y-65607412D01*
X96995856Y-65606619D01*
X96926359Y-65534740D01*
X96838517Y-65491613D01*
X96732331Y-65477237D01*
X96629320Y-65491613D01*
X96542537Y-65534740D01*
X96471981Y-65606619D01*
X96431004Y-65679098D01*
X96401734Y-65767155D01*
X96384173Y-65870789D01*
X96378319Y-65990000D01*
X96038594Y-65990000D01*
X96038594Y-65661387D01*
X96251319Y-65661387D01*
X96251319Y-65499462D01*
X95627431Y-65499462D01*
X95627431Y-65661387D01*
X95114801Y-65661387D01*
X95114801Y-64964607D01*
X99145199Y-64964607D01*
X99145199Y-67015393D01*
G37*
G36*
X96813294Y-65674087D02*
G01*
X96860125Y-65747112D01*
X96882350Y-65855856D01*
X96886517Y-65920745D01*
X96887906Y-65990000D01*
X96886517Y-66059056D01*
X96882350Y-66123350D01*
X96860125Y-66232094D01*
X96812500Y-66305913D01*
X96732331Y-66332900D01*
X96651369Y-66305913D01*
X96604537Y-66232888D01*
X96582312Y-66124144D01*
X96578145Y-66059255D01*
X96576756Y-65990000D01*
X96578145Y-65920944D01*
X96582312Y-65856650D01*
X96604537Y-65747906D01*
X96651369Y-65674087D01*
X96732331Y-65647100D01*
X96813294Y-65674087D01*
G37*
G04 #@! TO.C,kibuzzard-61EAB5AF*
G36*
X114353097Y-81997341D02*
G01*
X114408263Y-82024725D01*
X114443981Y-82071556D01*
X114455888Y-82139025D01*
X114411438Y-82249356D01*
X114353097Y-82278527D01*
X114266975Y-82288250D01*
X114224112Y-82288250D01*
X114224112Y-81992975D01*
X114255862Y-81989006D01*
X114282850Y-81988212D01*
X114353097Y-81997341D01*
G37*
G36*
X115181375Y-82015994D02*
G01*
X115246463Y-82089812D01*
X115279800Y-82196175D01*
X115289325Y-82320000D01*
X115286348Y-82390048D01*
X115277419Y-82454144D01*
X115237731Y-82559713D01*
X115164706Y-82629563D01*
X115052788Y-82654963D01*
X115035325Y-82654963D01*
X115017863Y-82653375D01*
X115017863Y-81992975D01*
X115046438Y-81989006D01*
X115075013Y-81988212D01*
X115181375Y-82015994D01*
G37*
G36*
X116000393Y-83345393D02*
G01*
X112679607Y-83345393D01*
X112679607Y-82320000D01*
X113192237Y-82320000D01*
X113199381Y-82439261D01*
X113220812Y-82543044D01*
X113255341Y-82631150D01*
X113301775Y-82703381D01*
X113359520Y-82759738D01*
X113427981Y-82800219D01*
X113506364Y-82824627D01*
X113593875Y-82832763D01*
X113690911Y-82828794D01*
X113772469Y-82816888D01*
X113790595Y-82812125D01*
X114028850Y-82812125D01*
X114224112Y-82812125D01*
X114224112Y-82450175D01*
X114325712Y-82450175D01*
X114379489Y-82540067D01*
X114429694Y-82628769D01*
X114475136Y-82718661D01*
X114514625Y-82812125D01*
X114719413Y-82812125D01*
X114714578Y-82801013D01*
X114822600Y-82801013D01*
X114929756Y-82819269D01*
X115032150Y-82824825D01*
X115127995Y-82817880D01*
X115215506Y-82797044D01*
X115293095Y-82761127D01*
X115359175Y-82708938D01*
X115412952Y-82639683D01*
X115453631Y-82552569D01*
X115479230Y-82446405D01*
X115487763Y-82320000D01*
X115480023Y-82196373D01*
X115456806Y-82092194D01*
X115419698Y-82006072D01*
X115370288Y-81936619D01*
X115308573Y-81883636D01*
X115234556Y-81846925D01*
X115150220Y-81825494D01*
X115057550Y-81818350D01*
X114948013Y-81823112D01*
X114822600Y-81842162D01*
X114822600Y-82801013D01*
X114714578Y-82801013D01*
X114674169Y-82708144D01*
X114619400Y-82598606D01*
X114560663Y-82493831D01*
X114503513Y-82402550D01*
X114572966Y-82357703D01*
X114619400Y-82296187D01*
X114645594Y-82222369D01*
X114654325Y-82140612D01*
X114647777Y-82063420D01*
X114628131Y-81996944D01*
X114552725Y-81896137D01*
X114498750Y-81861609D01*
X114435250Y-81837400D01*
X114363019Y-81823112D01*
X114282850Y-81818350D01*
X114227287Y-81819938D01*
X114160612Y-81823906D01*
X114091556Y-81831844D01*
X114028850Y-81843750D01*
X114028850Y-82812125D01*
X113790595Y-82812125D01*
X113881212Y-82788313D01*
X113881212Y-82297775D01*
X113685950Y-82297775D01*
X113685950Y-82656550D01*
X113647850Y-82661313D01*
X113609750Y-82662900D01*
X113514897Y-82642064D01*
X113446237Y-82579556D01*
X113415369Y-82513675D01*
X113396849Y-82427156D01*
X113390675Y-82320000D01*
X113394048Y-82247173D01*
X113404169Y-82181094D01*
X113448619Y-82073144D01*
X113527200Y-82002500D01*
X113644675Y-81977100D01*
X113749450Y-81994562D01*
X113835175Y-82034250D01*
X113885975Y-81878675D01*
X113853431Y-81859625D01*
X113798662Y-81835812D01*
X113720081Y-81815969D01*
X113617687Y-81807237D01*
X113531566Y-81815373D01*
X113451000Y-81839781D01*
X113378372Y-81880461D01*
X113316062Y-81937412D01*
X113264866Y-82010239D01*
X113225575Y-82098544D01*
X113200572Y-82201930D01*
X113192237Y-82320000D01*
X112679607Y-82320000D01*
X112679607Y-81294607D01*
X116000393Y-81294607D01*
X116000393Y-83345393D01*
G37*
G04 #@! TO.C,kibuzzard-61EAD2B4*
G36*
X98371375Y-87065994D02*
G01*
X98436463Y-87139812D01*
X98469800Y-87246175D01*
X98479325Y-87370000D01*
X98476348Y-87440048D01*
X98467419Y-87504144D01*
X98427731Y-87609713D01*
X98354706Y-87679563D01*
X98242788Y-87704963D01*
X98225325Y-87704963D01*
X98207863Y-87703375D01*
X98207863Y-87042975D01*
X98236438Y-87039006D01*
X98265013Y-87038212D01*
X98371375Y-87065994D01*
G37*
G36*
X97543097Y-87047341D02*
G01*
X97598263Y-87074725D01*
X97633981Y-87121556D01*
X97645888Y-87189025D01*
X97601438Y-87299356D01*
X97543097Y-87328527D01*
X97456975Y-87338250D01*
X97414112Y-87338250D01*
X97414112Y-87042975D01*
X97445862Y-87039006D01*
X97472850Y-87038212D01*
X97543097Y-87047341D01*
G37*
G36*
X99190393Y-88395393D02*
G01*
X95869607Y-88395393D01*
X95869607Y-87370000D01*
X96382237Y-87370000D01*
X96389381Y-87489261D01*
X96410812Y-87593044D01*
X96445341Y-87681150D01*
X96491775Y-87753381D01*
X96549520Y-87809738D01*
X96617981Y-87850219D01*
X96696364Y-87874627D01*
X96783875Y-87882763D01*
X96880911Y-87878794D01*
X96962469Y-87866888D01*
X96980595Y-87862125D01*
X97218850Y-87862125D01*
X97414112Y-87862125D01*
X97414112Y-87500175D01*
X97515712Y-87500175D01*
X97569489Y-87590067D01*
X97619694Y-87678769D01*
X97665136Y-87768661D01*
X97704625Y-87862125D01*
X97909413Y-87862125D01*
X97904578Y-87851013D01*
X98012600Y-87851013D01*
X98119756Y-87869269D01*
X98222150Y-87874825D01*
X98317995Y-87867880D01*
X98405506Y-87847044D01*
X98483095Y-87811127D01*
X98549175Y-87758938D01*
X98602952Y-87689683D01*
X98643631Y-87602569D01*
X98669230Y-87496405D01*
X98677763Y-87370000D01*
X98670023Y-87246373D01*
X98646806Y-87142194D01*
X98609698Y-87056072D01*
X98560288Y-86986619D01*
X98498573Y-86933636D01*
X98424556Y-86896925D01*
X98340220Y-86875494D01*
X98247550Y-86868350D01*
X98138013Y-86873112D01*
X98012600Y-86892162D01*
X98012600Y-87851013D01*
X97904578Y-87851013D01*
X97864169Y-87758144D01*
X97809400Y-87648606D01*
X97750663Y-87543831D01*
X97693513Y-87452550D01*
X97762966Y-87407703D01*
X97809400Y-87346187D01*
X97835594Y-87272369D01*
X97844325Y-87190612D01*
X97837777Y-87113420D01*
X97818131Y-87046944D01*
X97742725Y-86946137D01*
X97688750Y-86911609D01*
X97625250Y-86887400D01*
X97553019Y-86873112D01*
X97472850Y-86868350D01*
X97417287Y-86869938D01*
X97350612Y-86873906D01*
X97281556Y-86881844D01*
X97218850Y-86893750D01*
X97218850Y-87862125D01*
X96980595Y-87862125D01*
X97071212Y-87838313D01*
X97071212Y-87347775D01*
X96875950Y-87347775D01*
X96875950Y-87706550D01*
X96837850Y-87711313D01*
X96799750Y-87712900D01*
X96704897Y-87692064D01*
X96636237Y-87629556D01*
X96605369Y-87563675D01*
X96586849Y-87477156D01*
X96580675Y-87370000D01*
X96584048Y-87297173D01*
X96594169Y-87231094D01*
X96638619Y-87123144D01*
X96717200Y-87052500D01*
X96834675Y-87027100D01*
X96939450Y-87044562D01*
X97025175Y-87084250D01*
X97075975Y-86928675D01*
X97043431Y-86909625D01*
X96988662Y-86885812D01*
X96910081Y-86865969D01*
X96807687Y-86857237D01*
X96721566Y-86865373D01*
X96641000Y-86889781D01*
X96568372Y-86930461D01*
X96506062Y-86987412D01*
X96454866Y-87060239D01*
X96415575Y-87148544D01*
X96390572Y-87251930D01*
X96382237Y-87370000D01*
X95869607Y-87370000D01*
X95869607Y-86344607D01*
X99190393Y-86344607D01*
X99190393Y-88395393D01*
G37*
G04 #@! TO.C,kibuzzard-61EAB52D*
G36*
X115924674Y-54115393D02*
G01*
X112675326Y-54115393D01*
X112675326Y-52761387D01*
X113187956Y-52761387D01*
X113402269Y-52761387D01*
X113402269Y-53420200D01*
X113187956Y-53420200D01*
X113187956Y-53582125D01*
X113811844Y-53582125D01*
X113811844Y-53420200D01*
X113599119Y-53420200D01*
X113599119Y-53090000D01*
X113938844Y-53090000D01*
X113944549Y-53209211D01*
X113961664Y-53312845D01*
X113990189Y-53400902D01*
X114030125Y-53473381D01*
X114100063Y-53545260D01*
X114188169Y-53588387D01*
X114294444Y-53602763D01*
X114398160Y-53588387D01*
X114484944Y-53545260D01*
X114554794Y-53473381D01*
X114595077Y-53400902D01*
X114623850Y-53312845D01*
X114641114Y-53209211D01*
X114642501Y-53180488D01*
X114762756Y-53180488D01*
X114772369Y-53312691D01*
X114801209Y-53419318D01*
X114849275Y-53500369D01*
X114915685Y-53557254D01*
X114999558Y-53591385D01*
X115100894Y-53602763D01*
X115176300Y-53595023D01*
X115240594Y-53571806D01*
X115337431Y-53491638D01*
X115393788Y-53383688D01*
X115412044Y-53267800D01*
X115395375Y-53147150D01*
X115340606Y-53047137D01*
X115242975Y-52978875D01*
X115176895Y-52959825D01*
X115097719Y-52953475D01*
X115046919Y-52960619D01*
X114988181Y-52980462D01*
X115042950Y-52877275D01*
X115131056Y-52809806D01*
X115242181Y-52772500D01*
X115366006Y-52759800D01*
X115354894Y-52593112D01*
X115227497Y-52602637D01*
X115112006Y-52631212D01*
X115010406Y-52678441D01*
X114924681Y-52743925D01*
X114855823Y-52827269D01*
X114804825Y-52928075D01*
X114773273Y-53045947D01*
X114762756Y-53180488D01*
X114642501Y-53180488D01*
X114646869Y-53090000D01*
X114641213Y-52970789D01*
X114624247Y-52867155D01*
X114595970Y-52779098D01*
X114556381Y-52706619D01*
X114486884Y-52634740D01*
X114399042Y-52591613D01*
X114292856Y-52577237D01*
X114189845Y-52591613D01*
X114103062Y-52634740D01*
X114032506Y-52706619D01*
X113991529Y-52779098D01*
X113962259Y-52867155D01*
X113944698Y-52970789D01*
X113938844Y-53090000D01*
X113599119Y-53090000D01*
X113599119Y-52761387D01*
X113811844Y-52761387D01*
X113811844Y-52599462D01*
X113187956Y-52599462D01*
X113187956Y-52761387D01*
X112675326Y-52761387D01*
X112675326Y-52064607D01*
X115924674Y-52064607D01*
X115924674Y-54115393D01*
G37*
G36*
X114373819Y-52774087D02*
G01*
X114420650Y-52847112D01*
X114442875Y-52955856D01*
X114447042Y-53020745D01*
X114448431Y-53090000D01*
X114447042Y-53159056D01*
X114442875Y-53223350D01*
X114420650Y-53332094D01*
X114373025Y-53405913D01*
X114292856Y-53432900D01*
X114211894Y-53405913D01*
X114165062Y-53332888D01*
X114142837Y-53224144D01*
X114138670Y-53159255D01*
X114137281Y-53090000D01*
X114138670Y-53020944D01*
X114142837Y-52956650D01*
X114165062Y-52847906D01*
X114211894Y-52774087D01*
X114292856Y-52747100D01*
X114373819Y-52774087D01*
G37*
G36*
X115142566Y-53125520D02*
G01*
X115188206Y-53155881D01*
X115221544Y-53270975D01*
X115214400Y-53326538D01*
X115192175Y-53378925D01*
X115153281Y-53418613D01*
X115096131Y-53434488D01*
X115027075Y-53414644D01*
X114983419Y-53361463D01*
X114961194Y-53286056D01*
X114954844Y-53197950D01*
X114955638Y-53167788D01*
X114958019Y-53139213D01*
X115010406Y-53121750D01*
X115072319Y-53115400D01*
X115142566Y-53125520D01*
G37*
G04 #@! TO.C,C2*
X102135000Y-97088748D02*
X102135000Y-97611252D01*
X103605000Y-97088748D02*
X103605000Y-97611252D01*
G04 #@! TO.C,kibuzzard-61EAB58D*
G36*
X112671939Y-71154607D02*
G01*
X116788061Y-71154607D01*
X116788061Y-73205393D01*
X112671939Y-73205393D01*
X112671939Y-72638788D01*
X113184569Y-72638788D01*
X113233781Y-72656250D01*
X113302837Y-72673713D01*
X113380625Y-72687206D01*
X113457619Y-72692763D01*
X113549297Y-72687008D01*
X113627481Y-72669744D01*
X113692569Y-72641963D01*
X113744956Y-72604656D01*
X113784821Y-72546713D01*
X114168819Y-72546713D01*
X114180725Y-72607831D01*
X114212475Y-72652281D01*
X114257719Y-72680062D01*
X114311694Y-72689588D01*
X114410119Y-72653075D01*
X114415876Y-72638788D01*
X114772069Y-72638788D01*
X114821281Y-72656250D01*
X114890338Y-72673713D01*
X114968125Y-72687206D01*
X115045119Y-72692763D01*
X115136797Y-72687008D01*
X115214981Y-72669744D01*
X115280069Y-72641963D01*
X115332456Y-72604656D01*
X115400719Y-72505438D01*
X115422944Y-72380025D01*
X115412427Y-72300253D01*
X115380875Y-72232388D01*
X115330273Y-72178016D01*
X115262606Y-72138725D01*
X115351506Y-72056175D01*
X115384844Y-71943462D01*
X115365794Y-71833925D01*
X115307056Y-71745819D01*
X115209011Y-71689462D01*
X115521369Y-71689462D01*
X115539625Y-71778362D01*
X115565819Y-71889487D01*
X115586809Y-71972655D01*
X115609563Y-72059174D01*
X115634081Y-72149044D01*
X115660010Y-72240678D01*
X115686998Y-72332488D01*
X115715044Y-72424475D01*
X115756716Y-72555444D01*
X115796006Y-72672125D01*
X115997619Y-72672125D01*
X116027958Y-72587547D01*
X116057591Y-72501028D01*
X116086519Y-72412569D01*
X116114300Y-72323669D01*
X116140494Y-72235827D01*
X116165100Y-72149044D01*
X116198834Y-72022639D01*
X116228600Y-71902187D01*
X116254198Y-71790269D01*
X116275431Y-71689462D01*
X116070644Y-71689462D01*
X116056356Y-71772012D01*
X116038894Y-71867262D01*
X116019050Y-71970252D01*
X115997619Y-72076019D01*
X115974600Y-72182381D01*
X115949994Y-72287156D01*
X115924594Y-72385383D01*
X115899194Y-72472100D01*
X115873595Y-72384192D01*
X115847600Y-72285569D01*
X115822200Y-72180794D01*
X115798388Y-72074431D01*
X115776361Y-71968862D01*
X115756319Y-71866469D01*
X115739650Y-71771814D01*
X115727744Y-71689462D01*
X115521369Y-71689462D01*
X115209011Y-71689462D01*
X115206250Y-71687875D01*
X115139773Y-71672397D01*
X115062581Y-71667237D01*
X114978245Y-71674580D01*
X114903038Y-71696606D01*
X114789531Y-71754550D01*
X114859381Y-71897425D01*
X114953838Y-71852181D01*
X115064169Y-71833925D01*
X115153863Y-71864881D01*
X115186406Y-71949812D01*
X115171325Y-72010137D01*
X115132431Y-72048237D01*
X115078456Y-72068875D01*
X115018131Y-72075225D01*
X114945106Y-72075225D01*
X114945106Y-72237150D01*
X115005431Y-72237150D01*
X115092347Y-72244889D01*
X115162594Y-72268106D01*
X115209028Y-72310770D01*
X115224506Y-72376850D01*
X115184025Y-72483213D01*
X115128661Y-72515359D01*
X115043531Y-72526075D01*
X114968323Y-72521709D01*
X114904625Y-72508613D01*
X114810169Y-72475275D01*
X114772069Y-72638788D01*
X114415876Y-72638788D01*
X114452981Y-72546713D01*
X114410119Y-72443525D01*
X114311694Y-72407013D01*
X114257719Y-72416538D01*
X114212475Y-72443525D01*
X114180725Y-72487181D01*
X114168819Y-72546713D01*
X113784821Y-72546713D01*
X113813219Y-72505438D01*
X113835444Y-72380025D01*
X113824927Y-72300253D01*
X113793375Y-72232388D01*
X113742773Y-72178016D01*
X113675106Y-72138725D01*
X113764006Y-72056175D01*
X113797344Y-71943462D01*
X113778294Y-71833925D01*
X113719556Y-71745819D01*
X113618750Y-71687875D01*
X113552273Y-71672397D01*
X113475081Y-71667237D01*
X113390745Y-71674580D01*
X113315537Y-71696606D01*
X113202031Y-71754550D01*
X113271881Y-71897425D01*
X113366337Y-71852181D01*
X113476669Y-71833925D01*
X113566362Y-71864881D01*
X113598906Y-71949812D01*
X113583825Y-72010137D01*
X113544931Y-72048237D01*
X113490956Y-72068875D01*
X113430631Y-72075225D01*
X113357606Y-72075225D01*
X113357606Y-72237150D01*
X113417931Y-72237150D01*
X113504847Y-72244889D01*
X113575094Y-72268106D01*
X113621528Y-72310770D01*
X113637006Y-72376850D01*
X113596525Y-72483213D01*
X113541161Y-72515359D01*
X113456031Y-72526075D01*
X113380823Y-72521709D01*
X113317125Y-72508613D01*
X113222669Y-72475275D01*
X113184569Y-72638788D01*
X112671939Y-72638788D01*
X112671939Y-71154607D01*
G37*
G04 #@! TO.C,kibuzzard-61EAB538*
G36*
X114360169Y-55384087D02*
G01*
X114407000Y-55457112D01*
X114429225Y-55565856D01*
X114433392Y-55630745D01*
X114434781Y-55700000D01*
X114433392Y-55769056D01*
X114429225Y-55833350D01*
X114407000Y-55942094D01*
X114359375Y-56015913D01*
X114279206Y-56042900D01*
X114198244Y-56015913D01*
X114151412Y-55942888D01*
X114129187Y-55834144D01*
X114125020Y-55769255D01*
X114123631Y-55700000D01*
X114125020Y-55630944D01*
X114129187Y-55566650D01*
X114151412Y-55457906D01*
X114198244Y-55384087D01*
X114279206Y-55357100D01*
X114360169Y-55384087D01*
G37*
G36*
X115898324Y-56725393D02*
G01*
X112661676Y-56725393D01*
X112661676Y-55371387D01*
X113174306Y-55371387D01*
X113388619Y-55371387D01*
X113388619Y-56030200D01*
X113174306Y-56030200D01*
X113174306Y-56192125D01*
X113798194Y-56192125D01*
X113798194Y-56030200D01*
X113585469Y-56030200D01*
X113585469Y-55700000D01*
X113925194Y-55700000D01*
X113930899Y-55819211D01*
X113948014Y-55922845D01*
X113976539Y-56010902D01*
X114016475Y-56083381D01*
X114086413Y-56155260D01*
X114174519Y-56198387D01*
X114280794Y-56212763D01*
X114384510Y-56198387D01*
X114457806Y-56161963D01*
X114731644Y-56161963D01*
X114776888Y-56179425D01*
X114842769Y-56196094D01*
X114918969Y-56208000D01*
X114996756Y-56212763D01*
X115087641Y-56206809D01*
X115166619Y-56188950D01*
X115233691Y-56160375D01*
X115288856Y-56122275D01*
X115361881Y-56021469D01*
X115385694Y-55895263D01*
X115374934Y-55803188D01*
X115342655Y-55725929D01*
X115288856Y-55663487D01*
X115213185Y-55616215D01*
X115115290Y-55584465D01*
X114995169Y-55568237D01*
X115003106Y-55477750D01*
X115011044Y-55371387D01*
X115349181Y-55371387D01*
X115349181Y-55209462D01*
X114847531Y-55209462D01*
X114841578Y-55330708D01*
X114833244Y-55456319D01*
X114822131Y-55585502D01*
X114807844Y-55717463D01*
X114916984Y-55720836D01*
X115003106Y-55730956D01*
X115118200Y-55769056D01*
X115172175Y-55827794D01*
X115185669Y-55903200D01*
X115177731Y-55955588D01*
X115148363Y-56000831D01*
X115089625Y-56033375D01*
X114995169Y-56046075D01*
X114920953Y-56042503D01*
X114860231Y-56031788D01*
X114771331Y-56000038D01*
X114731644Y-56161963D01*
X114457806Y-56161963D01*
X114471294Y-56155260D01*
X114541144Y-56083381D01*
X114581427Y-56010902D01*
X114610200Y-55922845D01*
X114627464Y-55819211D01*
X114633219Y-55700000D01*
X114627563Y-55580789D01*
X114610597Y-55477155D01*
X114582320Y-55389098D01*
X114542731Y-55316619D01*
X114473234Y-55244740D01*
X114385392Y-55201613D01*
X114279206Y-55187237D01*
X114176195Y-55201613D01*
X114089412Y-55244740D01*
X114018856Y-55316619D01*
X113977879Y-55389098D01*
X113948609Y-55477155D01*
X113931048Y-55580789D01*
X113925194Y-55700000D01*
X113585469Y-55700000D01*
X113585469Y-55371387D01*
X113798194Y-55371387D01*
X113798194Y-55209462D01*
X113174306Y-55209462D01*
X113174306Y-55371387D01*
X112661676Y-55371387D01*
X112661676Y-54674607D01*
X115898324Y-54674607D01*
X115898324Y-56725393D01*
G37*
G04 #@! TO.C,J6*
X101810000Y-39985000D02*
X100760000Y-39985000D01*
X100760000Y-39985000D02*
X100760000Y-40975000D01*
X101810000Y-37485000D02*
X101810000Y-39985000D01*
X100640000Y-35515000D02*
X96760000Y-35515000D01*
X95590000Y-39985000D02*
X96640000Y-39985000D01*
X95590000Y-37485000D02*
X95590000Y-39985000D01*
G04 #@! TO.C,kibuzzard-61EAB5C9*
G36*
X112675639Y-88964607D02*
G01*
X116004361Y-88964607D01*
X116004361Y-91015393D01*
X112675639Y-91015393D01*
X112675639Y-90428150D01*
X113188269Y-90428150D01*
X113297806Y-90476569D01*
X113383134Y-90496214D01*
X113493069Y-90502763D01*
X113604458Y-90494384D01*
X113688841Y-90471013D01*
X114004244Y-90471013D01*
X114111400Y-90489269D01*
X114213794Y-90494825D01*
X114309639Y-90487880D01*
X114333810Y-90482125D01*
X114726556Y-90482125D01*
X114929756Y-90482125D01*
X114974206Y-90255113D01*
X115236144Y-90255113D01*
X115282181Y-90482125D01*
X115491731Y-90482125D01*
X115465538Y-90370714D01*
X115439026Y-90262542D01*
X115412198Y-90157608D01*
X115385051Y-90055913D01*
X115357588Y-89957456D01*
X115323010Y-89838046D01*
X115288333Y-89721911D01*
X115253557Y-89609050D01*
X115218681Y-89499462D01*
X115005956Y-89499462D01*
X114972321Y-89608157D01*
X114938091Y-89719927D01*
X114903265Y-89834772D01*
X114867844Y-89952694D01*
X114839332Y-90050325D01*
X114810948Y-90152084D01*
X114782690Y-90257970D01*
X114754560Y-90367984D01*
X114726556Y-90482125D01*
X114333810Y-90482125D01*
X114397150Y-90467044D01*
X114474739Y-90431127D01*
X114540819Y-90378938D01*
X114594595Y-90309683D01*
X114635275Y-90222569D01*
X114660873Y-90116405D01*
X114669406Y-89990000D01*
X114661667Y-89866373D01*
X114638450Y-89762194D01*
X114601342Y-89676072D01*
X114551931Y-89606619D01*
X114490217Y-89553636D01*
X114416200Y-89516925D01*
X114331864Y-89495494D01*
X114239194Y-89488350D01*
X114129656Y-89493112D01*
X114004244Y-89512162D01*
X114004244Y-90471013D01*
X113688841Y-90471013D01*
X113695210Y-90469249D01*
X113765325Y-90427356D01*
X113832595Y-90336273D01*
X113855019Y-90213838D01*
X113848272Y-90139820D01*
X113828031Y-90079694D01*
X113758975Y-89990794D01*
X113666900Y-89933644D01*
X113570856Y-89894750D01*
X113509737Y-89870937D01*
X113454175Y-89841569D01*
X113413694Y-89803469D01*
X113397819Y-89753462D01*
X113415105Y-89690844D01*
X113466963Y-89653274D01*
X113553394Y-89640750D01*
X113665312Y-89656625D01*
X113753419Y-89694725D01*
X113810569Y-89543912D01*
X113697062Y-89497875D01*
X113623839Y-89482397D01*
X113539106Y-89477237D01*
X113441828Y-89485881D01*
X113359542Y-89511810D01*
X113292250Y-89555025D01*
X113224980Y-89647894D01*
X113202556Y-89770925D01*
X113227956Y-89887606D01*
X113292250Y-89966187D01*
X113378769Y-90018575D01*
X113470844Y-90055088D01*
X113537519Y-90082869D01*
X113597844Y-90116206D01*
X113642294Y-90158275D01*
X113659756Y-90212250D01*
X113652612Y-90259081D01*
X113626419Y-90300356D01*
X113574825Y-90328931D01*
X113493069Y-90339250D01*
X113413892Y-90333694D01*
X113347812Y-90317025D01*
X113245419Y-90269400D01*
X113188269Y-90428150D01*
X112675639Y-90428150D01*
X112675639Y-88964607D01*
G37*
G36*
X114363019Y-89685994D02*
G01*
X114428106Y-89759812D01*
X114461444Y-89866175D01*
X114470969Y-89990000D01*
X114467992Y-90060048D01*
X114459063Y-90124144D01*
X114419375Y-90229713D01*
X114346350Y-90299563D01*
X114234431Y-90324963D01*
X114216969Y-90324963D01*
X114199506Y-90323375D01*
X114199506Y-89662975D01*
X114228081Y-89659006D01*
X114256656Y-89658212D01*
X114363019Y-89685994D01*
G37*
G36*
X115136925Y-89795531D02*
G01*
X115162325Y-89893956D01*
X115183756Y-89991588D01*
X115202806Y-90093188D01*
X115010719Y-90093188D01*
X115030563Y-89991588D01*
X115052788Y-89893956D01*
X115078188Y-89795531D01*
X115107556Y-89689962D01*
X115136925Y-89795531D01*
G37*
G04 #@! TO.C,kibuzzard-61EAB567*
G36*
X112670351Y-62314607D02*
G01*
X116789649Y-62314607D01*
X116789649Y-64365393D01*
X112670351Y-64365393D01*
X112670351Y-63778150D01*
X113182981Y-63778150D01*
X113292519Y-63826569D01*
X113377847Y-63846214D01*
X113487781Y-63852763D01*
X113599171Y-63844384D01*
X113689923Y-63819249D01*
X113760037Y-63777356D01*
X113827308Y-63686273D01*
X113849731Y-63563838D01*
X113842984Y-63489820D01*
X113822744Y-63429694D01*
X113753687Y-63340794D01*
X113752408Y-63340000D01*
X113956094Y-63340000D01*
X113962940Y-63455987D01*
X113983478Y-63557884D01*
X114017709Y-63645693D01*
X114065631Y-63719413D01*
X114149592Y-63793496D01*
X114255426Y-63837946D01*
X114383131Y-63852763D01*
X114469848Y-63847405D01*
X114542096Y-63832125D01*
X114819694Y-63832125D01*
X115437231Y-63832125D01*
X115572169Y-63832125D01*
X115767431Y-63832125D01*
X115767431Y-63382863D01*
X115850775Y-63472556D01*
X115893439Y-63527722D01*
X115934119Y-63586856D01*
X115972020Y-63648769D01*
X116006350Y-63712269D01*
X116056356Y-63832125D01*
X116277019Y-63832125D01*
X116251222Y-63761283D01*
X116218281Y-63688456D01*
X116179586Y-63615431D01*
X116136525Y-63543994D01*
X116089892Y-63475533D01*
X116040481Y-63411438D01*
X115990078Y-63353097D01*
X115940469Y-63301900D01*
X115988689Y-63243559D01*
X116034925Y-63182837D01*
X116078780Y-63121520D01*
X116119856Y-63061394D01*
X116157361Y-63003053D01*
X116190500Y-62947094D01*
X116243681Y-62849462D01*
X116023019Y-62849462D01*
X115975394Y-62944712D01*
X115912688Y-63051075D01*
X115840456Y-63159025D01*
X115767431Y-63257450D01*
X115767431Y-62849462D01*
X115572169Y-62849462D01*
X115572169Y-63832125D01*
X115437231Y-63832125D01*
X115437231Y-63670200D01*
X115016544Y-63670200D01*
X115016544Y-62849462D01*
X114819694Y-62849462D01*
X114819694Y-63832125D01*
X114542096Y-63832125D01*
X114545850Y-63831331D01*
X114657769Y-63784500D01*
X114608556Y-63630513D01*
X114528387Y-63665438D01*
X114402181Y-63682900D01*
X114288873Y-63660477D01*
X114212475Y-63593206D01*
X114180284Y-63524679D01*
X114160969Y-63438690D01*
X114154531Y-63335237D01*
X114159889Y-63246337D01*
X114175962Y-63173312D01*
X114231525Y-63069331D01*
X114309312Y-63013769D01*
X114399006Y-62997100D01*
X114517275Y-63013769D01*
X114605381Y-63054250D01*
X114656181Y-62898675D01*
X114623637Y-62879625D01*
X114570456Y-62855812D01*
X114496637Y-62835969D01*
X114402181Y-62827237D01*
X114309114Y-62835770D01*
X114223587Y-62861369D01*
X114147387Y-62903437D01*
X114082300Y-62961381D01*
X114029317Y-63034605D01*
X113989431Y-63122512D01*
X113964428Y-63224509D01*
X113956094Y-63340000D01*
X113752408Y-63340000D01*
X113661612Y-63283644D01*
X113565569Y-63244750D01*
X113504450Y-63220937D01*
X113448887Y-63191569D01*
X113408406Y-63153469D01*
X113392531Y-63103462D01*
X113409817Y-63040844D01*
X113461676Y-63003274D01*
X113548106Y-62990750D01*
X113660025Y-63006625D01*
X113748131Y-63044725D01*
X113805281Y-62893912D01*
X113691775Y-62847875D01*
X113618552Y-62832397D01*
X113533819Y-62827237D01*
X113436540Y-62835881D01*
X113354255Y-62861810D01*
X113286962Y-62905025D01*
X113219692Y-62997894D01*
X113197269Y-63120925D01*
X113222669Y-63237606D01*
X113286962Y-63316187D01*
X113373481Y-63368575D01*
X113465556Y-63405088D01*
X113532231Y-63432869D01*
X113592556Y-63466206D01*
X113637006Y-63508275D01*
X113654469Y-63562250D01*
X113647325Y-63609081D01*
X113621131Y-63650356D01*
X113569537Y-63678931D01*
X113487781Y-63689250D01*
X113408605Y-63683694D01*
X113342525Y-63667025D01*
X113240131Y-63619400D01*
X113182981Y-63778150D01*
X112670351Y-63778150D01*
X112670351Y-62314607D01*
G37*
G04 #@! TO.C,kibuzzard-61EAD2FB*
G36*
X99164217Y-88843975D02*
G01*
X99164217Y-93816025D01*
X95815783Y-93816025D01*
X95815783Y-91780850D01*
X97138699Y-91780850D01*
X97183943Y-91798313D01*
X97249824Y-91814981D01*
X97326024Y-91826888D01*
X97403812Y-91831650D01*
X97494696Y-91825697D01*
X97573674Y-91807838D01*
X97640746Y-91779263D01*
X97695912Y-91741163D01*
X97768937Y-91640356D01*
X97792749Y-91514150D01*
X97781990Y-91422075D01*
X97749711Y-91344817D01*
X97695912Y-91282375D01*
X97620241Y-91235103D01*
X97522345Y-91203353D01*
X97402224Y-91187125D01*
X97410162Y-91096637D01*
X97418099Y-90990275D01*
X97756237Y-90990275D01*
X97756237Y-90828350D01*
X97897524Y-90828350D01*
X97915781Y-90917250D01*
X97941974Y-91028375D01*
X97962965Y-91111542D01*
X97985719Y-91198061D01*
X98010237Y-91287931D01*
X98036166Y-91379565D01*
X98063154Y-91471376D01*
X98091199Y-91563363D01*
X98132871Y-91694331D01*
X98172162Y-91811013D01*
X98373774Y-91811013D01*
X98404113Y-91726434D01*
X98433747Y-91639915D01*
X98462674Y-91551456D01*
X98490456Y-91462556D01*
X98516649Y-91374715D01*
X98541256Y-91287931D01*
X98574990Y-91161527D01*
X98604756Y-91041075D01*
X98630354Y-90929156D01*
X98651587Y-90828350D01*
X98446799Y-90828350D01*
X98432512Y-90910900D01*
X98415049Y-91006150D01*
X98395206Y-91109139D01*
X98373774Y-91214906D01*
X98350756Y-91321269D01*
X98326149Y-91426044D01*
X98300749Y-91524270D01*
X98275349Y-91610988D01*
X98249751Y-91523080D01*
X98223756Y-91424456D01*
X98198356Y-91319681D01*
X98174543Y-91213319D01*
X98152517Y-91107750D01*
X98132474Y-91005356D01*
X98115806Y-90910702D01*
X98103899Y-90828350D01*
X97897524Y-90828350D01*
X97756237Y-90828350D01*
X97254587Y-90828350D01*
X97248634Y-90949595D01*
X97240299Y-91075206D01*
X97229187Y-91204389D01*
X97214899Y-91336350D01*
X97324040Y-91339723D01*
X97410162Y-91349844D01*
X97525256Y-91387944D01*
X97579231Y-91446681D01*
X97592724Y-91522088D01*
X97584787Y-91574475D01*
X97555418Y-91619719D01*
X97496681Y-91652263D01*
X97402224Y-91664963D01*
X97328009Y-91661391D01*
X97267287Y-91650675D01*
X97178387Y-91618925D01*
X97138699Y-91780850D01*
X95815783Y-91780850D01*
X95815783Y-88843975D01*
X99164217Y-88843975D01*
G37*
G04 #@! TO.C,kibuzzard-61EAB596*
G36*
X114371387Y-74404087D02*
G01*
X114418219Y-74477112D01*
X114440444Y-74585856D01*
X114444611Y-74650745D01*
X114446000Y-74720000D01*
X114444611Y-74789056D01*
X114440444Y-74853350D01*
X114418219Y-74962094D01*
X114370594Y-75035913D01*
X114290425Y-75062900D01*
X114209462Y-75035913D01*
X114162631Y-74962888D01*
X114140406Y-74854144D01*
X114136239Y-74789255D01*
X114134850Y-74720000D01*
X114136239Y-74650944D01*
X114140406Y-74586650D01*
X114162631Y-74477906D01*
X114209462Y-74404087D01*
X114290425Y-74377100D01*
X114371387Y-74404087D01*
G37*
G36*
X116727105Y-75745393D02*
G01*
X112672895Y-75745393D01*
X112672895Y-74391387D01*
X113185525Y-74391387D01*
X113399837Y-74391387D01*
X113399837Y-75050200D01*
X113185525Y-75050200D01*
X113185525Y-75212125D01*
X113809412Y-75212125D01*
X113809412Y-75050200D01*
X113596687Y-75050200D01*
X113596687Y-74720000D01*
X113936412Y-74720000D01*
X113942118Y-74839211D01*
X113959233Y-74942845D01*
X113987758Y-75030902D01*
X114027694Y-75103381D01*
X114097632Y-75175260D01*
X114185738Y-75218387D01*
X114292012Y-75232763D01*
X114395729Y-75218387D01*
X114482512Y-75175260D01*
X114552362Y-75103381D01*
X114592645Y-75030902D01*
X114621419Y-74942845D01*
X114638683Y-74839211D01*
X114644437Y-74720000D01*
X114638782Y-74600789D01*
X114621816Y-74497155D01*
X114593538Y-74409098D01*
X114554383Y-74337412D01*
X114755563Y-74337412D01*
X114852400Y-74473937D01*
X114952412Y-74399325D01*
X115049250Y-74377100D01*
X115141325Y-74409644D01*
X115177838Y-74502512D01*
X115148469Y-74586650D01*
X115073856Y-74672375D01*
X115027025Y-74717817D01*
X114977019Y-74765244D01*
X114927013Y-74815647D01*
X114880181Y-74870019D01*
X114838906Y-74928955D01*
X114805569Y-74993050D01*
X114783542Y-75062900D01*
X114776200Y-75139100D01*
X114775406Y-75172438D01*
X114779375Y-75212125D01*
X115420725Y-75212125D01*
X115420725Y-75050200D01*
X114998450Y-75050200D01*
X115015119Y-74997813D01*
X115055600Y-74941456D01*
X115106400Y-74887481D01*
X115154025Y-74842238D01*
X115234988Y-74762863D01*
X115306425Y-74677137D01*
X115357225Y-74585856D01*
X115376275Y-74488225D01*
X115350875Y-74365194D01*
X115329351Y-74337412D01*
X115549313Y-74337412D01*
X115646150Y-74473937D01*
X115746163Y-74399325D01*
X115843000Y-74377100D01*
X115935075Y-74409644D01*
X115971588Y-74502512D01*
X115942219Y-74586650D01*
X115867606Y-74672375D01*
X115820775Y-74717817D01*
X115770769Y-74765244D01*
X115720763Y-74815647D01*
X115673931Y-74870019D01*
X115632656Y-74928955D01*
X115599319Y-74993050D01*
X115577292Y-75062900D01*
X115569950Y-75139100D01*
X115569156Y-75172438D01*
X115573125Y-75212125D01*
X116214475Y-75212125D01*
X116214475Y-75050200D01*
X115792200Y-75050200D01*
X115808869Y-74997813D01*
X115849350Y-74941456D01*
X115900150Y-74887481D01*
X115947775Y-74842238D01*
X116028738Y-74762863D01*
X116100175Y-74677137D01*
X116150975Y-74585856D01*
X116170025Y-74488225D01*
X116144625Y-74365194D01*
X116076363Y-74277087D01*
X115977938Y-74224700D01*
X115862050Y-74207237D01*
X115779302Y-74215175D01*
X115696156Y-74238987D01*
X115617773Y-74279469D01*
X115549313Y-74337412D01*
X115329351Y-74337412D01*
X115282613Y-74277087D01*
X115184188Y-74224700D01*
X115068300Y-74207237D01*
X114985552Y-74215175D01*
X114902406Y-74238987D01*
X114824023Y-74279469D01*
X114755563Y-74337412D01*
X114554383Y-74337412D01*
X114553950Y-74336619D01*
X114484453Y-74264740D01*
X114396611Y-74221613D01*
X114290425Y-74207237D01*
X114187414Y-74221613D01*
X114100631Y-74264740D01*
X114030075Y-74336619D01*
X113989098Y-74409098D01*
X113959828Y-74497155D01*
X113942266Y-74600789D01*
X113936412Y-74720000D01*
X113596687Y-74720000D01*
X113596687Y-74391387D01*
X113809412Y-74391387D01*
X113809412Y-74229462D01*
X113185525Y-74229462D01*
X113185525Y-74391387D01*
X112672895Y-74391387D01*
X112672895Y-73694607D01*
X116727105Y-73694607D01*
X116727105Y-75745393D01*
G37*
G04 #@! TO.C,kibuzzard-61EAB753*
G36*
X94247289Y-42084607D02*
G01*
X99112711Y-42084607D01*
X99112711Y-44135393D01*
X94247289Y-44135393D01*
X94247289Y-43548150D01*
X94759919Y-43548150D01*
X94869456Y-43596569D01*
X94954784Y-43616214D01*
X95064719Y-43622763D01*
X95176108Y-43614384D01*
X95266860Y-43589249D01*
X95336975Y-43547356D01*
X95404245Y-43456273D01*
X95426669Y-43333838D01*
X95419922Y-43259820D01*
X95399681Y-43199694D01*
X95330625Y-43110794D01*
X95329346Y-43110000D01*
X95533031Y-43110000D01*
X95539877Y-43225987D01*
X95560416Y-43327884D01*
X95594646Y-43415693D01*
X95642569Y-43489413D01*
X95726530Y-43563496D01*
X95832363Y-43607946D01*
X95960069Y-43622763D01*
X96046786Y-43617405D01*
X96119033Y-43602125D01*
X96396631Y-43602125D01*
X97014169Y-43602125D01*
X97149106Y-43602125D01*
X97344369Y-43602125D01*
X97344369Y-43152863D01*
X97427713Y-43242556D01*
X97470377Y-43297722D01*
X97511056Y-43356856D01*
X97548958Y-43418769D01*
X97583288Y-43482269D01*
X97633294Y-43602125D01*
X97853956Y-43602125D01*
X97828159Y-43531283D01*
X97795219Y-43458456D01*
X97756523Y-43385431D01*
X97713463Y-43313994D01*
X97666830Y-43245533D01*
X97617419Y-43181438D01*
X97567016Y-43123097D01*
X97517406Y-43071900D01*
X97565627Y-43013559D01*
X97611863Y-42952837D01*
X97655717Y-42891520D01*
X97696794Y-42831394D01*
X97701386Y-42824250D01*
X97947619Y-42824250D01*
X98011119Y-42986175D01*
X98107956Y-42947281D01*
X98209556Y-42890925D01*
X98209556Y-43440200D01*
X98003181Y-43440200D01*
X98003181Y-43602125D01*
X98600081Y-43602125D01*
X98600081Y-43440200D01*
X98404819Y-43440200D01*
X98404819Y-42619462D01*
X98271469Y-42619462D01*
X98203206Y-42681375D01*
X98119069Y-42738525D01*
X98030169Y-42787737D01*
X97947619Y-42824250D01*
X97701386Y-42824250D01*
X97734298Y-42773053D01*
X97767438Y-42717094D01*
X97820619Y-42619462D01*
X97599956Y-42619462D01*
X97552331Y-42714712D01*
X97489625Y-42821075D01*
X97417394Y-42929025D01*
X97344369Y-43027450D01*
X97344369Y-42619462D01*
X97149106Y-42619462D01*
X97149106Y-43602125D01*
X97014169Y-43602125D01*
X97014169Y-43440200D01*
X96593481Y-43440200D01*
X96593481Y-42619462D01*
X96396631Y-42619462D01*
X96396631Y-43602125D01*
X96119033Y-43602125D01*
X96122787Y-43601331D01*
X96234706Y-43554500D01*
X96185494Y-43400513D01*
X96105325Y-43435438D01*
X95979119Y-43452900D01*
X95865811Y-43430477D01*
X95789412Y-43363206D01*
X95757222Y-43294679D01*
X95737907Y-43208690D01*
X95731469Y-43105237D01*
X95736827Y-43016337D01*
X95752900Y-42943312D01*
X95808462Y-42839331D01*
X95886250Y-42783769D01*
X95975944Y-42767100D01*
X96094212Y-42783769D01*
X96182319Y-42824250D01*
X96233119Y-42668675D01*
X96200575Y-42649625D01*
X96147394Y-42625812D01*
X96073575Y-42605969D01*
X95979119Y-42597237D01*
X95886052Y-42605770D01*
X95800525Y-42631369D01*
X95724325Y-42673437D01*
X95659237Y-42731381D01*
X95606255Y-42804605D01*
X95566369Y-42892512D01*
X95541366Y-42994509D01*
X95533031Y-43110000D01*
X95329346Y-43110000D01*
X95238550Y-43053644D01*
X95142506Y-43014750D01*
X95081387Y-42990937D01*
X95025825Y-42961569D01*
X94985344Y-42923469D01*
X94969469Y-42873462D01*
X94986755Y-42810844D01*
X95038613Y-42773274D01*
X95125044Y-42760750D01*
X95236962Y-42776625D01*
X95325069Y-42814725D01*
X95382219Y-42663912D01*
X95268712Y-42617875D01*
X95195489Y-42602397D01*
X95110756Y-42597237D01*
X95013478Y-42605881D01*
X94931192Y-42631810D01*
X94863900Y-42675025D01*
X94796630Y-42767894D01*
X94774206Y-42890925D01*
X94799606Y-43007606D01*
X94863900Y-43086187D01*
X94950419Y-43138575D01*
X95042494Y-43175088D01*
X95109169Y-43202869D01*
X95169494Y-43236206D01*
X95213944Y-43278275D01*
X95231406Y-43332250D01*
X95224262Y-43379081D01*
X95198069Y-43420356D01*
X95146475Y-43448931D01*
X95064719Y-43459250D01*
X94985542Y-43453694D01*
X94919462Y-43437025D01*
X94817069Y-43389400D01*
X94759919Y-43548150D01*
X94247289Y-43548150D01*
X94247289Y-42084607D01*
G37*
G04 #@! TO.C,kibuzzard-61EAB790*
G36*
X94213795Y-44504607D02*
G01*
X99106205Y-44504607D01*
X99106205Y-46555393D01*
X94213795Y-46555393D01*
X94213795Y-46022125D01*
X94726425Y-46022125D01*
X94905812Y-46022125D01*
X94897875Y-45258537D01*
X95013762Y-45674463D01*
X95156637Y-45674463D01*
X95277287Y-45258537D01*
X95267762Y-46022125D01*
X95447150Y-46022125D01*
X95443578Y-45896514D01*
X95439212Y-45773681D01*
X95433855Y-45652634D01*
X95427306Y-45532381D01*
X95427149Y-45530000D01*
X95526525Y-45530000D01*
X95532230Y-45649211D01*
X95549345Y-45752845D01*
X95577871Y-45840902D01*
X95617806Y-45913381D01*
X95687744Y-45985260D01*
X95775851Y-46028387D01*
X95882125Y-46042763D01*
X95985842Y-46028387D01*
X96072625Y-45985260D01*
X96089252Y-45968150D01*
X96340912Y-45968150D01*
X96450450Y-46016569D01*
X96535778Y-46036214D01*
X96645712Y-46042763D01*
X96757102Y-46034384D01*
X96801364Y-46022125D01*
X97156888Y-46022125D01*
X97780775Y-46022125D01*
X97780775Y-45860200D01*
X97568050Y-45860200D01*
X97568050Y-45244250D01*
X97941113Y-45244250D01*
X98004613Y-45406175D01*
X98101450Y-45367281D01*
X98203050Y-45310925D01*
X98203050Y-45860200D01*
X97996675Y-45860200D01*
X97996675Y-46022125D01*
X98593575Y-46022125D01*
X98593575Y-45860200D01*
X98398313Y-45860200D01*
X98398313Y-45039462D01*
X98264963Y-45039462D01*
X98196700Y-45101375D01*
X98112563Y-45158525D01*
X98023663Y-45207737D01*
X97941113Y-45244250D01*
X97568050Y-45244250D01*
X97568050Y-45201387D01*
X97780775Y-45201387D01*
X97780775Y-45039462D01*
X97156888Y-45039462D01*
X97156888Y-45201387D01*
X97371200Y-45201387D01*
X97371200Y-45860200D01*
X97156888Y-45860200D01*
X97156888Y-46022125D01*
X96801364Y-46022125D01*
X96847854Y-46009249D01*
X96917969Y-45967356D01*
X96985239Y-45876273D01*
X97007663Y-45753838D01*
X97000916Y-45679820D01*
X96980675Y-45619694D01*
X96911619Y-45530794D01*
X96819544Y-45473644D01*
X96723500Y-45434750D01*
X96662381Y-45410937D01*
X96606819Y-45381569D01*
X96566337Y-45343469D01*
X96550462Y-45293462D01*
X96567749Y-45230844D01*
X96619607Y-45193274D01*
X96706038Y-45180750D01*
X96817956Y-45196625D01*
X96906063Y-45234725D01*
X96963213Y-45083912D01*
X96849706Y-45037875D01*
X96776483Y-45022397D01*
X96691750Y-45017237D01*
X96594472Y-45025881D01*
X96512186Y-45051810D01*
X96444894Y-45095025D01*
X96377623Y-45187894D01*
X96355200Y-45310925D01*
X96380600Y-45427606D01*
X96444894Y-45506187D01*
X96531412Y-45558575D01*
X96623487Y-45595088D01*
X96690163Y-45622869D01*
X96750488Y-45656206D01*
X96794938Y-45698275D01*
X96812400Y-45752250D01*
X96805256Y-45799081D01*
X96779063Y-45840356D01*
X96727469Y-45868931D01*
X96645712Y-45879250D01*
X96566536Y-45873694D01*
X96500456Y-45857025D01*
X96398062Y-45809400D01*
X96340912Y-45968150D01*
X96089252Y-45968150D01*
X96142475Y-45913381D01*
X96182758Y-45840902D01*
X96211531Y-45752845D01*
X96228795Y-45649211D01*
X96234550Y-45530000D01*
X96228895Y-45410789D01*
X96211928Y-45307155D01*
X96183651Y-45219098D01*
X96144062Y-45146619D01*
X96074565Y-45074740D01*
X95986724Y-45031613D01*
X95880537Y-45017237D01*
X95777526Y-45031613D01*
X95690743Y-45074740D01*
X95620187Y-45146619D01*
X95579210Y-45219098D01*
X95549941Y-45307155D01*
X95532379Y-45410789D01*
X95526525Y-45530000D01*
X95427149Y-45530000D01*
X95419369Y-45411930D01*
X95409844Y-45290287D01*
X95399327Y-45166462D01*
X95388412Y-45039462D01*
X95226487Y-45039462D01*
X95197912Y-45123600D01*
X95162987Y-45232344D01*
X95123300Y-45352994D01*
X95083612Y-45474437D01*
X95047100Y-45360137D01*
X95009000Y-45237900D01*
X94973281Y-45125187D01*
X94945500Y-45039462D01*
X94783575Y-45039462D01*
X94773058Y-45147016D01*
X94763731Y-45263300D01*
X94755595Y-45385934D01*
X94748650Y-45512537D01*
X94742498Y-45641522D01*
X94736744Y-45771300D01*
X94731386Y-45899094D01*
X94726425Y-46022125D01*
X94213795Y-46022125D01*
X94213795Y-44504607D01*
G37*
G36*
X95961500Y-45214087D02*
G01*
X96008331Y-45287112D01*
X96030556Y-45395856D01*
X96034723Y-45460745D01*
X96036112Y-45530000D01*
X96034723Y-45599056D01*
X96030556Y-45663350D01*
X96008331Y-45772094D01*
X95960706Y-45845913D01*
X95880537Y-45872900D01*
X95799575Y-45845913D01*
X95752744Y-45772888D01*
X95730519Y-45664144D01*
X95726352Y-45599255D01*
X95724962Y-45530000D01*
X95726352Y-45460944D01*
X95730519Y-45396650D01*
X95752744Y-45287906D01*
X95799575Y-45214087D01*
X95880537Y-45187100D01*
X95961500Y-45214087D01*
G37*
G04 #@! TO.C,kibuzzard-61EAB7BB*
G36*
X99120393Y-56725393D02*
G01*
X95799607Y-56725393D01*
X95799607Y-55700000D01*
X96312237Y-55700000D01*
X96319381Y-55819261D01*
X96340812Y-55923044D01*
X96375341Y-56011150D01*
X96421775Y-56083381D01*
X96479520Y-56139738D01*
X96547981Y-56180219D01*
X96626364Y-56204627D01*
X96713875Y-56212763D01*
X96810911Y-56208794D01*
X96892469Y-56196888D01*
X96910595Y-56192125D01*
X97148850Y-56192125D01*
X97344112Y-56192125D01*
X97344112Y-55830175D01*
X97445712Y-55830175D01*
X97499489Y-55920067D01*
X97549694Y-56008769D01*
X97595136Y-56098661D01*
X97634625Y-56192125D01*
X97839413Y-56192125D01*
X97834578Y-56181013D01*
X97942600Y-56181013D01*
X98049756Y-56199269D01*
X98152150Y-56204825D01*
X98247995Y-56197880D01*
X98335506Y-56177044D01*
X98413095Y-56141127D01*
X98479175Y-56088938D01*
X98532952Y-56019683D01*
X98573631Y-55932569D01*
X98599230Y-55826405D01*
X98607763Y-55700000D01*
X98600023Y-55576373D01*
X98576806Y-55472194D01*
X98539698Y-55386072D01*
X98490288Y-55316619D01*
X98428573Y-55263636D01*
X98354556Y-55226925D01*
X98270220Y-55205494D01*
X98177550Y-55198350D01*
X98068013Y-55203112D01*
X97942600Y-55222162D01*
X97942600Y-56181013D01*
X97834578Y-56181013D01*
X97794169Y-56088144D01*
X97739400Y-55978606D01*
X97680663Y-55873831D01*
X97623513Y-55782550D01*
X97692966Y-55737703D01*
X97739400Y-55676187D01*
X97765594Y-55602369D01*
X97774325Y-55520612D01*
X97767777Y-55443420D01*
X97748131Y-55376944D01*
X97672725Y-55276137D01*
X97618750Y-55241609D01*
X97555250Y-55217400D01*
X97483019Y-55203112D01*
X97402850Y-55198350D01*
X97347287Y-55199938D01*
X97280612Y-55203906D01*
X97211556Y-55211844D01*
X97148850Y-55223750D01*
X97148850Y-56192125D01*
X96910595Y-56192125D01*
X97001212Y-56168313D01*
X97001212Y-55677775D01*
X96805950Y-55677775D01*
X96805950Y-56036550D01*
X96767850Y-56041313D01*
X96729750Y-56042900D01*
X96634897Y-56022064D01*
X96566237Y-55959556D01*
X96535369Y-55893675D01*
X96516849Y-55807156D01*
X96510675Y-55700000D01*
X96514048Y-55627173D01*
X96524169Y-55561094D01*
X96568619Y-55453144D01*
X96647200Y-55382500D01*
X96764675Y-55357100D01*
X96869450Y-55374562D01*
X96955175Y-55414250D01*
X97005975Y-55258675D01*
X96973431Y-55239625D01*
X96918662Y-55215812D01*
X96840081Y-55195969D01*
X96737687Y-55187237D01*
X96651566Y-55195373D01*
X96571000Y-55219781D01*
X96498372Y-55260461D01*
X96436062Y-55317412D01*
X96384866Y-55390239D01*
X96345575Y-55478544D01*
X96320572Y-55581930D01*
X96312237Y-55700000D01*
X95799607Y-55700000D01*
X95799607Y-54674607D01*
X99120393Y-54674607D01*
X99120393Y-56725393D01*
G37*
G36*
X97473097Y-55377341D02*
G01*
X97528263Y-55404725D01*
X97563981Y-55451556D01*
X97575888Y-55519025D01*
X97531438Y-55629356D01*
X97473097Y-55658527D01*
X97386975Y-55668250D01*
X97344112Y-55668250D01*
X97344112Y-55372975D01*
X97375862Y-55369006D01*
X97402850Y-55368212D01*
X97473097Y-55377341D01*
G37*
G36*
X98301375Y-55395994D02*
G01*
X98366463Y-55469812D01*
X98399800Y-55576175D01*
X98409325Y-55700000D01*
X98406348Y-55770048D01*
X98397419Y-55834144D01*
X98357731Y-55939713D01*
X98284706Y-56009563D01*
X98172788Y-56034963D01*
X98155325Y-56034963D01*
X98137863Y-56033375D01*
X98137863Y-55372975D01*
X98166438Y-55369006D01*
X98195013Y-55368212D01*
X98301375Y-55395994D01*
G37*
G04 #@! TO.C,J7*
X110910000Y-39985000D02*
X109860000Y-39985000D01*
X109860000Y-39985000D02*
X109860000Y-40975000D01*
X110910000Y-37485000D02*
X110910000Y-39985000D01*
X109740000Y-35515000D02*
X105860000Y-35515000D01*
X104690000Y-39985000D02*
X105740000Y-39985000D01*
X104690000Y-37485000D02*
X104690000Y-39985000D01*
G04 #@! TO.C,kibuzzard-61EAB44C*
G36*
X115960393Y-44115393D02*
G01*
X112639607Y-44115393D01*
X112639607Y-43090000D01*
X113152237Y-43090000D01*
X113159381Y-43209261D01*
X113180812Y-43313044D01*
X113215341Y-43401150D01*
X113261775Y-43473381D01*
X113319520Y-43529738D01*
X113387981Y-43570219D01*
X113466364Y-43594627D01*
X113553875Y-43602763D01*
X113650911Y-43598794D01*
X113732469Y-43586888D01*
X113750595Y-43582125D01*
X113988850Y-43582125D01*
X114184112Y-43582125D01*
X114184112Y-43220175D01*
X114285712Y-43220175D01*
X114339489Y-43310067D01*
X114389694Y-43398769D01*
X114435136Y-43488661D01*
X114474625Y-43582125D01*
X114679413Y-43582125D01*
X114674578Y-43571013D01*
X114782600Y-43571013D01*
X114889756Y-43589269D01*
X114992150Y-43594825D01*
X115087995Y-43587880D01*
X115175506Y-43567044D01*
X115253095Y-43531127D01*
X115319175Y-43478938D01*
X115372952Y-43409683D01*
X115413631Y-43322569D01*
X115439230Y-43216405D01*
X115447763Y-43090000D01*
X115440023Y-42966373D01*
X115416806Y-42862194D01*
X115379698Y-42776072D01*
X115330288Y-42706619D01*
X115268573Y-42653636D01*
X115194556Y-42616925D01*
X115110220Y-42595494D01*
X115017550Y-42588350D01*
X114908013Y-42593112D01*
X114782600Y-42612162D01*
X114782600Y-43571013D01*
X114674578Y-43571013D01*
X114634169Y-43478144D01*
X114579400Y-43368606D01*
X114520663Y-43263831D01*
X114463513Y-43172550D01*
X114532966Y-43127703D01*
X114579400Y-43066187D01*
X114605594Y-42992369D01*
X114614325Y-42910612D01*
X114607777Y-42833420D01*
X114588131Y-42766944D01*
X114512725Y-42666137D01*
X114458750Y-42631609D01*
X114395250Y-42607400D01*
X114323019Y-42593112D01*
X114242850Y-42588350D01*
X114187287Y-42589938D01*
X114120612Y-42593906D01*
X114051556Y-42601844D01*
X113988850Y-42613750D01*
X113988850Y-43582125D01*
X113750595Y-43582125D01*
X113841212Y-43558313D01*
X113841212Y-43067775D01*
X113645950Y-43067775D01*
X113645950Y-43426550D01*
X113607850Y-43431313D01*
X113569750Y-43432900D01*
X113474897Y-43412064D01*
X113406237Y-43349556D01*
X113375369Y-43283675D01*
X113356849Y-43197156D01*
X113350675Y-43090000D01*
X113354048Y-43017173D01*
X113364169Y-42951094D01*
X113408619Y-42843144D01*
X113487200Y-42772500D01*
X113604675Y-42747100D01*
X113709450Y-42764562D01*
X113795175Y-42804250D01*
X113845975Y-42648675D01*
X113813431Y-42629625D01*
X113758662Y-42605812D01*
X113680081Y-42585969D01*
X113577687Y-42577237D01*
X113491566Y-42585373D01*
X113411000Y-42609781D01*
X113338372Y-42650461D01*
X113276062Y-42707412D01*
X113224866Y-42780239D01*
X113185575Y-42868544D01*
X113160572Y-42971930D01*
X113152237Y-43090000D01*
X112639607Y-43090000D01*
X112639607Y-42064607D01*
X115960393Y-42064607D01*
X115960393Y-44115393D01*
G37*
G36*
X114313097Y-42767341D02*
G01*
X114368263Y-42794725D01*
X114403981Y-42841556D01*
X114415888Y-42909025D01*
X114371438Y-43019356D01*
X114313097Y-43048527D01*
X114226975Y-43058250D01*
X114184112Y-43058250D01*
X114184112Y-42762975D01*
X114215862Y-42759006D01*
X114242850Y-42758212D01*
X114313097Y-42767341D01*
G37*
G36*
X115141375Y-42785994D02*
G01*
X115206463Y-42859812D01*
X115239800Y-42966175D01*
X115249325Y-43090000D01*
X115246348Y-43160048D01*
X115237419Y-43224144D01*
X115197731Y-43329713D01*
X115124706Y-43399563D01*
X115012788Y-43424963D01*
X114995325Y-43424963D01*
X114977863Y-43423375D01*
X114977863Y-42762975D01*
X115006438Y-42759006D01*
X115035013Y-42758212D01*
X115141375Y-42785994D01*
G37*
G04 #@! TO.C,C1*
X95395000Y-97088748D02*
X95395000Y-97611252D01*
X96865000Y-97088748D02*
X96865000Y-97611252D01*
G04 #@! TO.C,kibuzzard-61EAB5E7*
G36*
X112671939Y-91474607D02*
G01*
X116788061Y-91474607D01*
X116788061Y-93525393D01*
X112671939Y-93525393D01*
X112671939Y-92958788D01*
X113184569Y-92958788D01*
X113233781Y-92976250D01*
X113302837Y-92993713D01*
X113380625Y-93007206D01*
X113457619Y-93012763D01*
X113549297Y-93007008D01*
X113627481Y-92989744D01*
X113692569Y-92961963D01*
X113744956Y-92924656D01*
X113784821Y-92866713D01*
X114168819Y-92866713D01*
X114180725Y-92927831D01*
X114212475Y-92972281D01*
X114257719Y-93000062D01*
X114311694Y-93009588D01*
X114410119Y-92973075D01*
X114415876Y-92958788D01*
X114772069Y-92958788D01*
X114821281Y-92976250D01*
X114890338Y-92993713D01*
X114968125Y-93007206D01*
X115045119Y-93012763D01*
X115136797Y-93007008D01*
X115214981Y-92989744D01*
X115280069Y-92961963D01*
X115332456Y-92924656D01*
X115400719Y-92825438D01*
X115422944Y-92700025D01*
X115412427Y-92620253D01*
X115380875Y-92552388D01*
X115330273Y-92498016D01*
X115262606Y-92458725D01*
X115351506Y-92376175D01*
X115384844Y-92263462D01*
X115365794Y-92153925D01*
X115307056Y-92065819D01*
X115209011Y-92009462D01*
X115521369Y-92009462D01*
X115539625Y-92098362D01*
X115565819Y-92209487D01*
X115586809Y-92292655D01*
X115609563Y-92379174D01*
X115634081Y-92469044D01*
X115660010Y-92560678D01*
X115686998Y-92652488D01*
X115715044Y-92744475D01*
X115756716Y-92875444D01*
X115796006Y-92992125D01*
X115997619Y-92992125D01*
X116027958Y-92907547D01*
X116057591Y-92821028D01*
X116086519Y-92732569D01*
X116114300Y-92643669D01*
X116140494Y-92555827D01*
X116165100Y-92469044D01*
X116198834Y-92342639D01*
X116228600Y-92222187D01*
X116254198Y-92110269D01*
X116275431Y-92009462D01*
X116070644Y-92009462D01*
X116056356Y-92092012D01*
X116038894Y-92187262D01*
X116019050Y-92290252D01*
X115997619Y-92396019D01*
X115974600Y-92502381D01*
X115949994Y-92607156D01*
X115924594Y-92705383D01*
X115899194Y-92792100D01*
X115873595Y-92704192D01*
X115847600Y-92605569D01*
X115822200Y-92500794D01*
X115798388Y-92394431D01*
X115776361Y-92288862D01*
X115756319Y-92186469D01*
X115739650Y-92091814D01*
X115727744Y-92009462D01*
X115521369Y-92009462D01*
X115209011Y-92009462D01*
X115206250Y-92007875D01*
X115139773Y-91992397D01*
X115062581Y-91987237D01*
X114978245Y-91994580D01*
X114903038Y-92016606D01*
X114789531Y-92074550D01*
X114859381Y-92217425D01*
X114953838Y-92172181D01*
X115064169Y-92153925D01*
X115153863Y-92184881D01*
X115186406Y-92269812D01*
X115171325Y-92330137D01*
X115132431Y-92368237D01*
X115078456Y-92388875D01*
X115018131Y-92395225D01*
X114945106Y-92395225D01*
X114945106Y-92557150D01*
X115005431Y-92557150D01*
X115092347Y-92564889D01*
X115162594Y-92588106D01*
X115209028Y-92630770D01*
X115224506Y-92696850D01*
X115184025Y-92803213D01*
X115128661Y-92835359D01*
X115043531Y-92846075D01*
X114968323Y-92841709D01*
X114904625Y-92828613D01*
X114810169Y-92795275D01*
X114772069Y-92958788D01*
X114415876Y-92958788D01*
X114452981Y-92866713D01*
X114410119Y-92763525D01*
X114311694Y-92727013D01*
X114257719Y-92736538D01*
X114212475Y-92763525D01*
X114180725Y-92807181D01*
X114168819Y-92866713D01*
X113784821Y-92866713D01*
X113813219Y-92825438D01*
X113835444Y-92700025D01*
X113824927Y-92620253D01*
X113793375Y-92552388D01*
X113742773Y-92498016D01*
X113675106Y-92458725D01*
X113764006Y-92376175D01*
X113797344Y-92263462D01*
X113778294Y-92153925D01*
X113719556Y-92065819D01*
X113618750Y-92007875D01*
X113552273Y-91992397D01*
X113475081Y-91987237D01*
X113390745Y-91994580D01*
X113315537Y-92016606D01*
X113202031Y-92074550D01*
X113271881Y-92217425D01*
X113366337Y-92172181D01*
X113476669Y-92153925D01*
X113566362Y-92184881D01*
X113598906Y-92269812D01*
X113583825Y-92330137D01*
X113544931Y-92368237D01*
X113490956Y-92388875D01*
X113430631Y-92395225D01*
X113357606Y-92395225D01*
X113357606Y-92557150D01*
X113417931Y-92557150D01*
X113504847Y-92564889D01*
X113575094Y-92588106D01*
X113621528Y-92630770D01*
X113637006Y-92696850D01*
X113596525Y-92803213D01*
X113541161Y-92835359D01*
X113456031Y-92846075D01*
X113380823Y-92841709D01*
X113317125Y-92828613D01*
X113222669Y-92795275D01*
X113184569Y-92958788D01*
X112671939Y-92958788D01*
X112671939Y-91474607D01*
G37*
G04 #@! TO.C,kibuzzard-61EAB559*
G36*
X115201375Y-60505994D02*
G01*
X115266463Y-60579812D01*
X115299800Y-60686175D01*
X115309325Y-60810000D01*
X115306348Y-60880048D01*
X115297419Y-60944144D01*
X115257731Y-61049713D01*
X115184706Y-61119563D01*
X115072788Y-61144963D01*
X115055325Y-61144963D01*
X115037863Y-61143375D01*
X115037863Y-60482975D01*
X115066438Y-60479006D01*
X115095013Y-60478212D01*
X115201375Y-60505994D01*
G37*
G36*
X116020393Y-61835393D02*
G01*
X112699607Y-61835393D01*
X112699607Y-60810000D01*
X113212237Y-60810000D01*
X113219381Y-60929261D01*
X113240812Y-61033044D01*
X113275341Y-61121150D01*
X113321775Y-61193381D01*
X113379520Y-61249738D01*
X113447981Y-61290219D01*
X113526364Y-61314627D01*
X113613875Y-61322763D01*
X113710911Y-61318794D01*
X113792469Y-61306888D01*
X113810595Y-61302125D01*
X114048850Y-61302125D01*
X114244112Y-61302125D01*
X114244112Y-60940175D01*
X114345712Y-60940175D01*
X114399489Y-61030067D01*
X114449694Y-61118769D01*
X114495136Y-61208661D01*
X114534625Y-61302125D01*
X114739413Y-61302125D01*
X114734578Y-61291013D01*
X114842600Y-61291013D01*
X114949756Y-61309269D01*
X115052150Y-61314825D01*
X115147995Y-61307880D01*
X115235506Y-61287044D01*
X115313095Y-61251127D01*
X115379175Y-61198938D01*
X115432952Y-61129683D01*
X115473631Y-61042569D01*
X115499230Y-60936405D01*
X115507763Y-60810000D01*
X115500023Y-60686373D01*
X115476806Y-60582194D01*
X115439698Y-60496072D01*
X115390288Y-60426619D01*
X115328573Y-60373636D01*
X115254556Y-60336925D01*
X115170220Y-60315494D01*
X115077550Y-60308350D01*
X114968013Y-60313112D01*
X114842600Y-60332162D01*
X114842600Y-61291013D01*
X114734578Y-61291013D01*
X114694169Y-61198144D01*
X114639400Y-61088606D01*
X114580663Y-60983831D01*
X114523513Y-60892550D01*
X114592966Y-60847703D01*
X114639400Y-60786187D01*
X114665594Y-60712369D01*
X114674325Y-60630612D01*
X114667777Y-60553420D01*
X114648131Y-60486944D01*
X114572725Y-60386137D01*
X114518750Y-60351609D01*
X114455250Y-60327400D01*
X114383019Y-60313112D01*
X114302850Y-60308350D01*
X114247287Y-60309938D01*
X114180612Y-60313906D01*
X114111556Y-60321844D01*
X114048850Y-60333750D01*
X114048850Y-61302125D01*
X113810595Y-61302125D01*
X113901212Y-61278313D01*
X113901212Y-60787775D01*
X113705950Y-60787775D01*
X113705950Y-61146550D01*
X113667850Y-61151313D01*
X113629750Y-61152900D01*
X113534897Y-61132064D01*
X113466237Y-61069556D01*
X113435369Y-61003675D01*
X113416849Y-60917156D01*
X113410675Y-60810000D01*
X113414048Y-60737173D01*
X113424169Y-60671094D01*
X113468619Y-60563144D01*
X113547200Y-60492500D01*
X113664675Y-60467100D01*
X113769450Y-60484562D01*
X113855175Y-60524250D01*
X113905975Y-60368675D01*
X113873431Y-60349625D01*
X113818662Y-60325812D01*
X113740081Y-60305969D01*
X113637687Y-60297237D01*
X113551566Y-60305373D01*
X113471000Y-60329781D01*
X113398372Y-60370461D01*
X113336062Y-60427412D01*
X113284866Y-60500239D01*
X113245575Y-60588544D01*
X113220572Y-60691930D01*
X113212237Y-60810000D01*
X112699607Y-60810000D01*
X112699607Y-59784607D01*
X116020393Y-59784607D01*
X116020393Y-61835393D01*
G37*
G36*
X114373097Y-60487341D02*
G01*
X114428263Y-60514725D01*
X114463981Y-60561556D01*
X114475888Y-60629025D01*
X114431438Y-60739356D01*
X114373097Y-60768527D01*
X114286975Y-60778250D01*
X114244112Y-60778250D01*
X114244112Y-60482975D01*
X114275862Y-60479006D01*
X114302850Y-60478212D01*
X114373097Y-60487341D01*
G37*
G04 #@! TO.C,kibuzzard-61EAB59E*
G36*
X116689961Y-76234607D02*
G01*
X116689961Y-78285393D01*
X112650039Y-78285393D01*
X112650039Y-76931387D01*
X113162669Y-76931387D01*
X113376981Y-76931387D01*
X113376981Y-77590200D01*
X113162669Y-77590200D01*
X113162669Y-77752125D01*
X113786556Y-77752125D01*
X113786556Y-77590200D01*
X113573831Y-77590200D01*
X113573831Y-77260000D01*
X113913556Y-77260000D01*
X113919261Y-77379211D01*
X113936377Y-77482845D01*
X113964902Y-77570902D01*
X114004837Y-77643381D01*
X114074776Y-77715260D01*
X114162882Y-77758387D01*
X114269156Y-77772763D01*
X114372873Y-77758387D01*
X114459656Y-77715260D01*
X114529506Y-77643381D01*
X114569789Y-77570902D01*
X114598562Y-77482845D01*
X114615827Y-77379211D01*
X114621581Y-77260000D01*
X114615926Y-77140789D01*
X114598959Y-77037155D01*
X114570682Y-76949098D01*
X114531527Y-76877412D01*
X114732706Y-76877412D01*
X114829544Y-77013937D01*
X114929556Y-76939325D01*
X115026394Y-76917100D01*
X115118469Y-76949644D01*
X115154981Y-77042512D01*
X115125613Y-77126650D01*
X115051000Y-77212375D01*
X115004169Y-77257817D01*
X114954163Y-77305244D01*
X114904156Y-77355647D01*
X114857325Y-77410019D01*
X114816050Y-77468955D01*
X114782713Y-77533050D01*
X114760686Y-77602900D01*
X114753344Y-77679100D01*
X114752550Y-77712438D01*
X114756519Y-77752125D01*
X115397869Y-77752125D01*
X115397869Y-77590200D01*
X114975594Y-77590200D01*
X114992263Y-77537813D01*
X115032744Y-77481456D01*
X115083544Y-77427481D01*
X115131169Y-77382238D01*
X115212131Y-77302863D01*
X115283569Y-77217137D01*
X115334369Y-77125856D01*
X115353419Y-77028225D01*
X115333427Y-76931387D01*
X115535981Y-76931387D01*
X115948731Y-76931387D01*
X115904678Y-77009770D01*
X115858244Y-77102044D01*
X115812405Y-77204239D01*
X115770138Y-77312388D01*
X115732633Y-77424108D01*
X115701081Y-77537019D01*
X115678459Y-77647548D01*
X115667744Y-77752125D01*
X115866181Y-77752125D01*
X115880667Y-77624927D01*
X115908250Y-77497331D01*
X115945159Y-77373308D01*
X115987625Y-77256825D01*
X116034258Y-77150066D01*
X116083669Y-77055212D01*
X116132484Y-76976234D01*
X116177331Y-76917100D01*
X116177331Y-76769462D01*
X115535981Y-76769462D01*
X115535981Y-76931387D01*
X115333427Y-76931387D01*
X115328019Y-76905194D01*
X115259756Y-76817087D01*
X115161331Y-76764700D01*
X115045444Y-76747237D01*
X114962695Y-76755175D01*
X114879550Y-76778987D01*
X114801167Y-76819469D01*
X114732706Y-76877412D01*
X114531527Y-76877412D01*
X114531094Y-76876619D01*
X114461597Y-76804740D01*
X114373755Y-76761613D01*
X114267569Y-76747237D01*
X114164558Y-76761613D01*
X114077774Y-76804740D01*
X114007219Y-76876619D01*
X113966241Y-76949098D01*
X113936972Y-77037155D01*
X113919410Y-77140789D01*
X113913556Y-77260000D01*
X113573831Y-77260000D01*
X113573831Y-76931387D01*
X113786556Y-76931387D01*
X113786556Y-76769462D01*
X113162669Y-76769462D01*
X113162669Y-76931387D01*
X112650039Y-76931387D01*
X112650039Y-76234607D01*
X116689961Y-76234607D01*
G37*
G36*
X114348531Y-76944087D02*
G01*
X114395362Y-77017112D01*
X114417588Y-77125856D01*
X114421755Y-77190745D01*
X114423144Y-77260000D01*
X114421755Y-77329056D01*
X114417588Y-77393350D01*
X114395362Y-77502094D01*
X114347737Y-77575913D01*
X114267569Y-77602900D01*
X114186606Y-77575913D01*
X114139775Y-77502888D01*
X114117550Y-77394144D01*
X114113383Y-77329255D01*
X114111994Y-77260000D01*
X114113383Y-77190944D01*
X114117550Y-77126650D01*
X114139775Y-77017906D01*
X114186606Y-76944087D01*
X114267569Y-76917100D01*
X114348531Y-76944087D01*
G37*
G04 #@! TO.C,kibuzzard-61EAD2A5*
G36*
X99147805Y-85883961D02*
G01*
X96592195Y-85883961D01*
X96592195Y-84550594D01*
X97104825Y-84550594D01*
X97363587Y-84550594D01*
X97363587Y-85371331D01*
X97560437Y-85371331D01*
X97876350Y-85371331D01*
X98087488Y-85371331D01*
X98124000Y-85285408D01*
X98166863Y-85189563D01*
X98212900Y-85090542D01*
X98258938Y-84995094D01*
X98305570Y-85093519D01*
X98350219Y-85191944D01*
X98390502Y-85286003D01*
X98424038Y-85371331D01*
X98635175Y-85371331D01*
X98592313Y-85267350D01*
X98563142Y-85203850D01*
X98529606Y-85135588D01*
X98492498Y-85063952D01*
X98452613Y-84990331D01*
X98410941Y-84917306D01*
X98368475Y-84847456D01*
X98619300Y-84388669D01*
X98422450Y-84388669D01*
X98258938Y-84702994D01*
X98103363Y-84388669D01*
X97892225Y-84388669D01*
X98149400Y-84852219D01*
X98110506Y-84921870D01*
X98070025Y-84994300D01*
X98029742Y-85067127D01*
X97991444Y-85137969D01*
X97955725Y-85205438D01*
X97923181Y-85268144D01*
X97876350Y-85371331D01*
X97560437Y-85371331D01*
X97560437Y-84550594D01*
X97819200Y-84550594D01*
X97819200Y-84388669D01*
X97104825Y-84388669D01*
X97104825Y-84550594D01*
X96592195Y-84550594D01*
X96592195Y-83876039D01*
X99147805Y-83876039D01*
X99147805Y-85883961D01*
G37*
G04 #@! TO.C,kibuzzard-61EAB8A6*
G36*
X96830594Y-79464881D02*
G01*
X96877425Y-79537906D01*
X96899650Y-79646650D01*
X96903817Y-79711539D01*
X96905206Y-79780794D01*
X96903817Y-79849850D01*
X96899650Y-79914144D01*
X96877425Y-80022888D01*
X96829800Y-80096706D01*
X96749631Y-80123694D01*
X96668669Y-80096706D01*
X96621837Y-80023681D01*
X96599612Y-79914938D01*
X96595445Y-79850048D01*
X96594056Y-79780794D01*
X96595445Y-79711737D01*
X96599612Y-79647444D01*
X96621837Y-79538700D01*
X96668669Y-79464881D01*
X96749631Y-79437894D01*
X96830594Y-79464881D01*
G37*
G36*
X98426825Y-79456150D02*
G01*
X98464131Y-79539494D01*
X98443494Y-79624425D01*
X98373644Y-79704594D01*
X98295459Y-79667287D01*
X98245056Y-79631569D01*
X98208544Y-79541081D01*
X98247438Y-79456944D01*
X98337131Y-79428369D01*
X98426825Y-79456150D01*
G37*
G36*
X98373644Y-79876838D02*
G01*
X98441113Y-79916525D01*
X98479213Y-79960181D01*
X98491119Y-80015744D01*
X98449050Y-80097500D01*
X98335544Y-80131631D01*
X98228388Y-80099088D01*
X98183144Y-80003044D01*
X98206956Y-79916525D01*
X98275219Y-79834769D01*
X98373644Y-79876838D01*
G37*
G36*
X95132101Y-78753814D02*
G01*
X99187899Y-78753814D01*
X99187899Y-80806186D01*
X95132101Y-80806186D01*
X95132101Y-79452181D01*
X95644731Y-79452181D01*
X95859044Y-79452181D01*
X95859044Y-80110994D01*
X95644731Y-80110994D01*
X95644731Y-80272919D01*
X96268619Y-80272919D01*
X96268619Y-80110994D01*
X96055894Y-80110994D01*
X96055894Y-79780794D01*
X96395619Y-79780794D01*
X96401324Y-79900005D01*
X96418439Y-80003639D01*
X96446964Y-80091696D01*
X96486900Y-80164175D01*
X96556838Y-80236053D01*
X96644944Y-80279181D01*
X96751219Y-80293556D01*
X96854935Y-80279181D01*
X96941719Y-80236053D01*
X97011569Y-80164175D01*
X97051852Y-80091696D01*
X97080625Y-80003639D01*
X97097889Y-79900005D01*
X97103644Y-79780794D01*
X97097988Y-79661582D01*
X97081022Y-79557948D01*
X97060822Y-79495044D01*
X97222706Y-79495044D01*
X97286206Y-79656969D01*
X97383044Y-79618075D01*
X97484644Y-79561719D01*
X97484644Y-80110994D01*
X97278269Y-80110994D01*
X97278269Y-80272919D01*
X97875169Y-80272919D01*
X97875169Y-80110994D01*
X97679906Y-80110994D01*
X97679906Y-80026856D01*
X98000581Y-80026856D01*
X98024394Y-80138775D01*
X98091863Y-80222913D01*
X98196638Y-80275300D01*
X98261130Y-80288992D01*
X98332369Y-80293556D01*
X98420078Y-80287206D01*
X98492706Y-80268156D01*
X98598275Y-80203863D01*
X98657013Y-80115756D01*
X98675269Y-80018919D01*
X98665942Y-79947481D01*
X98637963Y-79882394D01*
X98587361Y-79822863D01*
X98510169Y-79768094D01*
X98572081Y-79718286D01*
X98614944Y-79657762D01*
X98639947Y-79591286D01*
X98648281Y-79523619D01*
X98627445Y-79418050D01*
X98564938Y-79336294D01*
X98467108Y-79283906D01*
X98340306Y-79266444D01*
X98258550Y-79273191D01*
X98191081Y-79293431D01*
X98094244Y-79361694D01*
X98041063Y-79454562D01*
X98024394Y-79553781D01*
X98049794Y-79668081D01*
X98086306Y-79720469D01*
X98145044Y-79769681D01*
X98080353Y-79824252D01*
X98035506Y-79886363D01*
X98009313Y-79954427D01*
X98000581Y-80026856D01*
X97679906Y-80026856D01*
X97679906Y-79290256D01*
X97546556Y-79290256D01*
X97478294Y-79352169D01*
X97394156Y-79409319D01*
X97305256Y-79458531D01*
X97222706Y-79495044D01*
X97060822Y-79495044D01*
X97052745Y-79469892D01*
X97013156Y-79397412D01*
X96943659Y-79325534D01*
X96855817Y-79282407D01*
X96749631Y-79268031D01*
X96646620Y-79282407D01*
X96559837Y-79325534D01*
X96489281Y-79397412D01*
X96448304Y-79469892D01*
X96419034Y-79557948D01*
X96401473Y-79661582D01*
X96395619Y-79780794D01*
X96055894Y-79780794D01*
X96055894Y-79452181D01*
X96268619Y-79452181D01*
X96268619Y-79290256D01*
X95644731Y-79290256D01*
X95644731Y-79452181D01*
X95132101Y-79452181D01*
X95132101Y-78753814D01*
G37*
G04 #@! TO.C,kibuzzard-61EAB5BF*
G36*
X112680245Y-86334607D02*
G01*
X115959755Y-86334607D01*
X115959755Y-88385393D01*
X112680245Y-88385393D01*
X112680245Y-87798150D01*
X113192875Y-87798150D01*
X113302412Y-87846569D01*
X113387741Y-87866214D01*
X113497675Y-87872763D01*
X113609065Y-87864384D01*
X113699817Y-87839249D01*
X113769931Y-87797356D01*
X113837202Y-87706273D01*
X113859625Y-87583838D01*
X113852878Y-87509820D01*
X113832637Y-87449694D01*
X113763581Y-87360794D01*
X113762302Y-87360000D01*
X113965987Y-87360000D01*
X113972834Y-87475987D01*
X113993372Y-87577884D01*
X114027602Y-87665693D01*
X114075525Y-87739413D01*
X114159486Y-87813496D01*
X114265319Y-87857946D01*
X114393025Y-87872763D01*
X114479742Y-87867405D01*
X114551990Y-87852125D01*
X114829588Y-87852125D01*
X115447125Y-87852125D01*
X115447125Y-87690200D01*
X115026438Y-87690200D01*
X115026438Y-86869462D01*
X114829588Y-86869462D01*
X114829588Y-87852125D01*
X114551990Y-87852125D01*
X114555744Y-87851331D01*
X114667663Y-87804500D01*
X114618450Y-87650513D01*
X114538281Y-87685438D01*
X114412075Y-87702900D01*
X114298767Y-87680477D01*
X114222369Y-87613206D01*
X114190178Y-87544679D01*
X114170863Y-87458690D01*
X114164425Y-87355237D01*
X114169783Y-87266337D01*
X114185856Y-87193312D01*
X114241419Y-87089331D01*
X114319206Y-87033769D01*
X114408900Y-87017100D01*
X114527169Y-87033769D01*
X114615275Y-87074250D01*
X114666075Y-86918675D01*
X114633531Y-86899625D01*
X114580350Y-86875812D01*
X114506531Y-86855969D01*
X114412075Y-86847237D01*
X114319008Y-86855770D01*
X114233481Y-86881369D01*
X114157281Y-86923437D01*
X114092194Y-86981381D01*
X114039211Y-87054605D01*
X113999325Y-87142512D01*
X113974322Y-87244509D01*
X113965987Y-87360000D01*
X113762302Y-87360000D01*
X113671506Y-87303644D01*
X113575462Y-87264750D01*
X113514344Y-87240937D01*
X113458781Y-87211569D01*
X113418300Y-87173469D01*
X113402425Y-87123462D01*
X113419711Y-87060844D01*
X113471569Y-87023274D01*
X113558000Y-87010750D01*
X113669919Y-87026625D01*
X113758025Y-87064725D01*
X113815175Y-86913912D01*
X113701669Y-86867875D01*
X113628445Y-86852397D01*
X113543712Y-86847237D01*
X113446434Y-86855881D01*
X113364149Y-86881810D01*
X113296856Y-86925025D01*
X113229586Y-87017894D01*
X113207162Y-87140925D01*
X113232562Y-87257606D01*
X113296856Y-87336187D01*
X113383375Y-87388575D01*
X113475450Y-87425088D01*
X113542125Y-87452869D01*
X113602450Y-87486206D01*
X113646900Y-87528275D01*
X113664362Y-87582250D01*
X113657219Y-87629081D01*
X113631025Y-87670356D01*
X113579431Y-87698931D01*
X113497675Y-87709250D01*
X113418498Y-87703694D01*
X113352419Y-87687025D01*
X113250025Y-87639400D01*
X113192875Y-87798150D01*
X112680245Y-87798150D01*
X112680245Y-86334607D01*
G37*
G04 #@! TO.C,U1*
X99730000Y-98910000D02*
X100530000Y-98910000D01*
X99730000Y-95790000D02*
X97930000Y-95790000D01*
X99730000Y-95790000D02*
X100530000Y-95790000D01*
X99730000Y-98910000D02*
X98930000Y-98910000D01*
G04 #@! TO.C,kibuzzard-61EAB573*
G36*
X116790443Y-67005393D02*
G01*
X112669557Y-67005393D01*
X112669557Y-66472125D01*
X113182187Y-66472125D01*
X113361575Y-66472125D01*
X113353637Y-65708537D01*
X113469525Y-66124463D01*
X113612400Y-66124463D01*
X113733050Y-65708537D01*
X113723525Y-66472125D01*
X113902912Y-66472125D01*
X114025150Y-66472125D01*
X114649037Y-66472125D01*
X114649037Y-66418150D01*
X114796675Y-66418150D01*
X114906213Y-66466569D01*
X114991541Y-66486214D01*
X115101475Y-66492763D01*
X115212865Y-66484384D01*
X115303617Y-66459249D01*
X115373731Y-66417356D01*
X115441002Y-66326273D01*
X115463425Y-66203838D01*
X115456678Y-66129820D01*
X115436438Y-66069694D01*
X115367381Y-65980794D01*
X115366102Y-65980000D01*
X115569788Y-65980000D01*
X115575493Y-66099211D01*
X115592608Y-66202845D01*
X115621133Y-66290902D01*
X115661069Y-66363381D01*
X115731007Y-66435260D01*
X115819113Y-66478387D01*
X115925388Y-66492763D01*
X116029104Y-66478387D01*
X116115888Y-66435260D01*
X116185738Y-66363381D01*
X116226020Y-66290902D01*
X116254794Y-66202845D01*
X116272058Y-66099211D01*
X116277813Y-65980000D01*
X116272157Y-65860789D01*
X116255191Y-65757155D01*
X116226913Y-65669098D01*
X116187325Y-65596619D01*
X116117828Y-65524740D01*
X116029986Y-65481613D01*
X115923800Y-65467237D01*
X115820789Y-65481613D01*
X115734006Y-65524740D01*
X115663450Y-65596619D01*
X115622473Y-65669098D01*
X115593203Y-65757155D01*
X115575641Y-65860789D01*
X115569788Y-65980000D01*
X115366102Y-65980000D01*
X115275306Y-65923644D01*
X115179263Y-65884750D01*
X115118144Y-65860937D01*
X115062581Y-65831569D01*
X115022100Y-65793469D01*
X115006225Y-65743462D01*
X115023511Y-65680844D01*
X115075369Y-65643274D01*
X115161800Y-65630750D01*
X115273719Y-65646625D01*
X115361825Y-65684725D01*
X115418975Y-65533912D01*
X115305469Y-65487875D01*
X115232245Y-65472397D01*
X115147513Y-65467237D01*
X115050234Y-65475881D01*
X114967949Y-65501810D01*
X114900656Y-65545025D01*
X114833386Y-65637894D01*
X114810963Y-65760925D01*
X114836363Y-65877606D01*
X114900656Y-65956187D01*
X114987175Y-66008575D01*
X115079250Y-66045088D01*
X115145925Y-66072869D01*
X115206250Y-66106206D01*
X115250700Y-66148275D01*
X115268163Y-66202250D01*
X115261019Y-66249081D01*
X115234825Y-66290356D01*
X115183231Y-66318931D01*
X115101475Y-66329250D01*
X115022298Y-66323694D01*
X114956219Y-66307025D01*
X114853825Y-66259400D01*
X114796675Y-66418150D01*
X114649037Y-66418150D01*
X114649037Y-66310200D01*
X114436312Y-66310200D01*
X114436312Y-65651387D01*
X114649037Y-65651387D01*
X114649037Y-65489462D01*
X114025150Y-65489462D01*
X114025150Y-65651387D01*
X114239462Y-65651387D01*
X114239462Y-66310200D01*
X114025150Y-66310200D01*
X114025150Y-66472125D01*
X113902912Y-66472125D01*
X113899341Y-66346514D01*
X113894975Y-66223681D01*
X113889617Y-66102634D01*
X113883069Y-65982381D01*
X113875131Y-65861930D01*
X113865606Y-65740287D01*
X113855089Y-65616462D01*
X113844175Y-65489462D01*
X113682250Y-65489462D01*
X113653675Y-65573600D01*
X113618750Y-65682344D01*
X113579062Y-65802994D01*
X113539375Y-65924437D01*
X113502862Y-65810137D01*
X113464762Y-65687900D01*
X113429044Y-65575187D01*
X113401262Y-65489462D01*
X113239337Y-65489462D01*
X113228820Y-65597016D01*
X113219494Y-65713300D01*
X113211358Y-65835934D01*
X113204412Y-65962537D01*
X113198261Y-66091522D01*
X113192506Y-66221300D01*
X113187148Y-66349094D01*
X113182187Y-66472125D01*
X112669557Y-66472125D01*
X112669557Y-64954607D01*
X116790443Y-64954607D01*
X116790443Y-67005393D01*
G37*
G36*
X116004763Y-65664087D02*
G01*
X116051594Y-65737112D01*
X116073819Y-65845856D01*
X116077986Y-65910745D01*
X116079375Y-65980000D01*
X116077986Y-66049056D01*
X116073819Y-66113350D01*
X116051594Y-66222094D01*
X116003969Y-66295913D01*
X115923800Y-66322900D01*
X115842838Y-66295913D01*
X115796006Y-66222888D01*
X115773781Y-66114144D01*
X115769614Y-66049255D01*
X115768225Y-65980000D01*
X115769614Y-65910944D01*
X115773781Y-65846650D01*
X115796006Y-65737906D01*
X115842838Y-65664087D01*
X115923800Y-65637100D01*
X116004763Y-65664087D01*
G37*
G04 #@! TO.C,kibuzzard-61EAB894*
G36*
X96780119Y-74444087D02*
G01*
X96826950Y-74517112D01*
X96849175Y-74625856D01*
X96853342Y-74690745D01*
X96854731Y-74760000D01*
X96853342Y-74829056D01*
X96849175Y-74893350D01*
X96826950Y-75002094D01*
X96779325Y-75075913D01*
X96699156Y-75102900D01*
X96618194Y-75075913D01*
X96571362Y-75002888D01*
X96549137Y-74894144D01*
X96544970Y-74829255D01*
X96543581Y-74760000D01*
X96544970Y-74690944D01*
X96549137Y-74626650D01*
X96571362Y-74517906D01*
X96618194Y-74444087D01*
X96699156Y-74417100D01*
X96780119Y-74444087D01*
G37*
G36*
X99118374Y-73734607D02*
G01*
X99118374Y-75785393D01*
X95081626Y-75785393D01*
X95081626Y-74431387D01*
X95594256Y-74431387D01*
X95808569Y-74431387D01*
X95808569Y-75090200D01*
X95594256Y-75090200D01*
X95594256Y-75252125D01*
X96218144Y-75252125D01*
X96218144Y-75090200D01*
X96005419Y-75090200D01*
X96005419Y-74760000D01*
X96345144Y-74760000D01*
X96350849Y-74879211D01*
X96367964Y-74982845D01*
X96396489Y-75070902D01*
X96436425Y-75143381D01*
X96506363Y-75215260D01*
X96594469Y-75258387D01*
X96700744Y-75272763D01*
X96804460Y-75258387D01*
X96891244Y-75215260D01*
X96961094Y-75143381D01*
X97001377Y-75070902D01*
X97030150Y-74982845D01*
X97047414Y-74879211D01*
X97053169Y-74760000D01*
X97047513Y-74640789D01*
X97030547Y-74537155D01*
X97002270Y-74449098D01*
X96963114Y-74377412D01*
X97164294Y-74377412D01*
X97261131Y-74513937D01*
X97361144Y-74439325D01*
X97457981Y-74417100D01*
X97550056Y-74449644D01*
X97586569Y-74542512D01*
X97557200Y-74626650D01*
X97482588Y-74712375D01*
X97435756Y-74757817D01*
X97385750Y-74805244D01*
X97335744Y-74855647D01*
X97288913Y-74910019D01*
X97247638Y-74968955D01*
X97214300Y-75033050D01*
X97192273Y-75102900D01*
X97184931Y-75179100D01*
X97184138Y-75212438D01*
X97188106Y-75252125D01*
X97829456Y-75252125D01*
X97829456Y-75218788D01*
X97954869Y-75218788D01*
X98004081Y-75236250D01*
X98073138Y-75253713D01*
X98150925Y-75267206D01*
X98227919Y-75272763D01*
X98319597Y-75267008D01*
X98397781Y-75249744D01*
X98462869Y-75221963D01*
X98515256Y-75184656D01*
X98583519Y-75085438D01*
X98605744Y-74960025D01*
X98595227Y-74880253D01*
X98563675Y-74812388D01*
X98513073Y-74758016D01*
X98445406Y-74718725D01*
X98534306Y-74636175D01*
X98567644Y-74523462D01*
X98548594Y-74413925D01*
X98489856Y-74325819D01*
X98389050Y-74267875D01*
X98322573Y-74252397D01*
X98245381Y-74247237D01*
X98161045Y-74254580D01*
X98085838Y-74276606D01*
X97972331Y-74334550D01*
X98042181Y-74477425D01*
X98136638Y-74432181D01*
X98246969Y-74413925D01*
X98336663Y-74444881D01*
X98369206Y-74529812D01*
X98354125Y-74590137D01*
X98315231Y-74628237D01*
X98261256Y-74648875D01*
X98200931Y-74655225D01*
X98127906Y-74655225D01*
X98127906Y-74817150D01*
X98188231Y-74817150D01*
X98275147Y-74824889D01*
X98345394Y-74848106D01*
X98391828Y-74890770D01*
X98407306Y-74956850D01*
X98366825Y-75063213D01*
X98311461Y-75095359D01*
X98226331Y-75106075D01*
X98151123Y-75101709D01*
X98087425Y-75088613D01*
X97992969Y-75055275D01*
X97954869Y-75218788D01*
X97829456Y-75218788D01*
X97829456Y-75090200D01*
X97407181Y-75090200D01*
X97423850Y-75037813D01*
X97464331Y-74981456D01*
X97515131Y-74927481D01*
X97562756Y-74882238D01*
X97643719Y-74802863D01*
X97715156Y-74717137D01*
X97765956Y-74625856D01*
X97785006Y-74528225D01*
X97759606Y-74405194D01*
X97691344Y-74317087D01*
X97592919Y-74264700D01*
X97477031Y-74247237D01*
X97394283Y-74255175D01*
X97311138Y-74278987D01*
X97232755Y-74319469D01*
X97164294Y-74377412D01*
X96963114Y-74377412D01*
X96962681Y-74376619D01*
X96893184Y-74304740D01*
X96805342Y-74261613D01*
X96699156Y-74247237D01*
X96596145Y-74261613D01*
X96509362Y-74304740D01*
X96438806Y-74376619D01*
X96397829Y-74449098D01*
X96368559Y-74537155D01*
X96350998Y-74640789D01*
X96345144Y-74760000D01*
X96005419Y-74760000D01*
X96005419Y-74431387D01*
X96218144Y-74431387D01*
X96218144Y-74269462D01*
X95594256Y-74269462D01*
X95594256Y-74431387D01*
X95081626Y-74431387D01*
X95081626Y-73734607D01*
X99118374Y-73734607D01*
G37*
G04 #@! TO.C,kibuzzard-61EAB88A*
G36*
X98353169Y-72320013D02*
G01*
X98130919Y-72320013D01*
X98178544Y-72229525D01*
X98234900Y-72138244D01*
X98294431Y-72051725D01*
X98353169Y-71973937D01*
X98353169Y-72320013D01*
G37*
G36*
X96791069Y-71904087D02*
G01*
X96837900Y-71977112D01*
X96860125Y-72085856D01*
X96864292Y-72150745D01*
X96865681Y-72220000D01*
X96864292Y-72289056D01*
X96860125Y-72353350D01*
X96837900Y-72462094D01*
X96790275Y-72535913D01*
X96710106Y-72562900D01*
X96629144Y-72535913D01*
X96582312Y-72462888D01*
X96560087Y-72354144D01*
X96555920Y-72289255D01*
X96554531Y-72220000D01*
X96555920Y-72150944D01*
X96560087Y-72086650D01*
X96582312Y-71977906D01*
X96629144Y-71904087D01*
X96710106Y-71877100D01*
X96791069Y-71904087D01*
G37*
G36*
X99167424Y-73245393D02*
G01*
X95092576Y-73245393D01*
X95092576Y-71891387D01*
X95605206Y-71891387D01*
X95819519Y-71891387D01*
X95819519Y-72550200D01*
X95605206Y-72550200D01*
X95605206Y-72712125D01*
X96229094Y-72712125D01*
X96229094Y-72550200D01*
X96016369Y-72550200D01*
X96016369Y-72220000D01*
X96356094Y-72220000D01*
X96361799Y-72339211D01*
X96378914Y-72442845D01*
X96407439Y-72530902D01*
X96447375Y-72603381D01*
X96517313Y-72675260D01*
X96605419Y-72718387D01*
X96711694Y-72732763D01*
X96815410Y-72718387D01*
X96902194Y-72675260D01*
X96972044Y-72603381D01*
X97012327Y-72530902D01*
X97041100Y-72442845D01*
X97058364Y-72339211D01*
X97064119Y-72220000D01*
X97058463Y-72100789D01*
X97041497Y-71997155D01*
X97013220Y-71909098D01*
X96974064Y-71837412D01*
X97175244Y-71837412D01*
X97272081Y-71973937D01*
X97372094Y-71899325D01*
X97468931Y-71877100D01*
X97561006Y-71909644D01*
X97597519Y-72002512D01*
X97568150Y-72086650D01*
X97493538Y-72172375D01*
X97446706Y-72217817D01*
X97396700Y-72265244D01*
X97346694Y-72315647D01*
X97299863Y-72370019D01*
X97258588Y-72428955D01*
X97225250Y-72493050D01*
X97203223Y-72562900D01*
X97195881Y-72639100D01*
X97195088Y-72672438D01*
X97199056Y-72712125D01*
X97840406Y-72712125D01*
X97840406Y-72550200D01*
X97418131Y-72550200D01*
X97434800Y-72497813D01*
X97447344Y-72480350D01*
X97943594Y-72480350D01*
X98353169Y-72480350D01*
X98353169Y-72712125D01*
X98548431Y-72712125D01*
X98548431Y-72480350D01*
X98654794Y-72480350D01*
X98654794Y-72320013D01*
X98548431Y-72320013D01*
X98548431Y-71729462D01*
X98373806Y-71729462D01*
X98310306Y-71797130D01*
X98246806Y-71873131D01*
X98184894Y-71953895D01*
X98126156Y-72035850D01*
X98071388Y-72117408D01*
X98021381Y-72196981D01*
X97978122Y-72271395D01*
X97943594Y-72337475D01*
X97943594Y-72480350D01*
X97447344Y-72480350D01*
X97475281Y-72441456D01*
X97526081Y-72387481D01*
X97573706Y-72342238D01*
X97654669Y-72262863D01*
X97726106Y-72177137D01*
X97776906Y-72085856D01*
X97795956Y-71988225D01*
X97770556Y-71865194D01*
X97702294Y-71777087D01*
X97603869Y-71724700D01*
X97487981Y-71707237D01*
X97405233Y-71715175D01*
X97322088Y-71738987D01*
X97243705Y-71779469D01*
X97175244Y-71837412D01*
X96974064Y-71837412D01*
X96973631Y-71836619D01*
X96904134Y-71764740D01*
X96816292Y-71721613D01*
X96710106Y-71707237D01*
X96607095Y-71721613D01*
X96520312Y-71764740D01*
X96449756Y-71836619D01*
X96408779Y-71909098D01*
X96379509Y-71997155D01*
X96361948Y-72100789D01*
X96356094Y-72220000D01*
X96016369Y-72220000D01*
X96016369Y-71891387D01*
X96229094Y-71891387D01*
X96229094Y-71729462D01*
X95605206Y-71729462D01*
X95605206Y-71891387D01*
X95092576Y-71891387D01*
X95092576Y-71194607D01*
X99167424Y-71194607D01*
X99167424Y-73245393D01*
G37*
G04 #@! TO.C,J5*
X99140000Y-67460000D02*
X99140000Y-41480000D01*
X105460000Y-67460000D02*
X105460000Y-41480000D01*
X99600000Y-67460000D02*
X99600000Y-41480000D01*
X99140000Y-41480000D02*
X105460000Y-41480000D01*
X105700000Y-67700000D02*
X105700000Y-67200000D01*
X104900000Y-67460000D02*
X104900000Y-41480000D01*
X104960000Y-67700000D02*
X105700000Y-67700000D01*
X99140000Y-67460000D02*
X105460000Y-67460000D01*
G04 #@! TO.C,kibuzzard-61EAB5A7*
G36*
X114358531Y-79484087D02*
G01*
X114405362Y-79557112D01*
X114427588Y-79665856D01*
X114431755Y-79730745D01*
X114433144Y-79800000D01*
X114431755Y-79869056D01*
X114427588Y-79933350D01*
X114405362Y-80042094D01*
X114357737Y-80115913D01*
X114277569Y-80142900D01*
X114196606Y-80115913D01*
X114149775Y-80042888D01*
X114127550Y-79934144D01*
X114123383Y-79869255D01*
X114121994Y-79800000D01*
X114123383Y-79730944D01*
X114127550Y-79666650D01*
X114149775Y-79557906D01*
X114196606Y-79484087D01*
X114277569Y-79457100D01*
X114358531Y-79484087D01*
G37*
G36*
X112660039Y-78774607D02*
G01*
X116699961Y-78774607D01*
X116699961Y-80825393D01*
X112660039Y-80825393D01*
X112660039Y-79471387D01*
X113172669Y-79471387D01*
X113386981Y-79471387D01*
X113386981Y-80130200D01*
X113172669Y-80130200D01*
X113172669Y-80292125D01*
X113796556Y-80292125D01*
X113796556Y-80130200D01*
X113583831Y-80130200D01*
X113583831Y-79800000D01*
X113923556Y-79800000D01*
X113929261Y-79919211D01*
X113946377Y-80022845D01*
X113974902Y-80110902D01*
X114014837Y-80183381D01*
X114084776Y-80255260D01*
X114172882Y-80298387D01*
X114279156Y-80312763D01*
X114382873Y-80298387D01*
X114469656Y-80255260D01*
X114539506Y-80183381D01*
X114579789Y-80110902D01*
X114608562Y-80022845D01*
X114625827Y-79919211D01*
X114631581Y-79800000D01*
X114625926Y-79680789D01*
X114608959Y-79577155D01*
X114588759Y-79514250D01*
X114750644Y-79514250D01*
X114814144Y-79676175D01*
X114910981Y-79637281D01*
X115012581Y-79580925D01*
X115012581Y-80130200D01*
X114806206Y-80130200D01*
X114806206Y-80292125D01*
X115403106Y-80292125D01*
X115403106Y-80130200D01*
X115207844Y-80130200D01*
X115207844Y-79471387D01*
X115545981Y-79471387D01*
X115958731Y-79471387D01*
X115914678Y-79549770D01*
X115868244Y-79642044D01*
X115822405Y-79744239D01*
X115780138Y-79852388D01*
X115742633Y-79964108D01*
X115711081Y-80077019D01*
X115688459Y-80187548D01*
X115677744Y-80292125D01*
X115876181Y-80292125D01*
X115890667Y-80164927D01*
X115918250Y-80037331D01*
X115955159Y-79913308D01*
X115997625Y-79796825D01*
X116044258Y-79690066D01*
X116093669Y-79595212D01*
X116142484Y-79516234D01*
X116187331Y-79457100D01*
X116187331Y-79309462D01*
X115545981Y-79309462D01*
X115545981Y-79471387D01*
X115207844Y-79471387D01*
X115207844Y-79309462D01*
X115074494Y-79309462D01*
X115006231Y-79371375D01*
X114922094Y-79428525D01*
X114833194Y-79477737D01*
X114750644Y-79514250D01*
X114588759Y-79514250D01*
X114580682Y-79489098D01*
X114541094Y-79416619D01*
X114471597Y-79344740D01*
X114383755Y-79301613D01*
X114277569Y-79287237D01*
X114174558Y-79301613D01*
X114087774Y-79344740D01*
X114017219Y-79416619D01*
X113976241Y-79489098D01*
X113946972Y-79577155D01*
X113929410Y-79680789D01*
X113923556Y-79800000D01*
X113583831Y-79800000D01*
X113583831Y-79471387D01*
X113796556Y-79471387D01*
X113796556Y-79309462D01*
X113172669Y-79309462D01*
X113172669Y-79471387D01*
X112660039Y-79471387D01*
X112660039Y-78774607D01*
G37*
G04 #@! TO.C,kibuzzard-61EAB46F*
G36*
X114366944Y-45204087D02*
G01*
X114413775Y-45277112D01*
X114436000Y-45385856D01*
X114440167Y-45450745D01*
X114441556Y-45520000D01*
X114440167Y-45589056D01*
X114436000Y-45653350D01*
X114413775Y-45762094D01*
X114366150Y-45835913D01*
X114285981Y-45862900D01*
X114205019Y-45835913D01*
X114158187Y-45762888D01*
X114135962Y-45654144D01*
X114131795Y-45589255D01*
X114130406Y-45520000D01*
X114131795Y-45450944D01*
X114135962Y-45386650D01*
X114158187Y-45277906D01*
X114205019Y-45204087D01*
X114285981Y-45177100D01*
X114366944Y-45204087D01*
G37*
G36*
X115929441Y-45555520D02*
G01*
X115975081Y-45585881D01*
X116008419Y-45700975D01*
X116001275Y-45756538D01*
X115979050Y-45808925D01*
X115940156Y-45848613D01*
X115883006Y-45864488D01*
X115813950Y-45844644D01*
X115770294Y-45791463D01*
X115748069Y-45716056D01*
X115741719Y-45627950D01*
X115742513Y-45597788D01*
X115744894Y-45569213D01*
X115797281Y-45551750D01*
X115859194Y-45545400D01*
X115929441Y-45555520D01*
G37*
G36*
X116711549Y-46545393D02*
G01*
X112668451Y-46545393D01*
X112668451Y-45191387D01*
X113181081Y-45191387D01*
X113395394Y-45191387D01*
X113395394Y-45850200D01*
X113181081Y-45850200D01*
X113181081Y-46012125D01*
X113804969Y-46012125D01*
X113804969Y-45850200D01*
X113592244Y-45850200D01*
X113592244Y-45520000D01*
X113931969Y-45520000D01*
X113937674Y-45639211D01*
X113954789Y-45742845D01*
X113983314Y-45830902D01*
X114023250Y-45903381D01*
X114093188Y-45975260D01*
X114181294Y-46018387D01*
X114287569Y-46032763D01*
X114391285Y-46018387D01*
X114478069Y-45975260D01*
X114547919Y-45903381D01*
X114588202Y-45830902D01*
X114616975Y-45742845D01*
X114634239Y-45639211D01*
X114639994Y-45520000D01*
X114634338Y-45400789D01*
X114617372Y-45297155D01*
X114589095Y-45209098D01*
X114549939Y-45137412D01*
X114751119Y-45137412D01*
X114847956Y-45273937D01*
X114947969Y-45199325D01*
X115044806Y-45177100D01*
X115136881Y-45209644D01*
X115173394Y-45302512D01*
X115144025Y-45386650D01*
X115069413Y-45472375D01*
X115022581Y-45517817D01*
X114972575Y-45565244D01*
X114922569Y-45615647D01*
X114875738Y-45670019D01*
X114834463Y-45728955D01*
X114801125Y-45793050D01*
X114779098Y-45862900D01*
X114771756Y-45939100D01*
X114770963Y-45972438D01*
X114774931Y-46012125D01*
X115416281Y-46012125D01*
X115416281Y-45850200D01*
X114994006Y-45850200D01*
X115010675Y-45797813D01*
X115051156Y-45741456D01*
X115101956Y-45687481D01*
X115149581Y-45642238D01*
X115181966Y-45610488D01*
X115549631Y-45610488D01*
X115559244Y-45742691D01*
X115588084Y-45849318D01*
X115636150Y-45930369D01*
X115702560Y-45987254D01*
X115786433Y-46021385D01*
X115887769Y-46032763D01*
X115963175Y-46025023D01*
X116027469Y-46001806D01*
X116124306Y-45921638D01*
X116180663Y-45813688D01*
X116198919Y-45697800D01*
X116182250Y-45577150D01*
X116127481Y-45477137D01*
X116029850Y-45408875D01*
X115963770Y-45389825D01*
X115884594Y-45383475D01*
X115833794Y-45390619D01*
X115775056Y-45410462D01*
X115829825Y-45307275D01*
X115917931Y-45239806D01*
X116029056Y-45202500D01*
X116152881Y-45189800D01*
X116141769Y-45023112D01*
X116014372Y-45032637D01*
X115898881Y-45061212D01*
X115797281Y-45108441D01*
X115711556Y-45173925D01*
X115642698Y-45257269D01*
X115591700Y-45358075D01*
X115560148Y-45475947D01*
X115549631Y-45610488D01*
X115181966Y-45610488D01*
X115230544Y-45562863D01*
X115301981Y-45477137D01*
X115352781Y-45385856D01*
X115371831Y-45288225D01*
X115346431Y-45165194D01*
X115278169Y-45077087D01*
X115179744Y-45024700D01*
X115063856Y-45007237D01*
X114981108Y-45015175D01*
X114897963Y-45038987D01*
X114819580Y-45079469D01*
X114751119Y-45137412D01*
X114549939Y-45137412D01*
X114549506Y-45136619D01*
X114480009Y-45064740D01*
X114392167Y-45021613D01*
X114285981Y-45007237D01*
X114182970Y-45021613D01*
X114096187Y-45064740D01*
X114025631Y-45136619D01*
X113984654Y-45209098D01*
X113955384Y-45297155D01*
X113937823Y-45400789D01*
X113931969Y-45520000D01*
X113592244Y-45520000D01*
X113592244Y-45191387D01*
X113804969Y-45191387D01*
X113804969Y-45029462D01*
X113181081Y-45029462D01*
X113181081Y-45191387D01*
X112668451Y-45191387D01*
X112668451Y-44494607D01*
X116711549Y-44494607D01*
X116711549Y-46545393D01*
G37*
G04 #@! TO.C,kibuzzard-61EAB880*
G36*
X98281375Y-69355994D02*
G01*
X98346463Y-69429812D01*
X98379800Y-69536175D01*
X98389325Y-69660000D01*
X98386348Y-69730048D01*
X98377419Y-69794144D01*
X98337731Y-69899713D01*
X98264706Y-69969563D01*
X98152788Y-69994963D01*
X98135325Y-69994963D01*
X98117863Y-69993375D01*
X98117863Y-69332975D01*
X98146438Y-69329006D01*
X98175013Y-69328212D01*
X98281375Y-69355994D01*
G37*
G36*
X99100393Y-70685393D02*
G01*
X95779607Y-70685393D01*
X95779607Y-69660000D01*
X96292237Y-69660000D01*
X96299381Y-69779261D01*
X96320812Y-69883044D01*
X96355341Y-69971150D01*
X96401775Y-70043381D01*
X96459520Y-70099738D01*
X96527981Y-70140219D01*
X96606364Y-70164627D01*
X96693875Y-70172763D01*
X96790911Y-70168794D01*
X96872469Y-70156888D01*
X96890595Y-70152125D01*
X97128850Y-70152125D01*
X97324112Y-70152125D01*
X97324112Y-69790175D01*
X97425712Y-69790175D01*
X97479489Y-69880067D01*
X97529694Y-69968769D01*
X97575136Y-70058661D01*
X97614625Y-70152125D01*
X97819413Y-70152125D01*
X97814578Y-70141013D01*
X97922600Y-70141013D01*
X98029756Y-70159269D01*
X98132150Y-70164825D01*
X98227995Y-70157880D01*
X98315506Y-70137044D01*
X98393095Y-70101127D01*
X98459175Y-70048938D01*
X98512952Y-69979683D01*
X98553631Y-69892569D01*
X98579230Y-69786405D01*
X98587763Y-69660000D01*
X98580023Y-69536373D01*
X98556806Y-69432194D01*
X98519698Y-69346072D01*
X98470288Y-69276619D01*
X98408573Y-69223636D01*
X98334556Y-69186925D01*
X98250220Y-69165494D01*
X98157550Y-69158350D01*
X98048013Y-69163112D01*
X97922600Y-69182162D01*
X97922600Y-70141013D01*
X97814578Y-70141013D01*
X97774169Y-70048144D01*
X97719400Y-69938606D01*
X97660663Y-69833831D01*
X97603513Y-69742550D01*
X97672966Y-69697703D01*
X97719400Y-69636187D01*
X97745594Y-69562369D01*
X97754325Y-69480612D01*
X97747777Y-69403420D01*
X97728131Y-69336944D01*
X97652725Y-69236137D01*
X97598750Y-69201609D01*
X97535250Y-69177400D01*
X97463019Y-69163112D01*
X97382850Y-69158350D01*
X97327287Y-69159938D01*
X97260612Y-69163906D01*
X97191556Y-69171844D01*
X97128850Y-69183750D01*
X97128850Y-70152125D01*
X96890595Y-70152125D01*
X96981212Y-70128313D01*
X96981212Y-69637775D01*
X96785950Y-69637775D01*
X96785950Y-69996550D01*
X96747850Y-70001313D01*
X96709750Y-70002900D01*
X96614897Y-69982064D01*
X96546237Y-69919556D01*
X96515369Y-69853675D01*
X96496849Y-69767156D01*
X96490675Y-69660000D01*
X96494048Y-69587173D01*
X96504169Y-69521094D01*
X96548619Y-69413144D01*
X96627200Y-69342500D01*
X96744675Y-69317100D01*
X96849450Y-69334562D01*
X96935175Y-69374250D01*
X96985975Y-69218675D01*
X96953431Y-69199625D01*
X96898662Y-69175812D01*
X96820081Y-69155969D01*
X96717687Y-69147237D01*
X96631566Y-69155373D01*
X96551000Y-69179781D01*
X96478372Y-69220461D01*
X96416062Y-69277412D01*
X96364866Y-69350239D01*
X96325575Y-69438544D01*
X96300572Y-69541930D01*
X96292237Y-69660000D01*
X95779607Y-69660000D01*
X95779607Y-68634607D01*
X99100393Y-68634607D01*
X99100393Y-70685393D01*
G37*
G36*
X97453097Y-69337341D02*
G01*
X97508263Y-69364725D01*
X97543981Y-69411556D01*
X97555888Y-69479025D01*
X97511438Y-69589356D01*
X97453097Y-69618527D01*
X97366975Y-69628250D01*
X97324112Y-69628250D01*
X97324112Y-69332975D01*
X97355862Y-69329006D01*
X97382850Y-69328212D01*
X97453097Y-69337341D01*
G37*
G04 #@! TO.C,kibuzzard-61EAB7D1*
G36*
X99149280Y-61865393D02*
G01*
X95850720Y-61865393D01*
X95850720Y-60840000D01*
X96363350Y-60840000D01*
X96370196Y-60955987D01*
X96390734Y-61057884D01*
X96424965Y-61145693D01*
X96472887Y-61219413D01*
X96556849Y-61293496D01*
X96662682Y-61337946D01*
X96790387Y-61352763D01*
X96877105Y-61347405D01*
X96949352Y-61332125D01*
X97214250Y-61332125D01*
X97844488Y-61332125D01*
X97844488Y-61170200D01*
X97409512Y-61170200D01*
X97409512Y-60893975D01*
X97757175Y-60893975D01*
X97757175Y-60732050D01*
X97409512Y-60732050D01*
X97409512Y-60554250D01*
X97984188Y-60554250D01*
X98047688Y-60716175D01*
X98144525Y-60677281D01*
X98246125Y-60620925D01*
X98246125Y-61170200D01*
X98039750Y-61170200D01*
X98039750Y-61332125D01*
X98636650Y-61332125D01*
X98636650Y-61170200D01*
X98441388Y-61170200D01*
X98441388Y-60349462D01*
X98308038Y-60349462D01*
X98239775Y-60411375D01*
X98155638Y-60468525D01*
X98066738Y-60517737D01*
X97984188Y-60554250D01*
X97409512Y-60554250D01*
X97409512Y-60511387D01*
X97809563Y-60511387D01*
X97809563Y-60349462D01*
X97214250Y-60349462D01*
X97214250Y-61332125D01*
X96949352Y-61332125D01*
X96953106Y-61331331D01*
X97065025Y-61284500D01*
X97015812Y-61130513D01*
X96935644Y-61165438D01*
X96809437Y-61182900D01*
X96696130Y-61160477D01*
X96619731Y-61093206D01*
X96587540Y-61024679D01*
X96568226Y-60938690D01*
X96561787Y-60835237D01*
X96567145Y-60746337D01*
X96583219Y-60673312D01*
X96638781Y-60569331D01*
X96716569Y-60513769D01*
X96806262Y-60497100D01*
X96924531Y-60513769D01*
X97012637Y-60554250D01*
X97063437Y-60398675D01*
X97030894Y-60379625D01*
X96977712Y-60355812D01*
X96903894Y-60335969D01*
X96809437Y-60327237D01*
X96716370Y-60335770D01*
X96630844Y-60361369D01*
X96554644Y-60403437D01*
X96489556Y-60461381D01*
X96436573Y-60534605D01*
X96396687Y-60622512D01*
X96371684Y-60724509D01*
X96363350Y-60840000D01*
X95850720Y-60840000D01*
X95850720Y-59814607D01*
X99149280Y-59814607D01*
X99149280Y-61865393D01*
G37*
G04 #@! TO.C,kibuzzard-61EAB798*
G36*
X96746944Y-47714087D02*
G01*
X96793775Y-47787112D01*
X96816000Y-47895856D01*
X96820167Y-47960745D01*
X96821556Y-48030000D01*
X96820167Y-48099056D01*
X96816000Y-48163350D01*
X96793775Y-48272094D01*
X96746150Y-48345913D01*
X96665981Y-48372900D01*
X96585019Y-48345913D01*
X96538187Y-48272888D01*
X96515962Y-48164144D01*
X96511795Y-48099255D01*
X96510406Y-48030000D01*
X96511795Y-47960944D01*
X96515962Y-47896650D01*
X96538187Y-47787906D01*
X96585019Y-47714087D01*
X96665981Y-47687100D01*
X96746944Y-47714087D01*
G37*
G36*
X98309441Y-48065520D02*
G01*
X98355081Y-48095881D01*
X98388419Y-48210975D01*
X98381275Y-48266538D01*
X98359050Y-48318925D01*
X98320156Y-48358613D01*
X98263006Y-48374488D01*
X98193950Y-48354644D01*
X98150294Y-48301463D01*
X98128069Y-48226056D01*
X98121719Y-48137950D01*
X98122513Y-48107788D01*
X98124894Y-48079213D01*
X98177281Y-48061750D01*
X98239194Y-48055400D01*
X98309441Y-48065520D01*
G37*
G36*
X95048451Y-47004607D02*
G01*
X99091549Y-47004607D01*
X99091549Y-49055393D01*
X95048451Y-49055393D01*
X95048451Y-47701387D01*
X95561081Y-47701387D01*
X95775394Y-47701387D01*
X95775394Y-48360200D01*
X95561081Y-48360200D01*
X95561081Y-48522125D01*
X96184969Y-48522125D01*
X96184969Y-48360200D01*
X95972244Y-48360200D01*
X95972244Y-48030000D01*
X96311969Y-48030000D01*
X96317674Y-48149211D01*
X96334789Y-48252845D01*
X96363314Y-48340902D01*
X96403250Y-48413381D01*
X96473188Y-48485260D01*
X96561294Y-48528387D01*
X96667569Y-48542763D01*
X96771285Y-48528387D01*
X96858069Y-48485260D01*
X96927919Y-48413381D01*
X96968202Y-48340902D01*
X96996975Y-48252845D01*
X97014239Y-48149211D01*
X97019994Y-48030000D01*
X97014338Y-47910789D01*
X96997372Y-47807155D01*
X96977172Y-47744250D01*
X97139056Y-47744250D01*
X97202556Y-47906175D01*
X97299394Y-47867281D01*
X97400994Y-47810925D01*
X97400994Y-48360200D01*
X97194619Y-48360200D01*
X97194619Y-48522125D01*
X97791519Y-48522125D01*
X97791519Y-48360200D01*
X97596256Y-48360200D01*
X97596256Y-48120488D01*
X97929631Y-48120488D01*
X97939244Y-48252691D01*
X97968084Y-48359318D01*
X98016150Y-48440369D01*
X98082560Y-48497254D01*
X98166433Y-48531385D01*
X98267769Y-48542763D01*
X98343175Y-48535023D01*
X98407469Y-48511806D01*
X98504306Y-48431638D01*
X98560663Y-48323688D01*
X98578919Y-48207800D01*
X98562250Y-48087150D01*
X98507481Y-47987137D01*
X98409850Y-47918875D01*
X98343770Y-47899825D01*
X98264594Y-47893475D01*
X98213794Y-47900619D01*
X98155056Y-47920462D01*
X98209825Y-47817275D01*
X98297931Y-47749806D01*
X98409056Y-47712500D01*
X98532881Y-47699800D01*
X98521769Y-47533112D01*
X98394372Y-47542637D01*
X98278881Y-47571212D01*
X98177281Y-47618441D01*
X98091556Y-47683925D01*
X98022698Y-47767269D01*
X97971700Y-47868075D01*
X97940148Y-47985947D01*
X97929631Y-48120488D01*
X97596256Y-48120488D01*
X97596256Y-47539462D01*
X97462906Y-47539462D01*
X97394644Y-47601375D01*
X97310506Y-47658525D01*
X97221606Y-47707737D01*
X97139056Y-47744250D01*
X96977172Y-47744250D01*
X96969095Y-47719098D01*
X96929506Y-47646619D01*
X96860009Y-47574740D01*
X96772167Y-47531613D01*
X96665981Y-47517237D01*
X96562970Y-47531613D01*
X96476187Y-47574740D01*
X96405631Y-47646619D01*
X96364654Y-47719098D01*
X96335384Y-47807155D01*
X96317823Y-47910789D01*
X96311969Y-48030000D01*
X95972244Y-48030000D01*
X95972244Y-47701387D01*
X96184969Y-47701387D01*
X96184969Y-47539462D01*
X95561081Y-47539462D01*
X95561081Y-47701387D01*
X95048451Y-47701387D01*
X95048451Y-47004607D01*
G37*
G04 #@! TO.C,kibuzzard-61EAB7DA*
G36*
X98334713Y-63054087D02*
G01*
X98381544Y-63127112D01*
X98403769Y-63235856D01*
X98407936Y-63300745D01*
X98409325Y-63370000D01*
X98407936Y-63439056D01*
X98403769Y-63503350D01*
X98381544Y-63612094D01*
X98333919Y-63685913D01*
X98253750Y-63712900D01*
X98172788Y-63685913D01*
X98125956Y-63612888D01*
X98103731Y-63504144D01*
X98099564Y-63439255D01*
X98098175Y-63370000D01*
X98099564Y-63300944D01*
X98103731Y-63236650D01*
X98125956Y-63127906D01*
X98172788Y-63054087D01*
X98253750Y-63027100D01*
X98334713Y-63054087D01*
G37*
G36*
X95799607Y-62344607D02*
G01*
X99120393Y-62344607D01*
X99120393Y-64395393D01*
X95799607Y-64395393D01*
X95799607Y-63370000D01*
X96312237Y-63370000D01*
X96319084Y-63485987D01*
X96339622Y-63587884D01*
X96373852Y-63675693D01*
X96421775Y-63749413D01*
X96505736Y-63823496D01*
X96611569Y-63867946D01*
X96739275Y-63882763D01*
X96825992Y-63877405D01*
X96898240Y-63862125D01*
X97163137Y-63862125D01*
X97793375Y-63862125D01*
X97793375Y-63700200D01*
X97358400Y-63700200D01*
X97358400Y-63423975D01*
X97706063Y-63423975D01*
X97706063Y-63370000D01*
X97899738Y-63370000D01*
X97905443Y-63489211D01*
X97922558Y-63592845D01*
X97951083Y-63680902D01*
X97991019Y-63753381D01*
X98060957Y-63825260D01*
X98149063Y-63868387D01*
X98255338Y-63882763D01*
X98359054Y-63868387D01*
X98445838Y-63825260D01*
X98515688Y-63753381D01*
X98555970Y-63680902D01*
X98584744Y-63592845D01*
X98602008Y-63489211D01*
X98607763Y-63370000D01*
X98602107Y-63250789D01*
X98585141Y-63147155D01*
X98556863Y-63059098D01*
X98517275Y-62986619D01*
X98447778Y-62914740D01*
X98359936Y-62871613D01*
X98253750Y-62857237D01*
X98150739Y-62871613D01*
X98063956Y-62914740D01*
X97993400Y-62986619D01*
X97952423Y-63059098D01*
X97923153Y-63147155D01*
X97905591Y-63250789D01*
X97899738Y-63370000D01*
X97706063Y-63370000D01*
X97706063Y-63262050D01*
X97358400Y-63262050D01*
X97358400Y-63041387D01*
X97758450Y-63041387D01*
X97758450Y-62879462D01*
X97163137Y-62879462D01*
X97163137Y-63862125D01*
X96898240Y-63862125D01*
X96901994Y-63861331D01*
X97013912Y-63814500D01*
X96964700Y-63660513D01*
X96884531Y-63695438D01*
X96758325Y-63712900D01*
X96645017Y-63690477D01*
X96568619Y-63623206D01*
X96536428Y-63554679D01*
X96517113Y-63468690D01*
X96510675Y-63365237D01*
X96516033Y-63276337D01*
X96532106Y-63203312D01*
X96587669Y-63099331D01*
X96665456Y-63043769D01*
X96755150Y-63027100D01*
X96873419Y-63043769D01*
X96961525Y-63084250D01*
X97012325Y-62928675D01*
X96979781Y-62909625D01*
X96926600Y-62885812D01*
X96852781Y-62865969D01*
X96758325Y-62857237D01*
X96665258Y-62865770D01*
X96579731Y-62891369D01*
X96503531Y-62933437D01*
X96438444Y-62991381D01*
X96385461Y-63064605D01*
X96345575Y-63152512D01*
X96320572Y-63254509D01*
X96312237Y-63370000D01*
X95799607Y-63370000D01*
X95799607Y-62344607D01*
G37*
G04 #@! TO.C,kibuzzard-61EAB8B0*
G36*
X97452091Y-82032103D02*
G01*
X97507256Y-82059487D01*
X97542975Y-82106319D01*
X97554881Y-82173787D01*
X97510431Y-82284119D01*
X97452091Y-82313289D01*
X97365969Y-82323012D01*
X97323106Y-82323012D01*
X97323106Y-82027737D01*
X97354856Y-82023769D01*
X97381844Y-82022975D01*
X97452091Y-82032103D01*
G37*
G36*
X99124786Y-83359518D02*
G01*
X96615214Y-83359518D01*
X96615214Y-82846888D01*
X97127844Y-82846888D01*
X97323106Y-82846888D01*
X97323106Y-82484938D01*
X97424706Y-82484938D01*
X97478483Y-82574830D01*
X97528687Y-82663531D01*
X97574130Y-82753423D01*
X97613619Y-82846888D01*
X97818406Y-82846888D01*
X97853331Y-82846888D01*
X98064469Y-82846888D01*
X98100981Y-82760964D01*
X98143844Y-82665119D01*
X98189881Y-82566098D01*
X98235919Y-82470650D01*
X98282552Y-82569075D01*
X98327200Y-82667500D01*
X98367483Y-82761559D01*
X98401019Y-82846888D01*
X98612156Y-82846888D01*
X98569294Y-82742906D01*
X98540123Y-82679406D01*
X98506588Y-82611144D01*
X98469480Y-82539508D01*
X98429594Y-82465888D01*
X98387922Y-82392863D01*
X98345456Y-82323012D01*
X98596281Y-81864225D01*
X98399431Y-81864225D01*
X98235919Y-82178550D01*
X98080344Y-81864225D01*
X97869206Y-81864225D01*
X98126381Y-82327775D01*
X98087488Y-82397427D01*
X98047006Y-82469856D01*
X98006723Y-82542683D01*
X97968425Y-82613525D01*
X97932706Y-82680994D01*
X97900163Y-82743700D01*
X97853331Y-82846888D01*
X97818406Y-82846888D01*
X97773162Y-82742906D01*
X97718394Y-82633369D01*
X97659656Y-82528594D01*
X97602506Y-82437313D01*
X97671959Y-82392466D01*
X97718394Y-82330950D01*
X97744587Y-82257131D01*
X97753319Y-82175375D01*
X97746770Y-82098183D01*
X97727125Y-82031706D01*
X97651719Y-81930900D01*
X97597744Y-81896372D01*
X97534244Y-81872162D01*
X97462012Y-81857875D01*
X97381844Y-81853112D01*
X97326281Y-81854700D01*
X97259606Y-81858669D01*
X97190550Y-81866606D01*
X97127844Y-81878512D01*
X97127844Y-82846888D01*
X96615214Y-82846888D01*
X96615214Y-81340482D01*
X99124786Y-81340482D01*
X99124786Y-83359518D01*
G37*
G04 #@! TO.C,kibuzzard-61EAB517*
G36*
X117556205Y-49025393D02*
G01*
X112663795Y-49025393D01*
X112663795Y-48492125D01*
X113176425Y-48492125D01*
X113355812Y-48492125D01*
X113347875Y-47728537D01*
X113463762Y-48144463D01*
X113606637Y-48144463D01*
X113727287Y-47728537D01*
X113717762Y-48492125D01*
X113897150Y-48492125D01*
X114019387Y-48492125D01*
X114643275Y-48492125D01*
X114643275Y-48438150D01*
X114790912Y-48438150D01*
X114900450Y-48486569D01*
X114985778Y-48506214D01*
X115095712Y-48512763D01*
X115207102Y-48504384D01*
X115297854Y-48479249D01*
X115367969Y-48437356D01*
X115435239Y-48346273D01*
X115457663Y-48223838D01*
X115450916Y-48149820D01*
X115430675Y-48089694D01*
X115361619Y-48000794D01*
X115360340Y-48000000D01*
X115564025Y-48000000D01*
X115569730Y-48119211D01*
X115586845Y-48222845D01*
X115615371Y-48310902D01*
X115655306Y-48383381D01*
X115725244Y-48455260D01*
X115813351Y-48498387D01*
X115919625Y-48512763D01*
X116023342Y-48498387D01*
X116110125Y-48455260D01*
X116179975Y-48383381D01*
X116220258Y-48310902D01*
X116249031Y-48222845D01*
X116266295Y-48119211D01*
X116272050Y-48000000D01*
X116266395Y-47880789D01*
X116249428Y-47777155D01*
X116229228Y-47714250D01*
X116391113Y-47714250D01*
X116454613Y-47876175D01*
X116551450Y-47837281D01*
X116653050Y-47780925D01*
X116653050Y-48330200D01*
X116446675Y-48330200D01*
X116446675Y-48492125D01*
X117043575Y-48492125D01*
X117043575Y-48330200D01*
X116848313Y-48330200D01*
X116848313Y-47509462D01*
X116714963Y-47509462D01*
X116646700Y-47571375D01*
X116562563Y-47628525D01*
X116473663Y-47677737D01*
X116391113Y-47714250D01*
X116229228Y-47714250D01*
X116221151Y-47689098D01*
X116181563Y-47616619D01*
X116112065Y-47544740D01*
X116024224Y-47501613D01*
X115918038Y-47487237D01*
X115815026Y-47501613D01*
X115728243Y-47544740D01*
X115657688Y-47616619D01*
X115616710Y-47689098D01*
X115587441Y-47777155D01*
X115569879Y-47880789D01*
X115564025Y-48000000D01*
X115360340Y-48000000D01*
X115269544Y-47943644D01*
X115173500Y-47904750D01*
X115112381Y-47880937D01*
X115056819Y-47851569D01*
X115016337Y-47813469D01*
X115000462Y-47763462D01*
X115017749Y-47700844D01*
X115069607Y-47663274D01*
X115156038Y-47650750D01*
X115267956Y-47666625D01*
X115356063Y-47704725D01*
X115413213Y-47553912D01*
X115299706Y-47507875D01*
X115226483Y-47492397D01*
X115141750Y-47487237D01*
X115044472Y-47495881D01*
X114962186Y-47521810D01*
X114894894Y-47565025D01*
X114827623Y-47657894D01*
X114805200Y-47780925D01*
X114830600Y-47897606D01*
X114894894Y-47976187D01*
X114981412Y-48028575D01*
X115073487Y-48065088D01*
X115140163Y-48092869D01*
X115200488Y-48126206D01*
X115244938Y-48168275D01*
X115262400Y-48222250D01*
X115255256Y-48269081D01*
X115229063Y-48310356D01*
X115177469Y-48338931D01*
X115095712Y-48349250D01*
X115016536Y-48343694D01*
X114950456Y-48327025D01*
X114848062Y-48279400D01*
X114790912Y-48438150D01*
X114643275Y-48438150D01*
X114643275Y-48330200D01*
X114430550Y-48330200D01*
X114430550Y-47671387D01*
X114643275Y-47671387D01*
X114643275Y-47509462D01*
X114019387Y-47509462D01*
X114019387Y-47671387D01*
X114233700Y-47671387D01*
X114233700Y-48330200D01*
X114019387Y-48330200D01*
X114019387Y-48492125D01*
X113897150Y-48492125D01*
X113893578Y-48366514D01*
X113889212Y-48243681D01*
X113883855Y-48122634D01*
X113877306Y-48002381D01*
X113869369Y-47881930D01*
X113859844Y-47760287D01*
X113849327Y-47636462D01*
X113838412Y-47509462D01*
X113676487Y-47509462D01*
X113647912Y-47593600D01*
X113612987Y-47702344D01*
X113573300Y-47822994D01*
X113533612Y-47944437D01*
X113497100Y-47830137D01*
X113459000Y-47707900D01*
X113423281Y-47595187D01*
X113395500Y-47509462D01*
X113233575Y-47509462D01*
X113223058Y-47617016D01*
X113213731Y-47733300D01*
X113205595Y-47855934D01*
X113198650Y-47982537D01*
X113192498Y-48111522D01*
X113186744Y-48241300D01*
X113181386Y-48369094D01*
X113176425Y-48492125D01*
X112663795Y-48492125D01*
X112663795Y-46974607D01*
X117556205Y-46974607D01*
X117556205Y-49025393D01*
G37*
G36*
X115999000Y-47684087D02*
G01*
X116045831Y-47757112D01*
X116068056Y-47865856D01*
X116072223Y-47930745D01*
X116073613Y-48000000D01*
X116072223Y-48069056D01*
X116068056Y-48133350D01*
X116045831Y-48242094D01*
X115998206Y-48315913D01*
X115918038Y-48342900D01*
X115837075Y-48315913D01*
X115790244Y-48242888D01*
X115768019Y-48134144D01*
X115763852Y-48069255D01*
X115762463Y-48000000D01*
X115763852Y-47930944D01*
X115768019Y-47866650D01*
X115790244Y-47757906D01*
X115837075Y-47684087D01*
X115918038Y-47657100D01*
X115999000Y-47684087D01*
G37*
G04 #@! TO.C,kibuzzard-61EAB545*
G36*
X114312444Y-57845344D02*
G01*
X114377531Y-57919162D01*
X114410869Y-58025525D01*
X114420394Y-58149350D01*
X114417417Y-58219398D01*
X114408487Y-58283494D01*
X114368800Y-58389063D01*
X114295775Y-58458913D01*
X114183856Y-58484313D01*
X114166394Y-58484313D01*
X114148931Y-58482725D01*
X114148931Y-57822325D01*
X114177506Y-57818356D01*
X114206081Y-57817562D01*
X114312444Y-57845344D01*
G37*
G36*
X112647289Y-57123957D02*
G01*
X117512711Y-57123957D01*
X117512711Y-59416043D01*
X112647289Y-59416043D01*
X112647289Y-58903413D01*
X114674394Y-58903413D01*
X115442744Y-58903413D01*
X115442744Y-58733550D01*
X114674394Y-58733550D01*
X114674394Y-58903413D01*
X112647289Y-58903413D01*
X112647289Y-57820737D01*
X113159919Y-57820737D01*
X113374231Y-57820737D01*
X113374231Y-58479550D01*
X113159919Y-58479550D01*
X113159919Y-58641475D01*
X113783806Y-58641475D01*
X113783806Y-58630363D01*
X113953669Y-58630363D01*
X114060825Y-58648619D01*
X114163219Y-58654175D01*
X114259064Y-58647230D01*
X114346575Y-58626394D01*
X114424164Y-58590477D01*
X114427933Y-58587500D01*
X115518944Y-58587500D01*
X115628481Y-58635919D01*
X115713809Y-58655564D01*
X115823744Y-58662113D01*
X115935133Y-58653734D01*
X116019516Y-58630363D01*
X116334919Y-58630363D01*
X116442075Y-58648619D01*
X116544469Y-58654175D01*
X116640314Y-58647230D01*
X116727825Y-58626394D01*
X116805414Y-58590477D01*
X116871494Y-58538288D01*
X116925270Y-58469033D01*
X116965950Y-58381919D01*
X116991548Y-58275755D01*
X117000081Y-58149350D01*
X116992342Y-58025723D01*
X116969125Y-57921544D01*
X116932017Y-57835422D01*
X116882606Y-57765969D01*
X116820892Y-57712986D01*
X116746875Y-57676275D01*
X116662539Y-57654844D01*
X116569869Y-57647700D01*
X116460331Y-57652462D01*
X116334919Y-57671512D01*
X116334919Y-58630363D01*
X116019516Y-58630363D01*
X116025885Y-58628599D01*
X116096000Y-58586706D01*
X116163270Y-58495623D01*
X116185694Y-58373188D01*
X116178947Y-58299170D01*
X116158706Y-58239044D01*
X116089650Y-58150144D01*
X115997575Y-58092994D01*
X115901531Y-58054100D01*
X115840413Y-58030287D01*
X115784850Y-58000919D01*
X115744369Y-57962819D01*
X115728494Y-57912812D01*
X115745780Y-57850194D01*
X115797638Y-57812624D01*
X115884069Y-57800100D01*
X115995988Y-57815975D01*
X116084094Y-57854075D01*
X116141244Y-57703262D01*
X116027738Y-57657225D01*
X115954514Y-57641747D01*
X115869781Y-57636587D01*
X115772503Y-57645231D01*
X115690217Y-57671160D01*
X115622925Y-57714375D01*
X115555655Y-57807244D01*
X115533231Y-57930275D01*
X115558631Y-58046956D01*
X115622925Y-58125537D01*
X115709444Y-58177925D01*
X115801519Y-58214437D01*
X115868194Y-58242219D01*
X115928519Y-58275556D01*
X115972969Y-58317625D01*
X115990431Y-58371600D01*
X115983288Y-58418431D01*
X115957094Y-58459706D01*
X115905500Y-58488281D01*
X115823744Y-58498600D01*
X115744567Y-58493044D01*
X115678488Y-58476375D01*
X115576094Y-58428750D01*
X115518944Y-58587500D01*
X114427933Y-58587500D01*
X114490244Y-58538288D01*
X114544020Y-58469033D01*
X114584700Y-58381919D01*
X114610298Y-58275755D01*
X114618831Y-58149350D01*
X114611092Y-58025723D01*
X114587875Y-57921544D01*
X114550767Y-57835422D01*
X114501356Y-57765969D01*
X114439642Y-57712986D01*
X114365625Y-57676275D01*
X114281289Y-57654844D01*
X114188619Y-57647700D01*
X114079081Y-57652462D01*
X113953669Y-57671512D01*
X113953669Y-58630363D01*
X113783806Y-58630363D01*
X113783806Y-58479550D01*
X113571081Y-58479550D01*
X113571081Y-57820737D01*
X113783806Y-57820737D01*
X113783806Y-57658812D01*
X113159919Y-57658812D01*
X113159919Y-57820737D01*
X112647289Y-57820737D01*
X112647289Y-57123957D01*
G37*
G36*
X116693694Y-57845344D02*
G01*
X116758781Y-57919162D01*
X116792119Y-58025525D01*
X116801644Y-58149350D01*
X116798667Y-58219398D01*
X116789738Y-58283494D01*
X116750050Y-58389063D01*
X116677025Y-58458913D01*
X116565106Y-58484313D01*
X116547644Y-58484313D01*
X116530181Y-58482725D01*
X116530181Y-57822325D01*
X116558756Y-57818356D01*
X116587331Y-57817562D01*
X116693694Y-57845344D01*
G37*
G04 #@! TD*
M02*
