G04 #@! TF.GenerationSoftware,KiCad,Pcbnew,(6.0.0)*
G04 #@! TF.CreationDate,2022-02-24T22:11:55+04:00*
G04 #@! TF.ProjectId,RPi3-screw-terminal-shiel,52506933-2d73-4637-9265-772d7465726d,rev?*
G04 #@! TF.SameCoordinates,Original*
G04 #@! TF.FileFunction,Copper,L1,Top*
G04 #@! TF.FilePolarity,Positive*
%FSLAX46Y46*%
G04 Gerber Fmt 4.6, Leading zero omitted, Abs format (unit mm)*
G04 Created by KiCad (PCBNEW (6.0.0)) date 2022-02-24 22:11:55*
%MOMM*%
%LPD*%
G01*
G04 APERTURE LIST*
G04 Aperture macros list*
%AMRoundRect*
0 Rectangle with rounded corners*
0 $1 Rounding radius*
0 $2 $3 $4 $5 $6 $7 $8 $9 X,Y pos of 4 corners*
0 Add a 4 corners polygon primitive as box body*
4,1,4,$2,$3,$4,$5,$6,$7,$8,$9,$2,$3,0*
0 Add four circle primitives for the rounded corners*
1,1,$1+$1,$2,$3*
1,1,$1+$1,$4,$5*
1,1,$1+$1,$6,$7*
1,1,$1+$1,$8,$9*
0 Add four rect primitives between the rounded corners*
20,1,$1+$1,$2,$3,$4,$5,0*
20,1,$1+$1,$4,$5,$6,$7,0*
20,1,$1+$1,$6,$7,$8,$9,0*
20,1,$1+$1,$8,$9,$2,$3,0*%
G04 Aperture macros list end*
G04 #@! TA.AperFunction,ComponentPad*
%ADD10R,1.500000X1.500000*%
G04 #@! TD*
G04 #@! TA.AperFunction,ComponentPad*
%ADD11C,1.500000*%
G04 #@! TD*
G04 #@! TA.AperFunction,SMDPad,CuDef*
%ADD12RoundRect,0.150000X-0.150000X-0.625000X0.150000X-0.625000X0.150000X0.625000X-0.150000X0.625000X0*%
G04 #@! TD*
G04 #@! TA.AperFunction,SMDPad,CuDef*
%ADD13RoundRect,0.250000X-0.350000X-0.650000X0.350000X-0.650000X0.350000X0.650000X-0.350000X0.650000X0*%
G04 #@! TD*
G04 #@! TA.AperFunction,SMDPad,CuDef*
%ADD14RoundRect,0.250000X-0.475000X0.250000X-0.475000X-0.250000X0.475000X-0.250000X0.475000X0.250000X0*%
G04 #@! TD*
G04 #@! TA.AperFunction,SMDPad,CuDef*
%ADD15RoundRect,0.150000X0.150000X0.625000X-0.150000X0.625000X-0.150000X-0.625000X0.150000X-0.625000X0*%
G04 #@! TD*
G04 #@! TA.AperFunction,SMDPad,CuDef*
%ADD16RoundRect,0.250000X0.350000X0.650000X-0.350000X0.650000X-0.350000X-0.650000X0.350000X-0.650000X0*%
G04 #@! TD*
G04 #@! TA.AperFunction,SMDPad,CuDef*
%ADD17RoundRect,0.150000X-0.512500X-0.150000X0.512500X-0.150000X0.512500X0.150000X-0.512500X0.150000X0*%
G04 #@! TD*
G04 #@! TA.AperFunction,ComponentPad*
%ADD18O,1.500000X1.500000*%
G04 #@! TD*
G04 #@! TA.AperFunction,ViaPad*
%ADD19C,0.800000*%
G04 #@! TD*
G04 #@! TA.AperFunction,Conductor*
%ADD20C,0.500000*%
G04 #@! TD*
G04 #@! TA.AperFunction,Conductor*
%ADD21C,0.250000*%
G04 #@! TD*
G04 APERTURE END LIST*
D10*
G04 #@! TO.P,J3,1,Pin_1*
G04 #@! TO.N,/21*
X109500000Y-65900000D03*
D11*
G04 #@! TO.P,J3,2,Pin_2*
G04 #@! TO.N,/23*
X109500000Y-63360000D03*
G04 #@! TO.P,J3,3,Pin_3*
G04 #@! TO.N,GND*
X109500000Y-60820000D03*
G04 #@! TO.P,J3,4,Pin_4*
G04 #@! TO.N,/27*
X109500000Y-58280000D03*
G04 #@! TO.P,J3,5,Pin_5*
G04 #@! TO.N,/29*
X109500000Y-55740000D03*
G04 #@! TO.P,J3,6,Pin_6*
G04 #@! TO.N,/31*
X109500000Y-53200000D03*
G04 #@! TO.P,J3,7,Pin_7*
G04 #@! TO.N,/33*
X109500000Y-50660000D03*
G04 #@! TO.P,J3,8,Pin_8*
G04 #@! TO.N,/35*
X109500000Y-48120000D03*
G04 #@! TO.P,J3,9,Pin_9*
G04 #@! TO.N,/37*
X109500000Y-45580000D03*
G04 #@! TO.P,J3,10,Pin_10*
G04 #@! TO.N,GND*
X109500000Y-43040000D03*
G04 #@! TD*
D10*
G04 #@! TO.P,J4,1,Pin_1*
G04 #@! TO.N,/2*
X102300000Y-92460000D03*
D11*
G04 #@! TO.P,J4,2,Pin_2*
G04 #@! TO.N,/4*
X102300000Y-89920000D03*
G04 #@! TO.P,J4,3,Pin_3*
G04 #@! TO.N,GND*
X102300000Y-87380000D03*
G04 #@! TO.P,J4,4,Pin_4*
G04 #@! TO.N,/8*
X102300000Y-84840000D03*
G04 #@! TO.P,J4,5,Pin_5*
G04 #@! TO.N,/10*
X102300000Y-82300000D03*
G04 #@! TO.P,J4,6,Pin_6*
G04 #@! TO.N,/12*
X102300000Y-79760000D03*
G04 #@! TO.P,J4,7,Pin_7*
G04 #@! TO.N,GND*
X102300000Y-77220000D03*
G04 #@! TO.P,J4,8,Pin_8*
G04 #@! TO.N,/16*
X102300000Y-74680000D03*
G04 #@! TO.P,J4,9,Pin_9*
G04 #@! TO.N,/18*
X102300000Y-72140000D03*
G04 #@! TO.P,J4,10,Pin_10*
G04 #@! TO.N,GND*
X102300000Y-69600000D03*
G04 #@! TD*
D10*
G04 #@! TO.P,J2,1,Pin_1*
G04 #@! TO.N,/1*
X109500000Y-92460000D03*
D11*
G04 #@! TO.P,J2,2,Pin_2*
G04 #@! TO.N,/3*
X109500000Y-89920000D03*
G04 #@! TO.P,J2,3,Pin_3*
G04 #@! TO.N,/5*
X109500000Y-87380000D03*
G04 #@! TO.P,J2,4,Pin_4*
G04 #@! TO.N,/7*
X109500000Y-84840000D03*
G04 #@! TO.P,J2,5,Pin_5*
G04 #@! TO.N,GND*
X109500000Y-82300000D03*
G04 #@! TO.P,J2,6,Pin_6*
G04 #@! TO.N,/11*
X109500000Y-79760000D03*
G04 #@! TO.P,J2,7,Pin_7*
G04 #@! TO.N,/13*
X109500000Y-77220000D03*
G04 #@! TO.P,J2,8,Pin_8*
G04 #@! TO.N,/15*
X109500000Y-74680000D03*
G04 #@! TO.P,J2,9,Pin_9*
G04 #@! TO.N,/17*
X109500000Y-72140000D03*
G04 #@! TO.P,J2,10,Pin_10*
G04 #@! TO.N,/19*
X109500000Y-69600000D03*
G04 #@! TD*
D12*
G04 #@! TO.P,J8,1,Pin_1*
G04 #@! TO.N,GND*
X106450000Y-95350000D03*
G04 #@! TO.P,J8,2,Pin_2*
G04 #@! TO.N,+3V3*
X107450000Y-95350000D03*
G04 #@! TO.P,J8,3,Pin_3*
G04 #@! TO.N,/3*
X108450000Y-95350000D03*
G04 #@! TO.P,J8,4,Pin_4*
G04 #@! TO.N,/5*
X109450000Y-95350000D03*
D13*
G04 #@! TO.P,J8,MP*
G04 #@! TO.N,N/C*
X110750000Y-99225000D03*
X105150000Y-99225000D03*
G04 #@! TD*
D14*
G04 #@! TO.P,C2,1*
G04 #@! TO.N,+3V3*
X102870000Y-96400000D03*
G04 #@! TO.P,C2,2*
G04 #@! TO.N,GND*
X102870000Y-98300000D03*
G04 #@! TD*
D15*
G04 #@! TO.P,J6,1,Pin_1*
G04 #@! TO.N,GND*
X100200000Y-40200000D03*
G04 #@! TO.P,J6,2,Pin_2*
G04 #@! TO.N,+3V3*
X99200000Y-40200000D03*
G04 #@! TO.P,J6,3,Pin_3*
G04 #@! TO.N,/3*
X98200000Y-40200000D03*
G04 #@! TO.P,J6,4,Pin_4*
G04 #@! TO.N,/5*
X97200000Y-40200000D03*
D16*
G04 #@! TO.P,J6,MP*
G04 #@! TO.N,N/C*
X95900000Y-36325000D03*
X101500000Y-36325000D03*
G04 #@! TD*
D15*
G04 #@! TO.P,J7,1,Pin_1*
G04 #@! TO.N,GND*
X109300000Y-40200000D03*
G04 #@! TO.P,J7,2,Pin_2*
G04 #@! TO.N,+3V3*
X108300000Y-40200000D03*
G04 #@! TO.P,J7,3,Pin_3*
G04 #@! TO.N,/3*
X107300000Y-40200000D03*
G04 #@! TO.P,J7,4,Pin_4*
G04 #@! TO.N,/5*
X106300000Y-40200000D03*
D16*
G04 #@! TO.P,J7,MP*
G04 #@! TO.N,N/C*
X105000000Y-36325000D03*
X110600000Y-36325000D03*
G04 #@! TD*
D14*
G04 #@! TO.P,C1,1*
G04 #@! TO.N,/2*
X96130000Y-96400000D03*
G04 #@! TO.P,C1,2*
G04 #@! TO.N,GND*
X96130000Y-98300000D03*
G04 #@! TD*
D17*
G04 #@! TO.P,U1,1,VIN*
G04 #@! TO.N,/2*
X98592500Y-96400000D03*
G04 #@! TO.P,U1,2,GND*
G04 #@! TO.N,GND*
X98592500Y-97350000D03*
G04 #@! TO.P,U1,3,EN*
G04 #@! TO.N,/2*
X98592500Y-98300000D03*
G04 #@! TO.P,U1,4,NC*
G04 #@! TO.N,unconnected-(U1-Pad4)*
X100867500Y-98300000D03*
G04 #@! TO.P,U1,5,VOUT*
G04 #@! TO.N,+3V3*
X100867500Y-96400000D03*
G04 #@! TD*
D10*
G04 #@! TO.P,J5,1,Pin_1*
G04 #@! TO.N,/22*
X102300000Y-65900000D03*
D11*
G04 #@! TO.P,J5,2,Pin_2*
G04 #@! TO.N,/24*
X102300000Y-63360000D03*
G04 #@! TO.P,J5,3,Pin_3*
G04 #@! TO.N,/26*
X102300000Y-60820000D03*
G04 #@! TO.P,J5,4,Pin_4*
G04 #@! TO.N,/28*
X102300000Y-58280000D03*
G04 #@! TO.P,J5,5,Pin_5*
G04 #@! TO.N,GND*
X102300000Y-55740000D03*
G04 #@! TO.P,J5,6,Pin_6*
G04 #@! TO.N,/32*
X102300000Y-53200000D03*
G04 #@! TO.P,J5,7,Pin_7*
G04 #@! TO.N,GND*
X102300000Y-50660000D03*
G04 #@! TO.P,J5,8,Pin_8*
G04 #@! TO.N,/36*
X102300000Y-48120000D03*
G04 #@! TO.P,J5,9,Pin_9*
G04 #@! TO.N,/38*
X102300000Y-45580000D03*
G04 #@! TO.P,J5,10,Pin_10*
G04 #@! TO.N,/40*
X102300000Y-43040000D03*
G04 #@! TD*
D10*
G04 #@! TO.P,J1,1,3V3*
G04 #@! TO.N,/1*
X93100000Y-92000000D03*
D18*
G04 #@! TO.P,J1,2,5V*
G04 #@! TO.N,/2*
X90560000Y-92000000D03*
G04 #@! TO.P,J1,3,SDA/GPIO2*
G04 #@! TO.N,/3*
X93100000Y-89460000D03*
G04 #@! TO.P,J1,4,5V*
G04 #@! TO.N,/4*
X90560000Y-89460000D03*
G04 #@! TO.P,J1,5,SCL/GPIO3*
G04 #@! TO.N,/5*
X93100000Y-86920000D03*
G04 #@! TO.P,J1,6,GND*
G04 #@! TO.N,GND*
X90560000Y-86920000D03*
G04 #@! TO.P,J1,7,GCLK0/GPIO4*
G04 #@! TO.N,/7*
X93100000Y-84380000D03*
G04 #@! TO.P,J1,8,GPIO14/TXD*
G04 #@! TO.N,/8*
X90560000Y-84380000D03*
G04 #@! TO.P,J1,9,GND*
G04 #@! TO.N,GND*
X93100000Y-81840000D03*
G04 #@! TO.P,J1,10,GPIO15/RXD*
G04 #@! TO.N,/10*
X90560000Y-81840000D03*
G04 #@! TO.P,J1,11,GPIO17*
G04 #@! TO.N,/11*
X93100000Y-79300000D03*
G04 #@! TO.P,J1,12,GPIO18/PWM0*
G04 #@! TO.N,/12*
X90560000Y-79300000D03*
G04 #@! TO.P,J1,13,GPIO27*
G04 #@! TO.N,/13*
X93100000Y-76760000D03*
G04 #@! TO.P,J1,14,GND*
G04 #@! TO.N,GND*
X90560000Y-76760000D03*
G04 #@! TO.P,J1,15,GPIO22*
G04 #@! TO.N,/15*
X93100000Y-74220000D03*
G04 #@! TO.P,J1,16,GPIO23*
G04 #@! TO.N,/16*
X90560000Y-74220000D03*
G04 #@! TO.P,J1,17,3V3*
G04 #@! TO.N,/17*
X93100000Y-71680000D03*
G04 #@! TO.P,J1,18,GPIO24*
G04 #@! TO.N,/18*
X90560000Y-71680000D03*
G04 #@! TO.P,J1,19,MOSI0/GPIO10*
G04 #@! TO.N,/19*
X93100000Y-69140000D03*
G04 #@! TO.P,J1,20,GND*
G04 #@! TO.N,GND*
X90560000Y-69140000D03*
G04 #@! TO.P,J1,21,MISO0/GPIO9*
G04 #@! TO.N,/21*
X93100000Y-66600000D03*
G04 #@! TO.P,J1,22,GPIO25*
G04 #@! TO.N,/22*
X90560000Y-66600000D03*
G04 #@! TO.P,J1,23,SCLK0/GPIO11*
G04 #@! TO.N,/23*
X93100000Y-64060000D03*
G04 #@! TO.P,J1,24,~{CE0}/GPIO8*
G04 #@! TO.N,/24*
X90560000Y-64060000D03*
G04 #@! TO.P,J1,25,GND*
G04 #@! TO.N,GND*
X93100000Y-61520000D03*
G04 #@! TO.P,J1,26,~{CE1}/GPIO7*
G04 #@! TO.N,/26*
X90560000Y-61520000D03*
G04 #@! TO.P,J1,27,ID_SD/GPIO0*
G04 #@! TO.N,/27*
X93100000Y-58980000D03*
G04 #@! TO.P,J1,28,ID_SC/GPIO1*
G04 #@! TO.N,/28*
X90560000Y-58980000D03*
G04 #@! TO.P,J1,29,GCLK1/GPIO5*
G04 #@! TO.N,/29*
X93100000Y-56440000D03*
G04 #@! TO.P,J1,30,GND*
G04 #@! TO.N,GND*
X90560000Y-56440000D03*
G04 #@! TO.P,J1,31,GCLK2/GPIO6*
G04 #@! TO.N,/31*
X93100000Y-53900000D03*
G04 #@! TO.P,J1,32,PWM0/GPIO12*
G04 #@! TO.N,/32*
X90560000Y-53900000D03*
G04 #@! TO.P,J1,33,PWM1/GPIO13*
G04 #@! TO.N,/33*
X93100000Y-51360000D03*
G04 #@! TO.P,J1,34,GND*
G04 #@! TO.N,GND*
X90560000Y-51360000D03*
G04 #@! TO.P,J1,35,GPIO19/MISO1*
G04 #@! TO.N,/35*
X93100000Y-48820000D03*
G04 #@! TO.P,J1,36,GPIO16*
G04 #@! TO.N,/36*
X90560000Y-48820000D03*
G04 #@! TO.P,J1,37,GPIO26*
G04 #@! TO.N,/37*
X93100000Y-46280000D03*
G04 #@! TO.P,J1,38,GPIO20/MOSI1*
G04 #@! TO.N,/38*
X90560000Y-46280000D03*
G04 #@! TO.P,J1,39,GND*
G04 #@! TO.N,GND*
X93100000Y-43740000D03*
G04 #@! TO.P,J1,40,GPIO21/SCLK1*
G04 #@! TO.N,/40*
X90560000Y-43740000D03*
G04 #@! TD*
D19*
G04 #@! TO.N,GND*
X105350000Y-95020000D03*
X110600000Y-40850000D03*
X101350000Y-39500000D03*
G04 #@! TO.N,+3V3*
X99200000Y-36450000D03*
X108300000Y-36400000D03*
X105480000Y-93830000D03*
G04 #@! TO.N,/3*
X108420000Y-97050000D03*
X107300000Y-38600000D03*
X98200000Y-38600000D03*
G04 #@! TO.N,/5*
X106200000Y-41800000D03*
X109450000Y-97050000D03*
X97200000Y-38600000D03*
G04 #@! TD*
D20*
G04 #@! TO.N,/40*
X101660000Y-42400000D02*
X102300000Y-43040000D01*
X91900000Y-42400000D02*
X101660000Y-42400000D01*
X90560000Y-43740000D02*
X91900000Y-42400000D01*
G04 #@! TO.N,/26*
X102300000Y-60820000D02*
X101824999Y-60344999D01*
X91780000Y-60300000D02*
X101780000Y-60300000D01*
X101780000Y-60300000D02*
X102300000Y-60820000D01*
X90560000Y-61520000D02*
X91780000Y-60300000D01*
G04 #@! TO.N,/22*
X90770000Y-66600000D02*
X92040000Y-65330000D01*
X93820000Y-65330000D02*
X93914999Y-65424999D01*
X93914999Y-65424999D02*
X101824999Y-65424999D01*
D21*
X101824999Y-65424999D02*
X102300000Y-65900000D01*
D20*
X90560000Y-66600000D02*
X90770000Y-66600000D01*
X92040000Y-65330000D02*
X93820000Y-65330000D01*
G04 #@! TO.N,/21*
X108150000Y-67250000D02*
X109500000Y-65900000D01*
X93750000Y-67250000D02*
X108150000Y-67250000D01*
X93100000Y-66600000D02*
X93750000Y-67250000D01*
G04 #@! TO.N,/29*
X100740000Y-56440000D02*
X101265001Y-56965001D01*
X93100000Y-56440000D02*
X100740000Y-56440000D01*
X108274999Y-56965001D02*
X109500000Y-55740000D01*
X101265001Y-56965001D02*
X108274999Y-56965001D01*
G04 #@! TO.N,/8*
X90560000Y-84380000D02*
X91830000Y-85650000D01*
X91830000Y-85650000D02*
X93840035Y-85650000D01*
X93840035Y-85650000D02*
X94290035Y-85200000D01*
X94290035Y-85200000D02*
X102040000Y-85200000D01*
X102040000Y-85200000D02*
X102300000Y-84940000D01*
G04 #@! TO.N,/7*
X102876002Y-83500000D02*
X106710000Y-83500000D01*
X108274999Y-83714999D02*
X109500000Y-84940000D01*
X100400000Y-83500000D02*
X102360000Y-83500000D01*
X106924999Y-83714999D02*
X108274999Y-83714999D01*
X95210000Y-84320000D02*
X95520000Y-84010000D01*
X93100000Y-84380000D02*
X93160000Y-84320000D01*
X102360000Y-83500000D02*
X102876002Y-83500000D01*
X99890000Y-84010000D02*
X100400000Y-83500000D01*
X93160000Y-84320000D02*
X95210000Y-84320000D01*
X95520000Y-84010000D02*
X99890000Y-84010000D01*
X106710000Y-83500000D02*
X106924999Y-83714999D01*
G04 #@! TO.N,/32*
X93676001Y-52699999D02*
X93701001Y-52724999D01*
X102260000Y-53240000D02*
X102300000Y-53200000D01*
X91760001Y-52699999D02*
X93676001Y-52699999D01*
X90560000Y-53900000D02*
X91760001Y-52699999D01*
X95274999Y-52724999D02*
X95790000Y-53240000D01*
D21*
X101824999Y-52724999D02*
X102300000Y-53200000D01*
D20*
X95790000Y-53240000D02*
X102260000Y-53240000D01*
X93701001Y-52724999D02*
X95274999Y-52724999D01*
G04 #@! TO.N,/31*
X95155001Y-54425001D02*
X108274999Y-54425001D01*
X93100000Y-53900000D02*
X93110000Y-53890000D01*
X94620000Y-53890000D02*
X95155001Y-54425001D01*
X93110000Y-53890000D02*
X94620000Y-53890000D01*
X108274999Y-54425001D02*
X109500000Y-53200000D01*
G04 #@! TO.N,/18*
X94890000Y-72630000D02*
X99810000Y-72630000D01*
X99810000Y-72630000D02*
X100600000Y-71840000D01*
X94639999Y-72880001D02*
X94890000Y-72630000D01*
X92498999Y-72855001D02*
X92523999Y-72880001D01*
X91735001Y-72855001D02*
X92498999Y-72855001D01*
X92523999Y-72880001D02*
X94639999Y-72880001D01*
X101900000Y-71840000D02*
X102300000Y-72240000D01*
X100600000Y-71840000D02*
X101900000Y-71840000D01*
X90560000Y-71680000D02*
X91735001Y-72855001D01*
G04 #@! TO.N,/17*
X93100000Y-71680000D02*
X99500000Y-71680000D01*
X99500000Y-71680000D02*
X100240001Y-70939999D01*
X100240001Y-70939999D02*
X108199999Y-70939999D01*
X108199999Y-70939999D02*
X109500000Y-72240000D01*
G04 #@! TO.N,/36*
X91860001Y-47519999D02*
X94739999Y-47519999D01*
X102000000Y-47820000D02*
X102300000Y-48120000D01*
X90560000Y-48820000D02*
X91860001Y-47519999D01*
X95040000Y-47820000D02*
X102000000Y-47820000D01*
X94739999Y-47519999D02*
X95040000Y-47820000D01*
G04 #@! TO.N,/35*
X101186998Y-48820000D02*
X101711999Y-49345001D01*
X93100000Y-48820000D02*
X101186998Y-48820000D01*
X108274999Y-49345001D02*
X109500000Y-48120000D01*
X101711999Y-49345001D02*
X108274999Y-49345001D01*
G04 #@! TO.N,/33*
X93100000Y-51360000D02*
X93260000Y-51200000D01*
X96574999Y-51974999D02*
X108185001Y-51974999D01*
X93260000Y-51200000D02*
X95800000Y-51200000D01*
X95800000Y-51200000D02*
X96574999Y-51974999D01*
X108185001Y-51974999D02*
X109500000Y-50660000D01*
G04 #@! TO.N,/38*
X102090000Y-45370000D02*
X102300000Y-45580000D01*
X95050000Y-45020000D02*
X95400000Y-45370000D01*
X91820000Y-45020000D02*
X95050000Y-45020000D01*
X90560000Y-46280000D02*
X91820000Y-45020000D01*
X95400000Y-45370000D02*
X102090000Y-45370000D01*
D21*
X101824999Y-45104999D02*
X102300000Y-45580000D01*
D20*
G04 #@! TO.N,/37*
X93130000Y-46250000D02*
X94850000Y-46250000D01*
X93100000Y-46280000D02*
X93130000Y-46250000D01*
X94850000Y-46250000D02*
X95419988Y-46819988D01*
X95419988Y-46819988D02*
X108260012Y-46819988D01*
X108260012Y-46819988D02*
X109500000Y-45580000D01*
G04 #@! TO.N,/19*
X93949999Y-68290001D02*
X108090001Y-68290001D01*
X108090001Y-68290001D02*
X109500000Y-69700000D01*
X93100000Y-69140000D02*
X93949999Y-68290001D01*
G04 #@! TO.N,/10*
X90560000Y-81840000D02*
X91760001Y-83040001D01*
X94180034Y-83040001D02*
X94205047Y-83014988D01*
X91760001Y-83040001D02*
X94180034Y-83040001D01*
X94205047Y-83014988D02*
X99515012Y-83014988D01*
X99515012Y-83014988D02*
X100130000Y-82400000D01*
X100130000Y-82400000D02*
X102300000Y-82400000D01*
G04 #@! TO.N,/13*
X93100000Y-76760000D02*
X94160660Y-76760000D01*
X108199999Y-76019999D02*
X109500000Y-77320000D01*
X94160660Y-76760000D02*
X94900661Y-76019999D01*
X94900661Y-76019999D02*
X108199999Y-76019999D01*
G04 #@! TO.N,/28*
X102020000Y-58000000D02*
X102300000Y-58280000D01*
X100140000Y-57740000D02*
X100400000Y-58000000D01*
X100400000Y-58000000D02*
X102020000Y-58000000D01*
X91800000Y-57740000D02*
X100140000Y-57740000D01*
X90560000Y-58980000D02*
X91800000Y-57740000D01*
G04 #@! TO.N,/27*
X101186998Y-58980000D02*
X101711999Y-59505001D01*
X108274999Y-59505001D02*
X109500000Y-58280000D01*
X93100000Y-58980000D02*
X101186998Y-58980000D01*
X101711999Y-59505001D02*
X104684999Y-59505001D01*
X104684999Y-59505001D02*
X108274999Y-59505001D01*
G04 #@! TO.N,/12*
X93676001Y-80500001D02*
X93696002Y-80480000D01*
X99260000Y-79500000D02*
X101940000Y-79500000D01*
X98280000Y-80480000D02*
X99260000Y-79500000D01*
X92523999Y-80500001D02*
X93676001Y-80500001D01*
X101940000Y-79500000D02*
X102300000Y-79860000D01*
X91740000Y-80480000D02*
X92503998Y-80480000D01*
X92503998Y-80480000D02*
X92523999Y-80500001D01*
X90560000Y-79300000D02*
X91740000Y-80480000D01*
X93696002Y-80480000D02*
X98280000Y-80480000D01*
G04 #@! TO.N,/11*
X98100000Y-79300000D02*
X98840001Y-78559999D01*
X108199999Y-78559999D02*
X109500000Y-79860000D01*
X93100000Y-79300000D02*
X98100000Y-79300000D01*
X98840001Y-78559999D02*
X108199999Y-78559999D01*
G04 #@! TO.N,/24*
X90560000Y-64060000D02*
X91830000Y-62790000D01*
X100880000Y-62790000D02*
X101190000Y-63100000D01*
X102040000Y-63100000D02*
X102300000Y-63360000D01*
X91830000Y-62790000D02*
X100880000Y-62790000D01*
X101190000Y-63100000D02*
X102040000Y-63100000D01*
G04 #@! TO.N,/23*
X101786998Y-64660000D02*
X108200000Y-64660000D01*
X93100000Y-64060000D02*
X101186998Y-64060000D01*
X108200000Y-64660000D02*
X109500000Y-63360000D01*
X101186998Y-64060000D02*
X101786998Y-64660000D01*
G04 #@! TO.N,/1*
X108199999Y-91259999D02*
X109500000Y-92560000D01*
X93100000Y-92000000D02*
X100449998Y-92000000D01*
X100449998Y-92000000D02*
X101189999Y-91259999D01*
X101189999Y-91259999D02*
X108199999Y-91259999D01*
G04 #@! TO.N,/2*
X90560000Y-92000000D02*
X91890000Y-93330000D01*
X98340000Y-93330000D02*
X101530000Y-93330000D01*
X96590000Y-96360000D02*
X97420000Y-96360000D01*
X97590000Y-98300000D02*
X98592500Y-98300000D01*
X97410000Y-96370000D02*
X97410000Y-98120000D01*
X91890000Y-93330000D02*
X98340000Y-93330000D01*
X98340000Y-93330000D02*
X98340000Y-96147500D01*
X97420000Y-96360000D02*
X97410000Y-96370000D01*
X98340000Y-96147500D02*
X98592500Y-96400000D01*
X101530000Y-93330000D02*
X102300000Y-92560000D01*
X97410000Y-98120000D02*
X97590000Y-98300000D01*
X97420000Y-96360000D02*
X98340000Y-96360000D01*
G04 #@! TO.N,/4*
X91770000Y-90670000D02*
X98090000Y-90670000D01*
X98090000Y-90670000D02*
X98700000Y-90060000D01*
X90560000Y-89460000D02*
X91770000Y-90670000D01*
X102260000Y-90060000D02*
X102300000Y-90020000D01*
X98700000Y-90060000D02*
X102260000Y-90060000D01*
G04 #@! TO.N,/16*
X91880000Y-75540000D02*
X94000000Y-75540000D01*
X94760000Y-74780000D02*
X102300000Y-74780000D01*
X90560000Y-74220000D02*
X91880000Y-75540000D01*
X94000000Y-75540000D02*
X94760000Y-74780000D01*
G04 #@! TO.N,/15*
X100100000Y-73750000D02*
X100370001Y-73479999D01*
X100370001Y-73479999D02*
X108199999Y-73479999D01*
X93570000Y-73750000D02*
X100100000Y-73750000D01*
X108199999Y-73479999D02*
X109500000Y-74780000D01*
X93100000Y-74220000D02*
X93570000Y-73750000D01*
G04 #@! TO.N,GND*
X105680000Y-95350000D02*
X106450000Y-95350000D01*
X95950000Y-70430000D02*
X96660000Y-69720000D01*
X90950000Y-56440000D02*
X92250001Y-55139999D01*
X100930000Y-44350000D02*
X104800000Y-44350000D01*
X90560000Y-69140000D02*
X91850000Y-70430000D01*
X100000000Y-81010000D02*
X108110000Y-81010000D01*
X102280000Y-69720000D02*
X102300000Y-69700000D01*
X110600000Y-40850000D02*
X109950000Y-40200000D01*
X105350000Y-96340000D02*
X103390000Y-98300000D01*
X91790000Y-88150000D02*
X98010000Y-88150000D01*
X109950000Y-40200000D02*
X109300000Y-40200000D01*
X100320000Y-43740000D02*
X100930000Y-44350000D01*
X101920000Y-55360000D02*
X102300000Y-55740000D01*
X93100000Y-81840000D02*
X99170000Y-81840000D01*
X101350000Y-39500000D02*
X100650000Y-40200000D01*
X99030000Y-87130000D02*
X101950000Y-87130000D01*
X100990000Y-61520000D02*
X101515001Y-62045001D01*
X91870000Y-78070000D02*
X94490000Y-78070000D01*
D21*
X101824999Y-50184999D02*
X102300000Y-50660000D01*
D20*
X101350000Y-39500000D02*
X103950000Y-39500000D01*
X104800000Y-44350000D02*
X108190000Y-44350000D01*
X108110000Y-81010000D02*
X109500000Y-82400000D01*
X104800000Y-40350000D02*
X104800000Y-44350000D01*
X95209999Y-55139999D02*
X95430000Y-55360000D01*
X90560000Y-56440000D02*
X90950000Y-56440000D01*
X103950000Y-39500000D02*
X104800000Y-40350000D01*
X108190000Y-44350000D02*
X109500000Y-43040000D01*
X90560000Y-86920000D02*
X91790000Y-88150000D01*
X101950000Y-87130000D02*
X102300000Y-87480000D01*
X98592500Y-97350000D02*
X101920000Y-97350000D01*
X94490000Y-78070000D02*
X95240000Y-77320000D01*
X91735001Y-50184999D02*
X101824999Y-50184999D01*
X95240000Y-77320000D02*
X102300000Y-77320000D01*
X101920000Y-97350000D02*
X102870000Y-98300000D01*
X90560000Y-76760000D02*
X91870000Y-78070000D01*
X108274999Y-62045001D02*
X109500000Y-60820000D01*
D21*
X101824999Y-55264999D02*
X102300000Y-55740000D01*
D20*
X91850000Y-70430000D02*
X95950000Y-70430000D01*
X105350000Y-95020000D02*
X105680000Y-95350000D01*
X98010000Y-88150000D02*
X99030000Y-87130000D01*
X93100000Y-61520000D02*
X100990000Y-61520000D01*
X101620000Y-99550000D02*
X102870000Y-98300000D01*
X97380000Y-99550000D02*
X101620000Y-99550000D01*
X96660000Y-69720000D02*
X102280000Y-69720000D01*
X105350000Y-95020000D02*
X105350000Y-96340000D01*
X96130000Y-98300000D02*
X97380000Y-99550000D01*
X100650000Y-40200000D02*
X100200000Y-40200000D01*
X90560000Y-51360000D02*
X91735001Y-50184999D01*
X103390000Y-98300000D02*
X102870000Y-98300000D01*
X92250001Y-55139999D02*
X95209999Y-55139999D01*
X95430000Y-55360000D02*
X101920000Y-55360000D01*
X99170000Y-81840000D02*
X100000000Y-81010000D01*
X101515001Y-62045001D02*
X108274999Y-62045001D01*
X93100000Y-43740000D02*
X100320000Y-43740000D01*
G04 #@! TO.N,+3V3*
X106980000Y-93830000D02*
X107450000Y-94300000D01*
X107450000Y-94300000D02*
X107450000Y-95350000D01*
X99200000Y-36450000D02*
X99200000Y-40200000D01*
X105480000Y-93830000D02*
X106980000Y-93830000D01*
X102870000Y-94690000D02*
X102870000Y-96400000D01*
X108300000Y-36400000D02*
X108300000Y-40200000D01*
X105480000Y-93830000D02*
X103730000Y-93830000D01*
X103730000Y-93830000D02*
X102870000Y-94690000D01*
X102870000Y-96400000D02*
X100867500Y-96400000D01*
G04 #@! TO.N,/3*
X108420000Y-97050000D02*
X108420000Y-95380000D01*
X93220000Y-89580000D02*
X95260000Y-89580000D01*
X107300000Y-40200000D02*
X107300000Y-38600000D01*
X104610000Y-88640000D02*
X104980000Y-89010000D01*
X99700000Y-88640000D02*
X104610000Y-88640000D01*
X99200000Y-89140000D02*
X99700000Y-88640000D01*
X108490000Y-89010000D02*
X109500000Y-90020000D01*
X95260000Y-89580000D02*
X95700000Y-89140000D01*
X98200000Y-38600000D02*
X98200000Y-40200000D01*
X93100000Y-89460000D02*
X93220000Y-89580000D01*
X95700000Y-89140000D02*
X99200000Y-89140000D01*
X108420000Y-95380000D02*
X108450000Y-95350000D01*
X104980000Y-89010000D02*
X108490000Y-89010000D01*
G04 #@! TO.N,/5*
X109420000Y-97020000D02*
X109420000Y-96585000D01*
X93100000Y-86920000D02*
X93230000Y-87050000D01*
X109450000Y-95350000D02*
X111530000Y-93270000D01*
X98330001Y-86179999D02*
X108199999Y-86179999D01*
X93230000Y-87050000D02*
X97460000Y-87050000D01*
X106300000Y-40200000D02*
X106300000Y-41700000D01*
X111530000Y-93270000D02*
X111530000Y-88130000D01*
X109450000Y-97050000D02*
X109420000Y-97020000D01*
X109450000Y-97050000D02*
X109450000Y-95350000D01*
X111530000Y-88130000D02*
X110780000Y-87380000D01*
X97200000Y-38600000D02*
X97200000Y-40200000D01*
X106300000Y-41700000D02*
X106200000Y-41800000D01*
X108199999Y-86179999D02*
X108274999Y-86254999D01*
X108274999Y-86254999D02*
X109500000Y-87480000D01*
X97460000Y-87050000D02*
X98330001Y-86179999D01*
X110780000Y-87380000D02*
X109500000Y-87380000D01*
G04 #@! TD*
M02*
