G04 #@! TF.GenerationSoftware,KiCad,Pcbnew,(6.0.0)*
G04 #@! TF.CreationDate,2022-02-24T22:11:55+04:00*
G04 #@! TF.ProjectId,RPi3-screw-terminal-shiel,52506933-2d73-4637-9265-772d7465726d,rev?*
G04 #@! TF.SameCoordinates,Original*
G04 #@! TF.FileFunction,Legend,Bot*
G04 #@! TF.FilePolarity,Positive*
%FSLAX46Y46*%
G04 Gerber Fmt 4.6, Leading zero omitted, Abs format (unit mm)*
G04 Created by KiCad (PCBNEW (6.0.0)) date 2022-02-24 22:11:55*
%MOMM*%
%LPD*%
G01*
G04 APERTURE LIST*
%ADD10C,0.120000*%
%ADD11C,0.010000*%
G04 APERTURE END LIST*
G04 #@! TO.C,kibuzzard-6217C81B*
G36*
X98058230Y-97983858D02*
G01*
X98181459Y-98110659D01*
X98221941Y-97986834D01*
X98395772Y-97943972D01*
X98504714Y-97960045D01*
X98564841Y-98008266D01*
X98587462Y-98068987D01*
X98591034Y-98151141D01*
X98591034Y-98989341D01*
X98587462Y-99072684D01*
X98567222Y-99134597D01*
X98504714Y-99182817D01*
X98383866Y-99198891D01*
X98262422Y-99183413D01*
X98198128Y-99136978D01*
X98175506Y-99073875D01*
X98171934Y-98991722D01*
X98171934Y-98570241D01*
X98136216Y-98414864D01*
X98029059Y-98363072D01*
X97918331Y-98414864D01*
X97881422Y-98570241D01*
X97881422Y-98986959D01*
X97877850Y-99069113D01*
X97857609Y-99132216D01*
X97795102Y-99182222D01*
X97674253Y-99198891D01*
X97551619Y-99182817D01*
X97488516Y-99134597D01*
X97465894Y-99072684D01*
X97462322Y-98989341D01*
X97462322Y-98572622D01*
X97432556Y-98417841D01*
X97319447Y-98363072D01*
X97208719Y-98414864D01*
X97171809Y-98570241D01*
X97171809Y-98986959D01*
X97168237Y-99069113D01*
X97147997Y-99132216D01*
X97085489Y-99182222D01*
X96964641Y-99198891D01*
X96842602Y-99182817D01*
X96781284Y-99134597D01*
X96758662Y-99071494D01*
X96755091Y-98989341D01*
X96755091Y-98572622D01*
X96769378Y-98368496D01*
X96812241Y-98206968D01*
X96883678Y-98088037D01*
X97027744Y-97978202D01*
X97202766Y-97941591D01*
X97369453Y-97988025D01*
X97487325Y-98073750D01*
X97550428Y-98148759D01*
X97643561Y-98033666D01*
X97764211Y-97964609D01*
X97912378Y-97941591D01*
X98058230Y-97983858D01*
G37*
G36*
X103627378Y-97960641D02*
G01*
X103729177Y-98025530D01*
X103763109Y-98110659D01*
X103739297Y-98203528D01*
X103379728Y-99079828D01*
X103313053Y-99164363D01*
X103189228Y-99206034D01*
X103058259Y-99148884D01*
X103020159Y-99098878D01*
X102999919Y-99059588D01*
X102983250Y-99016725D01*
X102923719Y-98854800D01*
X102882940Y-98743179D01*
X102853472Y-98667872D01*
X102783886Y-98853080D01*
X102737055Y-98976905D01*
X102712978Y-99039347D01*
X102693928Y-99079828D01*
X102626062Y-99164363D01*
X102520097Y-99206034D01*
X102429609Y-99189366D01*
X102358172Y-99131025D01*
X102310547Y-99041728D01*
X102048609Y-98403553D01*
X101984316Y-98247581D01*
X101946216Y-98117803D01*
X101984316Y-98027911D01*
X102098616Y-97953497D01*
X102193866Y-97929684D01*
X102293878Y-97967784D01*
X102365316Y-98082084D01*
X102510572Y-98477372D01*
X102535707Y-98413872D01*
X102582539Y-98286872D01*
X102651066Y-98096372D01*
X102670116Y-98055891D01*
X102740362Y-97979691D01*
X102862997Y-97941591D01*
X103003491Y-98010647D01*
X103055878Y-98093991D01*
X103196372Y-98479753D01*
X103272307Y-98273378D01*
X103328664Y-98124153D01*
X103365441Y-98032078D01*
X103384491Y-97990406D01*
X103426162Y-97949925D01*
X103503553Y-97929684D01*
X103627378Y-97960641D01*
G37*
G36*
X110541338Y-99620372D02*
G01*
X110519906Y-99679903D01*
X110457994Y-99727528D01*
X110340122Y-99741816D01*
X110223441Y-99727528D01*
X110162719Y-99678713D01*
X110141288Y-99617991D01*
X110137716Y-99537028D01*
X110137716Y-99056016D01*
X110022820Y-99138169D01*
X109854347Y-99165553D01*
X109726685Y-99145180D01*
X109604051Y-99084061D01*
X109486444Y-98982197D01*
X109390532Y-98853345D01*
X109332985Y-98711264D01*
X109314097Y-98558334D01*
X109720997Y-98558334D01*
X109781719Y-98698828D01*
X109929356Y-98760741D01*
X110072231Y-98697638D01*
X110128191Y-98558334D01*
X110073422Y-98417841D01*
X109926975Y-98353547D01*
X109778147Y-98416650D01*
X109720997Y-98558334D01*
X109314097Y-98558334D01*
X109313803Y-98555953D01*
X109333118Y-98400643D01*
X109391061Y-98258561D01*
X109487634Y-98129709D01*
X109605771Y-98027845D01*
X109728405Y-97966726D01*
X109855538Y-97946353D01*
X110023713Y-97977309D01*
X110140097Y-98070178D01*
X110191294Y-97976119D01*
X110361553Y-97943972D01*
X110464542Y-97960045D01*
X110521097Y-98008266D01*
X110541338Y-98067797D01*
X110544909Y-98148759D01*
X110544909Y-99539409D01*
X110541338Y-99620372D01*
G37*
G36*
X98833657Y-98234220D02*
G01*
X98943459Y-98099944D01*
X99081836Y-97997418D01*
X99233443Y-97935902D01*
X99398278Y-97915397D01*
X99563378Y-97936034D01*
X99715778Y-97997947D01*
X99855478Y-98101134D01*
X99966603Y-98236072D01*
X100033278Y-98393234D01*
X100055503Y-98572622D01*
X100030202Y-98753299D01*
X99954300Y-98914331D01*
X99841488Y-99047086D01*
X99705459Y-99142931D01*
X99555441Y-99200974D01*
X99400659Y-99220322D01*
X99246176Y-99202165D01*
X99097050Y-99147694D01*
X98961616Y-99054825D01*
X98848209Y-98921475D01*
X98771414Y-98756871D01*
X98745816Y-98570241D01*
X98746399Y-98565478D01*
X99167297Y-98565478D01*
X99186942Y-98667872D01*
X99245878Y-98741691D01*
X99403041Y-98801222D01*
X99557822Y-98742881D01*
X99614972Y-98670253D01*
X99634022Y-98569050D01*
X99615567Y-98467549D01*
X99560203Y-98394028D01*
X99400659Y-98334497D01*
X99241116Y-98391647D01*
X99185752Y-98463680D01*
X99167297Y-98565478D01*
X98746399Y-98565478D01*
X98767776Y-98390985D01*
X98833657Y-98234220D01*
G37*
G36*
X103876516Y-98548809D02*
G01*
X103858359Y-98421412D01*
X103859215Y-98415459D01*
X104270316Y-98415459D01*
X104360803Y-98491659D01*
X104660841Y-98491659D01*
X104584641Y-98357119D01*
X104431050Y-98294016D01*
X104311988Y-98327353D01*
X104270316Y-98415459D01*
X103859215Y-98415459D01*
X103878600Y-98280621D01*
X103939322Y-98151141D01*
X104027726Y-98049045D01*
X104138156Y-97976119D01*
X104270613Y-97932363D01*
X104425097Y-97917778D01*
X104608056Y-97937754D01*
X104769584Y-97997682D01*
X104909681Y-98097562D01*
X105017499Y-98230780D01*
X105082190Y-98390721D01*
X105103753Y-98577384D01*
X105087084Y-98731107D01*
X105037078Y-98874776D01*
X104953734Y-99008391D01*
X104862354Y-99098580D01*
X104740613Y-99169125D01*
X104593868Y-99214666D01*
X104427478Y-99229847D01*
X104205575Y-99216601D01*
X104047073Y-99176864D01*
X103951972Y-99110636D01*
X103920272Y-99017916D01*
X103951228Y-98908378D01*
X104082197Y-98801222D01*
X104177447Y-98827416D01*
X104203641Y-98836941D01*
X104297105Y-98858372D01*
X104420334Y-98865516D01*
X104577497Y-98820272D01*
X104656078Y-98708353D01*
X104091722Y-98708353D01*
X103930988Y-98638106D01*
X103876516Y-98548809D01*
G37*
G36*
X106926468Y-97947147D02*
G01*
X107066961Y-97999534D01*
X107201634Y-98086847D01*
X107290336Y-98175251D01*
X107361178Y-98288062D01*
X107407613Y-98420222D01*
X107423091Y-98566669D01*
X107407613Y-98713711D01*
X107361178Y-98847656D01*
X107290336Y-98962254D01*
X107201634Y-99051253D01*
X107063257Y-99139889D01*
X106921176Y-99193070D01*
X106775391Y-99210797D01*
X106593225Y-99186984D01*
X106442016Y-99115547D01*
X106343789Y-99033989D01*
X106311047Y-98946478D01*
X106365816Y-98822653D01*
X106460470Y-98727998D01*
X106539647Y-98696447D01*
X106645613Y-98740500D01*
X106786106Y-98784553D01*
X106927791Y-98728594D01*
X106994466Y-98571431D01*
X106925409Y-98413078D01*
X106776581Y-98355928D01*
X106653947Y-98396409D01*
X106525359Y-98448797D01*
X106444992Y-98416055D01*
X106361053Y-98317828D01*
X106311047Y-98180906D01*
X106372959Y-98072559D01*
X106439634Y-98027316D01*
X106477734Y-98003503D01*
X106603941Y-97954687D01*
X106780153Y-97929684D01*
X106926468Y-97947147D01*
G37*
G36*
X100789986Y-97947147D02*
G01*
X100930480Y-97999534D01*
X101065153Y-98086847D01*
X101153855Y-98175251D01*
X101224697Y-98288062D01*
X101271131Y-98420222D01*
X101286609Y-98566669D01*
X101271131Y-98713711D01*
X101224697Y-98847656D01*
X101153855Y-98962254D01*
X101065153Y-99051253D01*
X100926776Y-99139889D01*
X100784695Y-99193070D01*
X100638909Y-99210797D01*
X100456744Y-99186984D01*
X100305534Y-99115547D01*
X100207308Y-99033989D01*
X100174566Y-98946478D01*
X100229334Y-98822653D01*
X100323989Y-98727998D01*
X100403166Y-98696447D01*
X100509131Y-98740500D01*
X100649625Y-98784553D01*
X100791309Y-98728594D01*
X100857984Y-98571431D01*
X100788928Y-98413078D01*
X100640100Y-98355928D01*
X100517466Y-98396409D01*
X100388878Y-98448797D01*
X100308511Y-98416055D01*
X100224572Y-98317828D01*
X100174566Y-98180906D01*
X100236478Y-98072559D01*
X100303153Y-98027316D01*
X100341253Y-98003503D01*
X100467459Y-97954687D01*
X100643672Y-97929684D01*
X100789986Y-97947147D01*
G37*
G36*
X108213951Y-97935209D02*
G01*
X108358636Y-97980357D01*
X108461982Y-98055605D01*
X108523990Y-98160951D01*
X108544659Y-98296397D01*
X108533348Y-98413971D01*
X108499416Y-98514281D01*
X108385116Y-98648822D01*
X108236883Y-98722045D01*
X108087459Y-98760741D01*
X107967802Y-98788125D01*
X107927916Y-98827416D01*
X107964230Y-98870278D01*
X108073172Y-98884566D01*
X108254147Y-98826225D01*
X108412500Y-98767884D01*
X108497034Y-98808366D01*
X108564900Y-98918498D01*
X108587522Y-98996484D01*
X108542278Y-99086972D01*
X108399006Y-99161055D01*
X108251766Y-99205505D01*
X108100556Y-99220322D01*
X107955961Y-99212120D01*
X107828565Y-99187514D01*
X107718366Y-99146503D01*
X107588588Y-99016725D01*
X107553762Y-98920582D01*
X107542153Y-98805984D01*
X107553762Y-98692577D01*
X107588588Y-98600006D01*
X107704078Y-98484516D01*
X107854097Y-98424984D01*
X108008878Y-98394028D01*
X108130322Y-98360095D01*
X108170803Y-98301159D01*
X108030309Y-98248772D01*
X107862431Y-98284491D01*
X107756466Y-98320209D01*
X107649309Y-98236866D01*
X107596922Y-98096372D01*
X107680266Y-98001122D01*
X107856478Y-97940400D01*
X108027928Y-97920159D01*
X108213951Y-97935209D01*
G37*
G36*
X105610959Y-97972547D02*
G01*
X105707400Y-98036841D01*
X105741928Y-98077322D01*
X105768122Y-97998741D01*
X105830630Y-97957664D01*
X105946716Y-97943972D01*
X106069350Y-97960045D01*
X106132453Y-98008266D01*
X106152694Y-98068987D01*
X106156266Y-98151141D01*
X106156266Y-99056016D01*
X106113403Y-99158409D01*
X105949097Y-99198891D01*
X105827653Y-99183413D01*
X105763359Y-99136978D01*
X105740738Y-99073875D01*
X105737166Y-98991722D01*
X105737166Y-98491659D01*
X105681206Y-98382122D01*
X105560953Y-98336878D01*
X105457369Y-98355928D01*
X105375216Y-98374978D01*
X105244247Y-98284491D01*
X105199003Y-98117803D01*
X105228769Y-98007075D01*
X105303778Y-97958259D01*
X105387122Y-97938019D01*
X105481181Y-97932066D01*
X105610959Y-97972547D01*
G37*
G36*
X109072106Y-97961831D02*
G01*
X109135209Y-98008266D01*
X109155450Y-98071369D01*
X109159022Y-98153522D01*
X109159022Y-98989341D01*
X109155450Y-99072684D01*
X109135209Y-99134597D01*
X109072702Y-99182817D01*
X108951853Y-99198891D01*
X108829814Y-99183413D01*
X108768497Y-99136978D01*
X108745875Y-99073875D01*
X108742303Y-98991722D01*
X108742303Y-98158284D01*
X108744684Y-98089228D01*
X108787547Y-97986834D01*
X108949472Y-97946353D01*
X109072106Y-97961831D01*
G37*
G36*
X101761966Y-98773838D02*
G01*
X101824772Y-98827416D01*
X101847394Y-98891709D01*
X101850966Y-98975053D01*
X101850966Y-98984578D01*
X101804531Y-99156028D01*
X101733689Y-99189961D01*
X101614031Y-99201272D01*
X101497052Y-99184008D01*
X101434247Y-99132216D01*
X101409244Y-99066731D01*
X101405672Y-98982197D01*
X101405672Y-98972672D01*
X101446153Y-98805984D01*
X101523246Y-98768480D01*
X101644988Y-98755978D01*
X101761966Y-98773838D01*
G37*
G36*
X109072106Y-97374258D02*
G01*
X109135209Y-97422478D01*
X109155450Y-97483200D01*
X109159022Y-97565353D01*
X109155450Y-97647506D01*
X109134019Y-97710609D01*
X109070916Y-97760616D01*
X108950663Y-97774903D01*
X108830409Y-97760616D01*
X108767306Y-97711800D01*
X108745875Y-97649887D01*
X108742303Y-97567734D01*
X108745875Y-97485581D01*
X108768497Y-97422478D01*
X108829219Y-97374258D01*
X108949472Y-97358184D01*
X109072106Y-97374258D01*
G37*
D10*
G04 #@! TO.C,J1*
X111890000Y-34110000D02*
X111890000Y-35310000D01*
X94770000Y-35310000D02*
X94770000Y-34110000D01*
X119090000Y-93680000D02*
X118390000Y-93680000D01*
X94770000Y-35310000D02*
X91330000Y-35310000D01*
X119090000Y-82260000D02*
X119090000Y-93680000D01*
X118390000Y-63030000D02*
X118390000Y-82260000D01*
X94430000Y-93330000D02*
X94430000Y-92000000D01*
X118390000Y-93680000D02*
X118390000Y-97370000D01*
X94430000Y-90730000D02*
X94430000Y-42410000D01*
X88270000Y-38370000D02*
X88270000Y-97370000D01*
X91330000Y-100430000D02*
X115330000Y-100430000D01*
X111890000Y-35310000D02*
X115330000Y-35310000D01*
X118390000Y-82260000D02*
X119090000Y-82260000D01*
X91830000Y-90730000D02*
X94430000Y-90730000D01*
X118390000Y-38370000D02*
X118390000Y-42310000D01*
X94770000Y-34110000D02*
X111890000Y-34110000D01*
X118390000Y-50430000D02*
X118390000Y-54910000D01*
X120190000Y-54910000D02*
X120190000Y-63030000D01*
X93100000Y-93330000D02*
X94430000Y-93330000D01*
X89230000Y-42410000D02*
X94430000Y-42410000D01*
X118390000Y-54910000D02*
X120190000Y-54910000D01*
X120190000Y-42310000D02*
X120190000Y-50430000D01*
X118390000Y-42310000D02*
X120190000Y-42310000D01*
X120190000Y-50430000D02*
X118390000Y-50430000D01*
X89230000Y-93330000D02*
X89230000Y-42410000D01*
X89230000Y-93330000D02*
X91830000Y-93330000D01*
X91830000Y-93330000D02*
X91830000Y-90730000D01*
X120190000Y-63030000D02*
X118390000Y-63030000D01*
X115330000Y-100430000D02*
G75*
G03*
X118390000Y-97370000I1J3059999D01*
G01*
X91330000Y-35310000D02*
G75*
G03*
X88270000Y-38370000I-1J-3059999D01*
G01*
X118390000Y-38370000D02*
G75*
G03*
X115330000Y-35310000I-3059999J1D01*
G01*
X88270000Y-97370000D02*
G75*
G03*
X91330000Y-100430000I3059999J-1D01*
G01*
D11*
G04 #@! TO.C,REF\u002A\u002A*
X111832836Y-48196563D02*
X112277460Y-48280384D01*
X112277460Y-48280384D02*
X112404958Y-48589669D01*
X112404958Y-48589669D02*
X112532456Y-48898955D01*
X112532456Y-48898955D02*
X112280151Y-49269995D01*
X112280151Y-49269995D02*
X112209901Y-49373906D01*
X112209901Y-49373906D02*
X112147177Y-49467836D01*
X112147177Y-49467836D02*
X112094843Y-49547401D01*
X112094843Y-49547401D02*
X112055762Y-49608219D01*
X112055762Y-49608219D02*
X112032798Y-49645906D01*
X112032798Y-49645906D02*
X112027847Y-49656170D01*
X112027847Y-49656170D02*
X112040581Y-49674659D01*
X112040581Y-49674659D02*
X112075787Y-49714169D01*
X112075787Y-49714169D02*
X112128967Y-49770271D01*
X112128967Y-49770271D02*
X112195623Y-49838536D01*
X112195623Y-49838536D02*
X112271259Y-49914535D01*
X112271259Y-49914535D02*
X112351377Y-49993841D01*
X112351377Y-49993841D02*
X112431479Y-50072024D01*
X112431479Y-50072024D02*
X112507069Y-50144656D01*
X112507069Y-50144656D02*
X112573650Y-50207308D01*
X112573650Y-50207308D02*
X112626723Y-50255552D01*
X112626723Y-50255552D02*
X112661792Y-50284959D01*
X112661792Y-50284959D02*
X112673528Y-50291990D01*
X112673528Y-50291990D02*
X112695165Y-50281872D01*
X112695165Y-50281872D02*
X112742567Y-50253508D01*
X112742567Y-50253508D02*
X112811098Y-50209878D01*
X112811098Y-50209878D02*
X112896120Y-50153967D01*
X112896120Y-50153967D02*
X112992998Y-50088755D01*
X112992998Y-50088755D02*
X113048255Y-50050968D01*
X113048255Y-50050968D02*
X113149153Y-49982092D01*
X113149153Y-49982092D02*
X113240204Y-49920889D01*
X113240204Y-49920889D02*
X113316875Y-49870327D01*
X113316875Y-49870327D02*
X113374633Y-49833377D01*
X113374633Y-49833377D02*
X113408948Y-49813007D01*
X113408948Y-49813007D02*
X113416159Y-49809946D01*
X113416159Y-49809946D02*
X113436653Y-49816885D01*
X113436653Y-49816885D02*
X113484418Y-49835800D01*
X113484418Y-49835800D02*
X113552737Y-49863836D01*
X113552737Y-49863836D02*
X113634894Y-49898140D01*
X113634894Y-49898140D02*
X113724175Y-49935858D01*
X113724175Y-49935858D02*
X113813863Y-49974136D01*
X113813863Y-49974136D02*
X113897243Y-50010119D01*
X113897243Y-50010119D02*
X113967599Y-50040955D01*
X113967599Y-50040955D02*
X114018215Y-50063788D01*
X114018215Y-50063788D02*
X114042376Y-50075766D01*
X114042376Y-50075766D02*
X114043327Y-50076473D01*
X114043327Y-50076473D02*
X114047941Y-50095280D01*
X114047941Y-50095280D02*
X114058233Y-50145367D01*
X114058233Y-50145367D02*
X114073192Y-50221542D01*
X114073192Y-50221542D02*
X114091806Y-50318614D01*
X114091806Y-50318614D02*
X114113064Y-50431392D01*
X114113064Y-50431392D02*
X114125323Y-50497191D01*
X114125323Y-50497191D02*
X114148267Y-50617699D01*
X114148267Y-50617699D02*
X114170100Y-50726546D01*
X114170100Y-50726546D02*
X114189627Y-50818225D01*
X114189627Y-50818225D02*
X114205653Y-50887230D01*
X114205653Y-50887230D02*
X114216984Y-50928053D01*
X114216984Y-50928053D02*
X114220579Y-50936260D01*
X114220579Y-50936260D02*
X114244911Y-50944297D01*
X114244911Y-50944297D02*
X114299864Y-50950782D01*
X114299864Y-50950782D02*
X114379013Y-50955719D01*
X114379013Y-50955719D02*
X114475931Y-50959113D01*
X114475931Y-50959113D02*
X114584192Y-50960967D01*
X114584192Y-50960967D02*
X114697370Y-50961287D01*
X114697370Y-50961287D02*
X114809040Y-50960076D01*
X114809040Y-50960076D02*
X114912773Y-50957339D01*
X114912773Y-50957339D02*
X115002146Y-50953080D01*
X115002146Y-50953080D02*
X115070731Y-50947304D01*
X115070731Y-50947304D02*
X115112102Y-50940016D01*
X115112102Y-50940016D02*
X115120715Y-50935644D01*
X115120715Y-50935644D02*
X115131038Y-50909513D01*
X115131038Y-50909513D02*
X115145797Y-50854142D01*
X115145797Y-50854142D02*
X115163257Y-50776856D01*
X115163257Y-50776856D02*
X115181685Y-50684979D01*
X115181685Y-50684979D02*
X115187646Y-50652907D01*
X115187646Y-50652907D02*
X115215971Y-50498273D01*
X115215971Y-50498273D02*
X115238781Y-50376124D01*
X115238781Y-50376124D02*
X115256985Y-50282422D01*
X115256985Y-50282422D02*
X115271488Y-50213133D01*
X115271488Y-50213133D02*
X115283197Y-50164220D01*
X115283197Y-50164220D02*
X115293020Y-50131646D01*
X115293020Y-50131646D02*
X115301861Y-50111377D01*
X115301861Y-50111377D02*
X115310629Y-50099375D01*
X115310629Y-50099375D02*
X115312362Y-50097696D01*
X115312362Y-50097696D02*
X115340276Y-50080933D01*
X115340276Y-50080933D02*
X115394600Y-50055363D01*
X115394600Y-50055363D02*
X115468682Y-50023537D01*
X115468682Y-50023537D02*
X115555870Y-49988009D01*
X115555870Y-49988009D02*
X115649513Y-49951332D01*
X115649513Y-49951332D02*
X115742957Y-49916060D01*
X115742957Y-49916060D02*
X115829552Y-49884745D01*
X115829552Y-49884745D02*
X115902645Y-49859942D01*
X115902645Y-49859942D02*
X115955583Y-49844203D01*
X115955583Y-49844203D02*
X115981716Y-49840081D01*
X115981716Y-49840081D02*
X115982631Y-49840425D01*
X115982631Y-49840425D02*
X116003991Y-49854390D01*
X116003991Y-49854390D02*
X116050989Y-49886071D01*
X116050989Y-49886071D02*
X116118732Y-49932140D01*
X116118732Y-49932140D02*
X116202328Y-49989267D01*
X116202328Y-49989267D02*
X116296887Y-50054122D01*
X116296887Y-50054122D02*
X116323759Y-50072592D01*
X116323759Y-50072592D02*
X116421180Y-50138448D01*
X116421180Y-50138448D02*
X116510068Y-50196399D01*
X116510068Y-50196399D02*
X116585317Y-50243287D01*
X116585317Y-50243287D02*
X116641825Y-50275956D01*
X116641825Y-50275956D02*
X116674486Y-50291249D01*
X116674486Y-50291249D02*
X116678498Y-50291990D01*
X116678498Y-50291990D02*
X116699589Y-50279141D01*
X116699589Y-50279141D02*
X116741369Y-50243637D01*
X116741369Y-50243637D02*
X116799350Y-50190042D01*
X116799350Y-50190042D02*
X116869040Y-50122920D01*
X116869040Y-50122920D02*
X116945950Y-50046836D01*
X116945950Y-50046836D02*
X117025588Y-49966353D01*
X117025588Y-49966353D02*
X117103466Y-49886036D01*
X117103466Y-49886036D02*
X117175091Y-49810448D01*
X117175091Y-49810448D02*
X117235975Y-49744154D01*
X117235975Y-49744154D02*
X117281626Y-49691718D01*
X117281626Y-49691718D02*
X117307555Y-49657704D01*
X117307555Y-49657704D02*
X117311788Y-49648294D01*
X117311788Y-49648294D02*
X117301817Y-49626392D01*
X117301817Y-49626392D02*
X117274925Y-49581549D01*
X117274925Y-49581549D02*
X117235641Y-49521070D01*
X117235641Y-49521070D02*
X117204022Y-49474538D01*
X117204022Y-49474538D02*
X117146003Y-49390224D01*
X117146003Y-49390224D02*
X117077689Y-49290375D01*
X117077689Y-49290375D02*
X117009484Y-49190222D01*
X117009484Y-49190222D02*
X116972980Y-49136376D01*
X116972980Y-49136376D02*
X116849705Y-48954120D01*
X116849705Y-48954120D02*
X116932425Y-48801130D01*
X116932425Y-48801130D02*
X116968664Y-48731431D01*
X116968664Y-48731431D02*
X116996831Y-48672163D01*
X116996831Y-48672163D02*
X117012896Y-48632060D01*
X117012896Y-48632060D02*
X117015131Y-48621852D01*
X117015131Y-48621852D02*
X116998627Y-48609578D01*
X116998627Y-48609578D02*
X116951987Y-48585362D01*
X116951987Y-48585362D02*
X116879514Y-48551012D01*
X116879514Y-48551012D02*
X116785511Y-48508337D01*
X116785511Y-48508337D02*
X116674279Y-48459143D01*
X116674279Y-48459143D02*
X116550120Y-48405239D01*
X116550120Y-48405239D02*
X116417337Y-48348433D01*
X116417337Y-48348433D02*
X116280232Y-48290531D01*
X116280232Y-48290531D02*
X116143107Y-48233342D01*
X116143107Y-48233342D02*
X116010263Y-48178673D01*
X116010263Y-48178673D02*
X115886003Y-48128333D01*
X115886003Y-48128333D02*
X115774630Y-48084129D01*
X115774630Y-48084129D02*
X115680444Y-48047868D01*
X115680444Y-48047868D02*
X115607749Y-48021358D01*
X115607749Y-48021358D02*
X115560846Y-48006407D01*
X115560846Y-48006407D02*
X115544738Y-48004003D01*
X115544738Y-48004003D02*
X115524191Y-48023060D01*
X115524191Y-48023060D02*
X115490838Y-48064785D01*
X115490838Y-48064785D02*
X115451607Y-48120455D01*
X115451607Y-48120455D02*
X115448504Y-48125127D01*
X115448504Y-48125127D02*
X115333328Y-48269013D01*
X115333328Y-48269013D02*
X115198958Y-48385032D01*
X115198958Y-48385032D02*
X115049689Y-48472179D01*
X115049689Y-48472179D02*
X114889818Y-48529448D01*
X114889818Y-48529448D02*
X114723642Y-48555835D01*
X114723642Y-48555835D02*
X114555457Y-48550334D01*
X114555457Y-48550334D02*
X114389560Y-48511939D01*
X114389560Y-48511939D02*
X114230247Y-48439644D01*
X114230247Y-48439644D02*
X114195392Y-48418375D01*
X114195392Y-48418375D02*
X114054642Y-48307745D01*
X114054642Y-48307745D02*
X113941619Y-48177051D01*
X113941619Y-48177051D02*
X113856908Y-48030813D01*
X113856908Y-48030813D02*
X113801099Y-47873557D01*
X113801099Y-47873557D02*
X113774779Y-47709806D01*
X113774779Y-47709806D02*
X113778535Y-47544082D01*
X113778535Y-47544082D02*
X113812955Y-47380911D01*
X113812955Y-47380911D02*
X113878628Y-47224814D01*
X113878628Y-47224814D02*
X113976140Y-47080316D01*
X113976140Y-47080316D02*
X114015718Y-47035618D01*
X114015718Y-47035618D02*
X114139608Y-46921861D01*
X114139608Y-46921861D02*
X114270029Y-46838967D01*
X114270029Y-46838967D02*
X114416220Y-46782105D01*
X114416220Y-46782105D02*
X114560993Y-46750436D01*
X114560993Y-46750436D02*
X114723765Y-46742618D01*
X114723765Y-46742618D02*
X114887345Y-46768687D01*
X114887345Y-46768687D02*
X115046203Y-46825994D01*
X115046203Y-46825994D02*
X115194811Y-46911893D01*
X115194811Y-46911893D02*
X115327640Y-47023735D01*
X115327640Y-47023735D02*
X115439161Y-47158872D01*
X115439161Y-47158872D02*
X115450916Y-47176632D01*
X115450916Y-47176632D02*
X115489413Y-47232899D01*
X115489413Y-47232899D02*
X115522768Y-47275672D01*
X115522768Y-47275672D02*
X115544065Y-47296121D01*
X115544065Y-47296121D02*
X115544738Y-47296418D01*
X115544738Y-47296418D02*
X115567776Y-47292028D01*
X115567776Y-47292028D02*
X115620062Y-47274625D01*
X115620062Y-47274625D02*
X115697295Y-47246017D01*
X115697295Y-47246017D02*
X115795173Y-47208014D01*
X115795173Y-47208014D02*
X115909396Y-47162423D01*
X115909396Y-47162423D02*
X116035663Y-47111052D01*
X116035663Y-47111052D02*
X116169672Y-47055711D01*
X116169672Y-47055711D02*
X116307123Y-46998207D01*
X116307123Y-46998207D02*
X116443713Y-46940350D01*
X116443713Y-46940350D02*
X116575142Y-46883947D01*
X116575142Y-46883947D02*
X116697110Y-46830807D01*
X116697110Y-46830807D02*
X116805314Y-46782739D01*
X116805314Y-46782739D02*
X116895454Y-46741550D01*
X116895454Y-46741550D02*
X116963228Y-46709050D01*
X116963228Y-46709050D02*
X117004335Y-46687046D01*
X117004335Y-46687046D02*
X117015131Y-46678185D01*
X117015131Y-46678185D02*
X117006724Y-46651109D01*
X117006724Y-46651109D02*
X116984177Y-46600446D01*
X116984177Y-46600446D02*
X116951518Y-46534932D01*
X116951518Y-46534932D02*
X116932425Y-46498908D01*
X116932425Y-46498908D02*
X116849705Y-46345917D01*
X116849705Y-46345917D02*
X116972980Y-46163661D01*
X116972980Y-46163661D02*
X117036133Y-46070624D01*
X117036133Y-46070624D02*
X117105632Y-45968764D01*
X117105632Y-45968764D02*
X117171070Y-45873311D01*
X117171070Y-45873311D02*
X117204022Y-45825499D01*
X117204022Y-45825499D02*
X117249178Y-45758254D01*
X117249178Y-45758254D02*
X117284962Y-45701313D01*
X117284962Y-45701313D02*
X117306843Y-45662103D01*
X117306843Y-45662103D02*
X117311468Y-45649368D01*
X117311468Y-45649368D02*
X117298990Y-45630832D01*
X117298990Y-45630832D02*
X117264157Y-45589808D01*
X117264157Y-45589808D02*
X117210583Y-45530274D01*
X117210583Y-45530274D02*
X117141888Y-45456207D01*
X117141888Y-45456207D02*
X117061686Y-45371584D01*
X117061686Y-45371584D02*
X117010191Y-45318064D01*
X117010191Y-45318064D02*
X116918191Y-45224430D01*
X116918191Y-45224430D02*
X116835904Y-45143508D01*
X116835904Y-45143508D02*
X116766850Y-45078572D01*
X116766850Y-45078572D02*
X116714549Y-45032891D01*
X116714549Y-45032891D02*
X116682521Y-45009738D01*
X116682521Y-45009738D02*
X116676021Y-45007517D01*
X116676021Y-45007517D02*
X116651299Y-45017825D01*
X116651299Y-45017825D02*
X116601310Y-45046310D01*
X116601310Y-45046310D02*
X116531117Y-45089812D01*
X116531117Y-45089812D02*
X116445780Y-45145172D01*
X116445780Y-45145172D02*
X116350361Y-45209229D01*
X116350361Y-45209229D02*
X116323759Y-45227446D01*
X116323759Y-45227446D02*
X116227072Y-45293822D01*
X116227072Y-45293822D02*
X116140022Y-45353371D01*
X116140022Y-45353371D02*
X116067500Y-45402765D01*
X116067500Y-45402765D02*
X116014398Y-45438674D01*
X116014398Y-45438674D02*
X115985608Y-45457768D01*
X115985608Y-45457768D02*
X115982631Y-45459613D01*
X115982631Y-45459613D02*
X115959687Y-45456854D01*
X115959687Y-45456854D02*
X115909241Y-45442211D01*
X115909241Y-45442211D02*
X115837946Y-45418236D01*
X115837946Y-45418236D02*
X115752452Y-45387483D01*
X115752452Y-45387483D02*
X115659412Y-45352505D01*
X115659412Y-45352505D02*
X115565479Y-45315856D01*
X115565479Y-45315856D02*
X115477304Y-45280088D01*
X115477304Y-45280088D02*
X115401539Y-45247755D01*
X115401539Y-45247755D02*
X115344836Y-45221411D01*
X115344836Y-45221411D02*
X115313848Y-45203607D01*
X115313848Y-45203607D02*
X115312362Y-45202342D01*
X115312362Y-45202342D02*
X115303506Y-45191455D01*
X115303506Y-45191455D02*
X115294748Y-45173067D01*
X115294748Y-45173067D02*
X115285182Y-45143143D01*
X115285182Y-45143143D02*
X115273901Y-45097646D01*
X115273901Y-45097646D02*
X115259998Y-45032540D01*
X115259998Y-45032540D02*
X115242568Y-44943788D01*
X115242568Y-44943788D02*
X115220703Y-44827356D01*
X115220703Y-44827356D02*
X115193496Y-44679207D01*
X115193496Y-44679207D02*
X115187646Y-44647131D01*
X115187646Y-44647131D02*
X115169279Y-44552063D01*
X115169279Y-44552063D02*
X115151310Y-44469184D01*
X115151310Y-44469184D02*
X115135474Y-44405819D01*
X115135474Y-44405819D02*
X115123505Y-44369291D01*
X115123505Y-44369291D02*
X115120715Y-44364393D01*
X115120715Y-44364393D02*
X115095977Y-44356322D01*
X115095977Y-44356322D02*
X115040695Y-44349762D01*
X115040695Y-44349762D02*
X114961294Y-44344716D01*
X114961294Y-44344716D02*
X114864201Y-44341190D01*
X114864201Y-44341190D02*
X114755843Y-44339188D01*
X114755843Y-44339188D02*
X114642645Y-44338713D01*
X114642645Y-44338713D02*
X114531033Y-44339772D01*
X114531033Y-44339772D02*
X114427434Y-44342367D01*
X114427434Y-44342367D02*
X114338273Y-44346503D01*
X114338273Y-44346503D02*
X114269977Y-44352186D01*
X114269977Y-44352186D02*
X114228971Y-44359418D01*
X114228971Y-44359418D02*
X114220579Y-44363778D01*
X114220579Y-44363778D02*
X114212113Y-44388051D01*
X114212113Y-44388051D02*
X114198340Y-44443323D01*
X114198340Y-44443323D02*
X114180455Y-44524087D01*
X114180455Y-44524087D02*
X114159653Y-44624837D01*
X114159653Y-44624837D02*
X114137128Y-44740066D01*
X114137128Y-44740066D02*
X114125323Y-44802847D01*
X114125323Y-44802847D02*
X114103056Y-44921962D01*
X114103056Y-44921962D02*
X114082884Y-45028184D01*
X114082884Y-45028184D02*
X114065820Y-45116322D01*
X114065820Y-45116322D02*
X114052874Y-45181183D01*
X114052874Y-45181183D02*
X114045060Y-45217575D01*
X114045060Y-45217575D02*
X114043327Y-45223565D01*
X114043327Y-45223565D02*
X114023795Y-45233688D01*
X114023795Y-45233688D02*
X113976748Y-45255087D01*
X113976748Y-45255087D02*
X113908908Y-45284910D01*
X113908908Y-45284910D02*
X113826996Y-45320304D01*
X113826996Y-45320304D02*
X113737733Y-45358417D01*
X113737733Y-45358417D02*
X113647840Y-45396396D01*
X113647840Y-45396396D02*
X113564040Y-45431389D01*
X113564040Y-45431389D02*
X113493052Y-45460543D01*
X113493052Y-45460543D02*
X113441599Y-45481006D01*
X113441599Y-45481006D02*
X113416402Y-45489926D01*
X113416402Y-45489926D02*
X113415301Y-45490092D01*
X113415301Y-45490092D02*
X113395424Y-45479980D01*
X113395424Y-45479980D02*
X113349682Y-45451632D01*
X113349682Y-45451632D02*
X113282622Y-45408026D01*
X113282622Y-45408026D02*
X113198789Y-45352143D01*
X113198789Y-45352143D02*
X113102731Y-45286962D01*
X113102731Y-45286962D02*
X113047555Y-45249070D01*
X113047555Y-45249070D02*
X112946386Y-45180024D01*
X112946386Y-45180024D02*
X112854535Y-45118699D01*
X112854535Y-45118699D02*
X112776649Y-45068086D01*
X112776649Y-45068086D02*
X112717374Y-45031178D01*
X112717374Y-45031178D02*
X112681356Y-45010967D01*
X112681356Y-45010967D02*
X112673282Y-45008048D01*
X112673282Y-45008048D02*
X112654489Y-45020596D01*
X112654489Y-45020596D02*
X112614362Y-45055286D01*
X112614362Y-45055286D02*
X112557398Y-45107686D01*
X112557398Y-45107686D02*
X112488090Y-45173365D01*
X112488090Y-45173365D02*
X112410936Y-45247893D01*
X112410936Y-45247893D02*
X112330430Y-45326836D01*
X112330430Y-45326836D02*
X112251068Y-45405766D01*
X112251068Y-45405766D02*
X112177345Y-45480249D01*
X112177345Y-45480249D02*
X112113757Y-45545855D01*
X112113757Y-45545855D02*
X112064799Y-45598153D01*
X112064799Y-45598153D02*
X112034966Y-45632710D01*
X112034966Y-45632710D02*
X112027847Y-45644271D01*
X112027847Y-45644271D02*
X112037858Y-45663095D01*
X112037858Y-45663095D02*
X112065983Y-45708118D01*
X112065983Y-45708118D02*
X112109359Y-45774962D01*
X112109359Y-45774962D02*
X112165123Y-45859250D01*
X112165123Y-45859250D02*
X112230411Y-45956605D01*
X112230411Y-45956605D02*
X112280151Y-46030042D01*
X112280151Y-46030042D02*
X112532456Y-46401082D01*
X112532456Y-46401082D02*
X112277460Y-47019654D01*
X112277460Y-47019654D02*
X111832836Y-47103474D01*
X111832836Y-47103474D02*
X111388212Y-47187295D01*
X111388212Y-47187295D02*
X111388212Y-48112743D01*
X111388212Y-48112743D02*
X111832836Y-48196563D01*
X111832836Y-48196563D02*
X111832836Y-48196563D01*
G36*
X114755843Y-44339188D02*
G01*
X114864201Y-44341190D01*
X114961294Y-44344716D01*
X115040695Y-44349762D01*
X115095977Y-44356322D01*
X115120715Y-44364393D01*
X115123505Y-44369291D01*
X115135474Y-44405819D01*
X115151310Y-44469184D01*
X115169279Y-44552063D01*
X115187646Y-44647131D01*
X115193496Y-44679207D01*
X115220703Y-44827356D01*
X115242568Y-44943788D01*
X115259998Y-45032540D01*
X115273901Y-45097646D01*
X115285182Y-45143143D01*
X115294748Y-45173067D01*
X115303506Y-45191455D01*
X115312362Y-45202342D01*
X115313848Y-45203607D01*
X115344836Y-45221411D01*
X115401539Y-45247755D01*
X115477304Y-45280088D01*
X115565479Y-45315856D01*
X115659412Y-45352505D01*
X115752452Y-45387483D01*
X115837946Y-45418236D01*
X115909241Y-45442211D01*
X115959687Y-45456854D01*
X115982631Y-45459613D01*
X115985608Y-45457768D01*
X116014398Y-45438674D01*
X116067500Y-45402765D01*
X116140022Y-45353371D01*
X116227072Y-45293822D01*
X116323759Y-45227446D01*
X116350361Y-45209229D01*
X116445780Y-45145172D01*
X116531117Y-45089812D01*
X116601310Y-45046310D01*
X116651299Y-45017825D01*
X116676021Y-45007517D01*
X116682521Y-45009738D01*
X116714549Y-45032891D01*
X116766850Y-45078572D01*
X116835904Y-45143508D01*
X116918191Y-45224430D01*
X117010191Y-45318064D01*
X117061686Y-45371584D01*
X117141888Y-45456207D01*
X117210583Y-45530274D01*
X117264157Y-45589808D01*
X117298990Y-45630832D01*
X117311468Y-45649368D01*
X117306843Y-45662103D01*
X117284962Y-45701313D01*
X117249178Y-45758254D01*
X117204022Y-45825499D01*
X117171070Y-45873311D01*
X117105632Y-45968764D01*
X117036133Y-46070624D01*
X116972980Y-46163661D01*
X116849705Y-46345917D01*
X116932425Y-46498908D01*
X116951518Y-46534932D01*
X116984177Y-46600446D01*
X117006724Y-46651109D01*
X117015131Y-46678185D01*
X117004335Y-46687046D01*
X116963228Y-46709050D01*
X116895454Y-46741550D01*
X116805314Y-46782739D01*
X116697110Y-46830807D01*
X116575142Y-46883947D01*
X116443713Y-46940350D01*
X116307123Y-46998207D01*
X116169672Y-47055711D01*
X116035663Y-47111052D01*
X115909396Y-47162423D01*
X115795173Y-47208014D01*
X115697295Y-47246017D01*
X115620062Y-47274625D01*
X115567776Y-47292028D01*
X115544738Y-47296418D01*
X115544065Y-47296121D01*
X115522768Y-47275672D01*
X115489413Y-47232899D01*
X115450916Y-47176632D01*
X115439161Y-47158872D01*
X115327640Y-47023735D01*
X115194811Y-46911893D01*
X115046203Y-46825994D01*
X114887345Y-46768687D01*
X114723765Y-46742618D01*
X114560993Y-46750436D01*
X114416220Y-46782105D01*
X114270029Y-46838967D01*
X114139608Y-46921861D01*
X114015718Y-47035618D01*
X113976140Y-47080316D01*
X113878628Y-47224814D01*
X113812955Y-47380911D01*
X113778535Y-47544082D01*
X113774779Y-47709806D01*
X113801099Y-47873557D01*
X113856908Y-48030813D01*
X113941619Y-48177051D01*
X114054642Y-48307745D01*
X114195392Y-48418375D01*
X114230247Y-48439644D01*
X114389560Y-48511939D01*
X114555457Y-48550334D01*
X114723642Y-48555835D01*
X114889818Y-48529448D01*
X115049689Y-48472179D01*
X115198958Y-48385032D01*
X115333328Y-48269013D01*
X115448504Y-48125127D01*
X115451607Y-48120455D01*
X115490838Y-48064785D01*
X115524191Y-48023060D01*
X115544738Y-48004003D01*
X115560846Y-48006407D01*
X115607749Y-48021358D01*
X115680444Y-48047868D01*
X115774630Y-48084129D01*
X115886003Y-48128333D01*
X116010263Y-48178673D01*
X116143107Y-48233342D01*
X116280232Y-48290531D01*
X116417337Y-48348433D01*
X116550120Y-48405239D01*
X116674279Y-48459143D01*
X116785511Y-48508337D01*
X116879514Y-48551012D01*
X116951987Y-48585362D01*
X116998627Y-48609578D01*
X117015131Y-48621852D01*
X117012896Y-48632060D01*
X116996831Y-48672163D01*
X116968664Y-48731431D01*
X116932425Y-48801130D01*
X116849705Y-48954120D01*
X116972980Y-49136376D01*
X117009484Y-49190222D01*
X117077689Y-49290375D01*
X117146003Y-49390224D01*
X117204022Y-49474538D01*
X117235641Y-49521070D01*
X117274925Y-49581549D01*
X117301817Y-49626392D01*
X117311788Y-49648294D01*
X117307555Y-49657704D01*
X117281626Y-49691718D01*
X117235975Y-49744154D01*
X117175091Y-49810448D01*
X117103466Y-49886036D01*
X117025588Y-49966353D01*
X116945950Y-50046836D01*
X116869040Y-50122920D01*
X116799350Y-50190042D01*
X116741369Y-50243637D01*
X116699589Y-50279141D01*
X116678498Y-50291990D01*
X116674486Y-50291249D01*
X116641825Y-50275956D01*
X116585317Y-50243287D01*
X116510068Y-50196399D01*
X116421180Y-50138448D01*
X116323759Y-50072592D01*
X116296887Y-50054122D01*
X116202328Y-49989267D01*
X116118732Y-49932140D01*
X116050989Y-49886071D01*
X116003991Y-49854390D01*
X115982631Y-49840425D01*
X115981716Y-49840081D01*
X115955583Y-49844203D01*
X115902645Y-49859942D01*
X115829552Y-49884745D01*
X115742957Y-49916060D01*
X115649513Y-49951332D01*
X115555870Y-49988009D01*
X115468682Y-50023537D01*
X115394600Y-50055363D01*
X115340276Y-50080933D01*
X115312362Y-50097696D01*
X115310629Y-50099375D01*
X115301861Y-50111377D01*
X115293020Y-50131646D01*
X115283197Y-50164220D01*
X115271488Y-50213133D01*
X115256985Y-50282422D01*
X115238781Y-50376124D01*
X115215971Y-50498273D01*
X115187646Y-50652907D01*
X115181685Y-50684979D01*
X115163257Y-50776856D01*
X115145797Y-50854142D01*
X115131038Y-50909513D01*
X115120715Y-50935644D01*
X115112102Y-50940016D01*
X115070731Y-50947304D01*
X115002146Y-50953080D01*
X114912773Y-50957339D01*
X114809040Y-50960076D01*
X114697370Y-50961287D01*
X114584192Y-50960967D01*
X114475931Y-50959113D01*
X114379013Y-50955719D01*
X114299864Y-50950782D01*
X114244911Y-50944297D01*
X114220579Y-50936260D01*
X114216984Y-50928053D01*
X114205653Y-50887230D01*
X114189627Y-50818225D01*
X114170100Y-50726546D01*
X114148267Y-50617699D01*
X114125323Y-50497191D01*
X114113064Y-50431392D01*
X114091806Y-50318614D01*
X114073192Y-50221542D01*
X114058233Y-50145367D01*
X114047941Y-50095280D01*
X114043327Y-50076473D01*
X114042376Y-50075766D01*
X114018215Y-50063788D01*
X113967599Y-50040955D01*
X113897243Y-50010119D01*
X113813863Y-49974136D01*
X113724175Y-49935858D01*
X113634894Y-49898140D01*
X113552737Y-49863836D01*
X113484418Y-49835800D01*
X113436653Y-49816885D01*
X113416159Y-49809946D01*
X113408948Y-49813007D01*
X113374633Y-49833377D01*
X113316875Y-49870327D01*
X113240204Y-49920889D01*
X113149153Y-49982092D01*
X113048255Y-50050968D01*
X112992998Y-50088755D01*
X112896120Y-50153967D01*
X112811098Y-50209878D01*
X112742567Y-50253508D01*
X112695165Y-50281872D01*
X112673528Y-50291990D01*
X112661792Y-50284959D01*
X112626723Y-50255552D01*
X112573650Y-50207308D01*
X112507069Y-50144656D01*
X112431479Y-50072024D01*
X112351377Y-49993841D01*
X112271259Y-49914535D01*
X112195623Y-49838536D01*
X112128967Y-49770271D01*
X112075787Y-49714169D01*
X112040581Y-49674659D01*
X112027847Y-49656170D01*
X112032798Y-49645906D01*
X112055762Y-49608219D01*
X112094843Y-49547401D01*
X112147177Y-49467836D01*
X112209901Y-49373906D01*
X112280151Y-49269995D01*
X112532456Y-48898955D01*
X112404958Y-48589669D01*
X112277460Y-48280384D01*
X111832836Y-48196563D01*
X111388212Y-48112743D01*
X111388212Y-47187295D01*
X111832836Y-47103474D01*
X112277460Y-47019654D01*
X112532456Y-46401082D01*
X112280151Y-46030042D01*
X112230411Y-45956605D01*
X112165123Y-45859250D01*
X112109359Y-45774962D01*
X112065983Y-45708118D01*
X112037858Y-45663095D01*
X112027847Y-45644271D01*
X112034966Y-45632710D01*
X112064799Y-45598153D01*
X112113757Y-45545855D01*
X112177345Y-45480249D01*
X112251068Y-45405766D01*
X112330430Y-45326836D01*
X112410936Y-45247893D01*
X112488090Y-45173365D01*
X112557398Y-45107686D01*
X112614362Y-45055286D01*
X112654489Y-45020596D01*
X112673282Y-45008048D01*
X112681356Y-45010967D01*
X112717374Y-45031178D01*
X112776649Y-45068086D01*
X112854535Y-45118699D01*
X112946386Y-45180024D01*
X113047555Y-45249070D01*
X113102731Y-45286962D01*
X113198789Y-45352143D01*
X113282622Y-45408026D01*
X113349682Y-45451632D01*
X113395424Y-45479980D01*
X113415301Y-45490092D01*
X113416402Y-45489926D01*
X113441599Y-45481006D01*
X113493052Y-45460543D01*
X113564040Y-45431389D01*
X113647840Y-45396396D01*
X113737733Y-45358417D01*
X113826996Y-45320304D01*
X113908908Y-45284910D01*
X113976748Y-45255087D01*
X114023795Y-45233688D01*
X114043327Y-45223565D01*
X114045060Y-45217575D01*
X114052874Y-45181183D01*
X114065820Y-45116322D01*
X114082884Y-45028184D01*
X114103056Y-44921962D01*
X114125323Y-44802847D01*
X114137128Y-44740066D01*
X114159653Y-44624837D01*
X114180455Y-44524087D01*
X114198340Y-44443323D01*
X114212113Y-44388051D01*
X114220579Y-44363778D01*
X114228971Y-44359418D01*
X114269977Y-44352186D01*
X114338273Y-44346503D01*
X114427434Y-44342367D01*
X114531033Y-44339772D01*
X114642645Y-44338713D01*
X114755843Y-44339188D01*
G37*
X114755843Y-44339188D02*
X114864201Y-44341190D01*
X114961294Y-44344716D01*
X115040695Y-44349762D01*
X115095977Y-44356322D01*
X115120715Y-44364393D01*
X115123505Y-44369291D01*
X115135474Y-44405819D01*
X115151310Y-44469184D01*
X115169279Y-44552063D01*
X115187646Y-44647131D01*
X115193496Y-44679207D01*
X115220703Y-44827356D01*
X115242568Y-44943788D01*
X115259998Y-45032540D01*
X115273901Y-45097646D01*
X115285182Y-45143143D01*
X115294748Y-45173067D01*
X115303506Y-45191455D01*
X115312362Y-45202342D01*
X115313848Y-45203607D01*
X115344836Y-45221411D01*
X115401539Y-45247755D01*
X115477304Y-45280088D01*
X115565479Y-45315856D01*
X115659412Y-45352505D01*
X115752452Y-45387483D01*
X115837946Y-45418236D01*
X115909241Y-45442211D01*
X115959687Y-45456854D01*
X115982631Y-45459613D01*
X115985608Y-45457768D01*
X116014398Y-45438674D01*
X116067500Y-45402765D01*
X116140022Y-45353371D01*
X116227072Y-45293822D01*
X116323759Y-45227446D01*
X116350361Y-45209229D01*
X116445780Y-45145172D01*
X116531117Y-45089812D01*
X116601310Y-45046310D01*
X116651299Y-45017825D01*
X116676021Y-45007517D01*
X116682521Y-45009738D01*
X116714549Y-45032891D01*
X116766850Y-45078572D01*
X116835904Y-45143508D01*
X116918191Y-45224430D01*
X117010191Y-45318064D01*
X117061686Y-45371584D01*
X117141888Y-45456207D01*
X117210583Y-45530274D01*
X117264157Y-45589808D01*
X117298990Y-45630832D01*
X117311468Y-45649368D01*
X117306843Y-45662103D01*
X117284962Y-45701313D01*
X117249178Y-45758254D01*
X117204022Y-45825499D01*
X117171070Y-45873311D01*
X117105632Y-45968764D01*
X117036133Y-46070624D01*
X116972980Y-46163661D01*
X116849705Y-46345917D01*
X116932425Y-46498908D01*
X116951518Y-46534932D01*
X116984177Y-46600446D01*
X117006724Y-46651109D01*
X117015131Y-46678185D01*
X117004335Y-46687046D01*
X116963228Y-46709050D01*
X116895454Y-46741550D01*
X116805314Y-46782739D01*
X116697110Y-46830807D01*
X116575142Y-46883947D01*
X116443713Y-46940350D01*
X116307123Y-46998207D01*
X116169672Y-47055711D01*
X116035663Y-47111052D01*
X115909396Y-47162423D01*
X115795173Y-47208014D01*
X115697295Y-47246017D01*
X115620062Y-47274625D01*
X115567776Y-47292028D01*
X115544738Y-47296418D01*
X115544065Y-47296121D01*
X115522768Y-47275672D01*
X115489413Y-47232899D01*
X115450916Y-47176632D01*
X115439161Y-47158872D01*
X115327640Y-47023735D01*
X115194811Y-46911893D01*
X115046203Y-46825994D01*
X114887345Y-46768687D01*
X114723765Y-46742618D01*
X114560993Y-46750436D01*
X114416220Y-46782105D01*
X114270029Y-46838967D01*
X114139608Y-46921861D01*
X114015718Y-47035618D01*
X113976140Y-47080316D01*
X113878628Y-47224814D01*
X113812955Y-47380911D01*
X113778535Y-47544082D01*
X113774779Y-47709806D01*
X113801099Y-47873557D01*
X113856908Y-48030813D01*
X113941619Y-48177051D01*
X114054642Y-48307745D01*
X114195392Y-48418375D01*
X114230247Y-48439644D01*
X114389560Y-48511939D01*
X114555457Y-48550334D01*
X114723642Y-48555835D01*
X114889818Y-48529448D01*
X115049689Y-48472179D01*
X115198958Y-48385032D01*
X115333328Y-48269013D01*
X115448504Y-48125127D01*
X115451607Y-48120455D01*
X115490838Y-48064785D01*
X115524191Y-48023060D01*
X115544738Y-48004003D01*
X115560846Y-48006407D01*
X115607749Y-48021358D01*
X115680444Y-48047868D01*
X115774630Y-48084129D01*
X115886003Y-48128333D01*
X116010263Y-48178673D01*
X116143107Y-48233342D01*
X116280232Y-48290531D01*
X116417337Y-48348433D01*
X116550120Y-48405239D01*
X116674279Y-48459143D01*
X116785511Y-48508337D01*
X116879514Y-48551012D01*
X116951987Y-48585362D01*
X116998627Y-48609578D01*
X117015131Y-48621852D01*
X117012896Y-48632060D01*
X116996831Y-48672163D01*
X116968664Y-48731431D01*
X116932425Y-48801130D01*
X116849705Y-48954120D01*
X116972980Y-49136376D01*
X117009484Y-49190222D01*
X117077689Y-49290375D01*
X117146003Y-49390224D01*
X117204022Y-49474538D01*
X117235641Y-49521070D01*
X117274925Y-49581549D01*
X117301817Y-49626392D01*
X117311788Y-49648294D01*
X117307555Y-49657704D01*
X117281626Y-49691718D01*
X117235975Y-49744154D01*
X117175091Y-49810448D01*
X117103466Y-49886036D01*
X117025588Y-49966353D01*
X116945950Y-50046836D01*
X116869040Y-50122920D01*
X116799350Y-50190042D01*
X116741369Y-50243637D01*
X116699589Y-50279141D01*
X116678498Y-50291990D01*
X116674486Y-50291249D01*
X116641825Y-50275956D01*
X116585317Y-50243287D01*
X116510068Y-50196399D01*
X116421180Y-50138448D01*
X116323759Y-50072592D01*
X116296887Y-50054122D01*
X116202328Y-49989267D01*
X116118732Y-49932140D01*
X116050989Y-49886071D01*
X116003991Y-49854390D01*
X115982631Y-49840425D01*
X115981716Y-49840081D01*
X115955583Y-49844203D01*
X115902645Y-49859942D01*
X115829552Y-49884745D01*
X115742957Y-49916060D01*
X115649513Y-49951332D01*
X115555870Y-49988009D01*
X115468682Y-50023537D01*
X115394600Y-50055363D01*
X115340276Y-50080933D01*
X115312362Y-50097696D01*
X115310629Y-50099375D01*
X115301861Y-50111377D01*
X115293020Y-50131646D01*
X115283197Y-50164220D01*
X115271488Y-50213133D01*
X115256985Y-50282422D01*
X115238781Y-50376124D01*
X115215971Y-50498273D01*
X115187646Y-50652907D01*
X115181685Y-50684979D01*
X115163257Y-50776856D01*
X115145797Y-50854142D01*
X115131038Y-50909513D01*
X115120715Y-50935644D01*
X115112102Y-50940016D01*
X115070731Y-50947304D01*
X115002146Y-50953080D01*
X114912773Y-50957339D01*
X114809040Y-50960076D01*
X114697370Y-50961287D01*
X114584192Y-50960967D01*
X114475931Y-50959113D01*
X114379013Y-50955719D01*
X114299864Y-50950782D01*
X114244911Y-50944297D01*
X114220579Y-50936260D01*
X114216984Y-50928053D01*
X114205653Y-50887230D01*
X114189627Y-50818225D01*
X114170100Y-50726546D01*
X114148267Y-50617699D01*
X114125323Y-50497191D01*
X114113064Y-50431392D01*
X114091806Y-50318614D01*
X114073192Y-50221542D01*
X114058233Y-50145367D01*
X114047941Y-50095280D01*
X114043327Y-50076473D01*
X114042376Y-50075766D01*
X114018215Y-50063788D01*
X113967599Y-50040955D01*
X113897243Y-50010119D01*
X113813863Y-49974136D01*
X113724175Y-49935858D01*
X113634894Y-49898140D01*
X113552737Y-49863836D01*
X113484418Y-49835800D01*
X113436653Y-49816885D01*
X113416159Y-49809946D01*
X113408948Y-49813007D01*
X113374633Y-49833377D01*
X113316875Y-49870327D01*
X113240204Y-49920889D01*
X113149153Y-49982092D01*
X113048255Y-50050968D01*
X112992998Y-50088755D01*
X112896120Y-50153967D01*
X112811098Y-50209878D01*
X112742567Y-50253508D01*
X112695165Y-50281872D01*
X112673528Y-50291990D01*
X112661792Y-50284959D01*
X112626723Y-50255552D01*
X112573650Y-50207308D01*
X112507069Y-50144656D01*
X112431479Y-50072024D01*
X112351377Y-49993841D01*
X112271259Y-49914535D01*
X112195623Y-49838536D01*
X112128967Y-49770271D01*
X112075787Y-49714169D01*
X112040581Y-49674659D01*
X112027847Y-49656170D01*
X112032798Y-49645906D01*
X112055762Y-49608219D01*
X112094843Y-49547401D01*
X112147177Y-49467836D01*
X112209901Y-49373906D01*
X112280151Y-49269995D01*
X112532456Y-48898955D01*
X112404958Y-48589669D01*
X112277460Y-48280384D01*
X111832836Y-48196563D01*
X111388212Y-48112743D01*
X111388212Y-47187295D01*
X111832836Y-47103474D01*
X112277460Y-47019654D01*
X112532456Y-46401082D01*
X112280151Y-46030042D01*
X112230411Y-45956605D01*
X112165123Y-45859250D01*
X112109359Y-45774962D01*
X112065983Y-45708118D01*
X112037858Y-45663095D01*
X112027847Y-45644271D01*
X112034966Y-45632710D01*
X112064799Y-45598153D01*
X112113757Y-45545855D01*
X112177345Y-45480249D01*
X112251068Y-45405766D01*
X112330430Y-45326836D01*
X112410936Y-45247893D01*
X112488090Y-45173365D01*
X112557398Y-45107686D01*
X112614362Y-45055286D01*
X112654489Y-45020596D01*
X112673282Y-45008048D01*
X112681356Y-45010967D01*
X112717374Y-45031178D01*
X112776649Y-45068086D01*
X112854535Y-45118699D01*
X112946386Y-45180024D01*
X113047555Y-45249070D01*
X113102731Y-45286962D01*
X113198789Y-45352143D01*
X113282622Y-45408026D01*
X113349682Y-45451632D01*
X113395424Y-45479980D01*
X113415301Y-45490092D01*
X113416402Y-45489926D01*
X113441599Y-45481006D01*
X113493052Y-45460543D01*
X113564040Y-45431389D01*
X113647840Y-45396396D01*
X113737733Y-45358417D01*
X113826996Y-45320304D01*
X113908908Y-45284910D01*
X113976748Y-45255087D01*
X114023795Y-45233688D01*
X114043327Y-45223565D01*
X114045060Y-45217575D01*
X114052874Y-45181183D01*
X114065820Y-45116322D01*
X114082884Y-45028184D01*
X114103056Y-44921962D01*
X114125323Y-44802847D01*
X114137128Y-44740066D01*
X114159653Y-44624837D01*
X114180455Y-44524087D01*
X114198340Y-44443323D01*
X114212113Y-44388051D01*
X114220579Y-44363778D01*
X114228971Y-44359418D01*
X114269977Y-44352186D01*
X114338273Y-44346503D01*
X114427434Y-44342367D01*
X114531033Y-44339772D01*
X114642645Y-44338713D01*
X114755843Y-44339188D01*
G04 #@! TO.C,G\u002A\u002A\u002A*
G36*
X99936572Y-74754518D02*
G01*
X99933620Y-74781010D01*
X99916189Y-74796130D01*
X99873612Y-74799490D01*
X99831852Y-74802348D01*
X99814132Y-74817298D01*
X99810651Y-74853747D01*
X99812909Y-74880575D01*
X99830488Y-74911708D01*
X99873612Y-74938028D01*
X99908648Y-74957517D01*
X99931240Y-74985282D01*
X99936572Y-75028742D01*
X99936520Y-75041064D01*
X99933686Y-75069560D01*
X99921608Y-75077117D01*
X99893568Y-75063800D01*
X99842847Y-75029678D01*
X99838904Y-75026952D01*
X99805966Y-75007114D01*
X99784313Y-75008815D01*
X99757401Y-75032627D01*
X99741884Y-75044857D01*
X99685057Y-75065656D01*
X99618474Y-75068248D01*
X99558415Y-75051120D01*
X99537684Y-75032586D01*
X99510890Y-74978453D01*
X99493323Y-74899977D01*
X99486956Y-74803987D01*
X99486951Y-74799490D01*
X99574730Y-74799490D01*
X99580262Y-74874110D01*
X99584894Y-74907142D01*
X99605869Y-74957197D01*
X99638941Y-74978855D01*
X99680234Y-74968458D01*
X99704591Y-74934957D01*
X99717245Y-74874110D01*
X99722777Y-74799490D01*
X99574730Y-74799490D01*
X99486951Y-74799490D01*
X99486855Y-74709547D01*
X99936572Y-74709547D01*
X99936572Y-74754518D01*
G37*
G36*
X100201731Y-68561919D02*
G01*
X100196343Y-72883697D01*
X100156219Y-73058169D01*
X100136960Y-73137575D01*
X100052541Y-73412290D01*
X99945021Y-73662642D01*
X99811985Y-73892974D01*
X99651020Y-74107627D01*
X99459711Y-74310945D01*
X99375484Y-74388633D01*
X99145004Y-74570473D01*
X98902421Y-74718532D01*
X98646937Y-74833132D01*
X98377755Y-74914592D01*
X98094078Y-74963234D01*
X97795107Y-74979377D01*
X97720529Y-74978457D01*
X97449265Y-74957617D01*
X97193077Y-74907999D01*
X96944694Y-74827854D01*
X96696844Y-74715436D01*
X96630032Y-74679640D01*
X96382823Y-74522339D01*
X96159857Y-74339046D01*
X95962204Y-74131155D01*
X95790934Y-73900066D01*
X95647117Y-73647174D01*
X95531820Y-73373877D01*
X95456664Y-73117549D01*
X96419787Y-73117549D01*
X96793052Y-73122411D01*
X97166317Y-73127274D01*
X97166712Y-72987496D01*
X97170101Y-72908770D01*
X97189958Y-72805300D01*
X97231324Y-72715684D01*
X97298467Y-72628290D01*
X97396032Y-72545694D01*
X97515931Y-72484906D01*
X97651338Y-72446483D01*
X97795749Y-72430624D01*
X97942662Y-72437525D01*
X98085572Y-72467386D01*
X98217975Y-72520404D01*
X98333369Y-72596777D01*
X98388477Y-72650643D01*
X98444781Y-72736215D01*
X98479018Y-72839682D01*
X98494311Y-72968253D01*
X98501914Y-73127274D01*
X98863967Y-73122412D01*
X99226020Y-73117549D01*
X99228624Y-72946657D01*
X99228557Y-72863048D01*
X99216662Y-72685552D01*
X99186123Y-72523930D01*
X99134233Y-72366319D01*
X99058283Y-72200858D01*
X98985520Y-72077195D01*
X98858020Y-71918653D01*
X98705769Y-71785691D01*
X98530514Y-71680030D01*
X98474221Y-71652913D01*
X98374116Y-71608956D01*
X98283263Y-71577199D01*
X98192639Y-71555763D01*
X98093220Y-71542769D01*
X97975981Y-71536340D01*
X97831898Y-71534596D01*
X97682455Y-71537049D01*
X97550416Y-71546304D01*
X97435900Y-71564380D01*
X97329595Y-71593287D01*
X97222190Y-71635034D01*
X97104375Y-71691631D01*
X97053243Y-71720029D01*
X96912010Y-71820091D01*
X96779636Y-71943898D01*
X96664901Y-72082540D01*
X96576585Y-72227110D01*
X96560902Y-72259190D01*
X96498132Y-72408904D01*
X96456023Y-72556385D01*
X96431797Y-72713644D01*
X96422677Y-72892691D01*
X96419787Y-73117549D01*
X95456664Y-73117549D01*
X95446115Y-73081572D01*
X95443355Y-73069195D01*
X95440266Y-73053094D01*
X95437390Y-73034360D01*
X95434719Y-73011757D01*
X95432245Y-72984049D01*
X95429961Y-72950003D01*
X95427860Y-72908382D01*
X95425933Y-72857953D01*
X95424173Y-72797480D01*
X95422572Y-72725729D01*
X95421124Y-72641464D01*
X95419819Y-72543450D01*
X95418652Y-72430453D01*
X95417614Y-72301237D01*
X95416698Y-72154568D01*
X95415896Y-71989211D01*
X95415201Y-71803931D01*
X95414605Y-71597492D01*
X95414100Y-71368660D01*
X95414062Y-71345666D01*
X96446770Y-71345666D01*
X99199037Y-71345666D01*
X99199037Y-70446232D01*
X96446770Y-70446232D01*
X96446770Y-71345666D01*
X95414062Y-71345666D01*
X95413679Y-71116201D01*
X95413335Y-70838878D01*
X95413059Y-70535458D01*
X95412885Y-70266345D01*
X96446770Y-70266345D01*
X99199037Y-70266345D01*
X99199037Y-69366912D01*
X96446770Y-69366912D01*
X96446770Y-70266345D01*
X95412885Y-70266345D01*
X95412845Y-70204704D01*
X95412684Y-69845383D01*
X95412570Y-69456260D01*
X95412494Y-69036098D01*
X95412449Y-68583664D01*
X95412427Y-68097723D01*
X95412422Y-67577039D01*
X95412422Y-66401152D01*
X96446136Y-66401152D01*
X96450951Y-66835137D01*
X96455765Y-67269121D01*
X96752578Y-67355411D01*
X96805254Y-67370725D01*
X97066056Y-67446570D01*
X97294711Y-67513144D01*
X97493240Y-67571087D01*
X97663668Y-67621039D01*
X97808017Y-67663641D01*
X97928310Y-67699532D01*
X98026571Y-67729353D01*
X98104822Y-67753744D01*
X98165086Y-67773343D01*
X98209388Y-67788793D01*
X98239749Y-67800732D01*
X98258193Y-67809800D01*
X98266742Y-67816639D01*
X98267421Y-67821887D01*
X98262252Y-67826184D01*
X98253258Y-67830172D01*
X98250011Y-67831366D01*
X98215484Y-67842543D01*
X98150724Y-67862532D01*
X98059240Y-67890282D01*
X97944539Y-67924741D01*
X97810128Y-67964860D01*
X97659516Y-68009588D01*
X97496210Y-68057872D01*
X97323718Y-68108663D01*
X96446770Y-68366360D01*
X96446770Y-68803676D01*
X96447016Y-68893040D01*
X96448088Y-69005278D01*
X96449892Y-69101076D01*
X96452297Y-69175550D01*
X96455175Y-69223817D01*
X96458395Y-69240991D01*
X96462330Y-69239841D01*
X96494483Y-69228728D01*
X96556771Y-69206558D01*
X96646647Y-69174255D01*
X96761567Y-69132741D01*
X96898987Y-69082940D01*
X97056363Y-69025774D01*
X97231150Y-68962165D01*
X97420802Y-68893037D01*
X97622777Y-68819313D01*
X97834528Y-68741915D01*
X99199037Y-68242840D01*
X99199015Y-67793013D01*
X99198994Y-67343187D01*
X98353276Y-67083523D01*
X98326338Y-67075244D01*
X98161504Y-67024219D01*
X98008580Y-66976267D01*
X97870783Y-66932439D01*
X97751330Y-66893785D01*
X97653440Y-66861355D01*
X97580330Y-66836200D01*
X97535218Y-66819371D01*
X97521321Y-66811918D01*
X97521591Y-66811728D01*
X97543244Y-66803493D01*
X97595669Y-66785825D01*
X97675486Y-66759801D01*
X97779312Y-66726501D01*
X97903764Y-66687003D01*
X98045461Y-66642388D01*
X98201021Y-66593732D01*
X98367061Y-66542116D01*
X99199037Y-66284256D01*
X99198417Y-65382422D01*
X96455765Y-64387538D01*
X96450952Y-64838752D01*
X96450434Y-64893670D01*
X96449952Y-65040684D01*
X96451206Y-65153625D01*
X96454241Y-65233907D01*
X96459102Y-65282941D01*
X96465835Y-65302138D01*
X96470137Y-65303902D01*
X96503663Y-65314965D01*
X96567117Y-65334752D01*
X96657217Y-65362275D01*
X96770683Y-65396545D01*
X96904232Y-65436574D01*
X97054582Y-65481373D01*
X97218452Y-65529954D01*
X97392560Y-65581327D01*
X97468637Y-65603778D01*
X97636989Y-65653865D01*
X97792693Y-65700743D01*
X97932621Y-65743435D01*
X98053643Y-65780967D01*
X98152630Y-65812363D01*
X98226456Y-65836646D01*
X98271990Y-65852843D01*
X98286105Y-65859975D01*
X98275569Y-65864161D01*
X98233604Y-65877771D01*
X98163138Y-65899441D01*
X98067737Y-65928109D01*
X97950968Y-65962715D01*
X97816394Y-66002196D01*
X97667584Y-66045492D01*
X97508102Y-66091542D01*
X97415374Y-66118232D01*
X97252180Y-66165276D01*
X97096906Y-66210123D01*
X96953996Y-66251484D01*
X96827892Y-66288073D01*
X96723040Y-66318599D01*
X96643881Y-66341776D01*
X96594860Y-66356314D01*
X96446136Y-66401152D01*
X95412422Y-66401152D01*
X95412422Y-62216416D01*
X95461648Y-62022607D01*
X95494053Y-61905484D01*
X95593199Y-61631962D01*
X95720579Y-61379354D01*
X95877690Y-61144947D01*
X96066028Y-60926024D01*
X96272915Y-60732769D01*
X96506243Y-60560061D01*
X96754980Y-60419758D01*
X97019742Y-60311566D01*
X97301142Y-60235191D01*
X97599797Y-60190336D01*
X97865480Y-60182238D01*
X98139180Y-60206990D01*
X98414605Y-60263876D01*
X98686360Y-60352092D01*
X98802616Y-60400858D01*
X99049688Y-60531864D01*
X99278368Y-60691410D01*
X99486629Y-60876770D01*
X99672442Y-61085216D01*
X99833778Y-61314022D01*
X99968610Y-61560462D01*
X100074907Y-61821808D01*
X100150643Y-62095334D01*
X100193788Y-62378314D01*
X100194997Y-62397922D01*
X100197000Y-62455205D01*
X100198954Y-62538730D01*
X100200744Y-62642470D01*
X100202256Y-62760400D01*
X100203378Y-62886494D01*
X100206402Y-63322719D01*
X98860996Y-63322719D01*
X98965242Y-63216183D01*
X98986709Y-63193505D01*
X99094684Y-63049381D01*
X99172353Y-62886437D01*
X99219276Y-62705824D01*
X99235014Y-62508691D01*
X99223710Y-62322001D01*
X99180946Y-62115734D01*
X99105407Y-61919603D01*
X99015057Y-61766890D01*
X98890187Y-61619960D01*
X98740127Y-61493414D01*
X98569433Y-61391740D01*
X98484536Y-61352045D01*
X98373776Y-61307973D01*
X98264066Y-61275544D01*
X98143071Y-61251302D01*
X97998456Y-61231792D01*
X97845652Y-61221874D01*
X97641884Y-61229350D01*
X97440799Y-61258400D01*
X97252070Y-61307505D01*
X97085368Y-61375147D01*
X96915842Y-61476487D01*
X96758157Y-61609155D01*
X96627568Y-61764605D01*
X96525490Y-61941130D01*
X96453341Y-62137025D01*
X96452619Y-62139661D01*
X96432827Y-62242801D01*
X96421847Y-62365830D01*
X96419527Y-62497758D01*
X96425715Y-62627593D01*
X96440260Y-62744346D01*
X96463009Y-62837025D01*
X96500784Y-62932297D01*
X96588091Y-63087892D01*
X96704256Y-63228279D01*
X96796321Y-63322719D01*
X96446770Y-63322719D01*
X96446770Y-64240141D01*
X100207118Y-64240141D01*
X100201731Y-68561919D01*
G37*
G36*
X99927203Y-74472624D02*
G01*
X100026307Y-74536996D01*
X100108262Y-74625747D01*
X100167360Y-74736530D01*
X100173071Y-74754994D01*
X100182364Y-74830588D01*
X100178849Y-74919657D01*
X100163781Y-75007357D01*
X100138414Y-75078843D01*
X100065185Y-75186288D01*
X99971350Y-75264940D01*
X99858962Y-75313040D01*
X99729702Y-75329559D01*
X99692558Y-75329199D01*
X99625641Y-75323440D01*
X99570170Y-75307587D01*
X99509263Y-75277664D01*
X99470227Y-75253492D01*
X99411121Y-75208133D01*
X99368617Y-75164938D01*
X99321156Y-75088794D01*
X99282035Y-74974392D01*
X99274121Y-74856908D01*
X99274695Y-74853906D01*
X99382927Y-74853906D01*
X99389934Y-74957019D01*
X99428424Y-75055940D01*
X99498699Y-75144627D01*
X99546249Y-75181916D01*
X99637743Y-75222109D01*
X99735169Y-75232731D01*
X99831948Y-75215365D01*
X99921504Y-75171597D01*
X99997261Y-75103010D01*
X100052640Y-75011189D01*
X100056997Y-75000229D01*
X100078276Y-74895914D01*
X100066221Y-74791253D01*
X100022498Y-74692734D01*
X99948775Y-74606845D01*
X99906014Y-74575792D01*
X99812984Y-74538496D01*
X99712110Y-74529284D01*
X99613181Y-74548403D01*
X99525986Y-74596102D01*
X99462165Y-74659272D01*
X99407105Y-74752643D01*
X99382927Y-74853906D01*
X99274695Y-74853906D01*
X99296067Y-74742196D01*
X99346528Y-74636113D01*
X99424157Y-74544515D01*
X99527608Y-74473257D01*
X99584065Y-74449272D01*
X99700375Y-74426413D01*
X99712110Y-74427278D01*
X99816657Y-74434980D01*
X99927203Y-74472624D01*
G37*
G36*
X97979681Y-62147409D02*
G01*
X98134701Y-62183378D01*
X98266009Y-62245573D01*
X98372830Y-62333434D01*
X98454387Y-62446401D01*
X98509905Y-62583913D01*
X98515349Y-62606741D01*
X98525359Y-62683314D01*
X98525897Y-62757632D01*
X98517815Y-62826579D01*
X98482203Y-62959670D01*
X98420060Y-63070433D01*
X98328951Y-63162546D01*
X98206437Y-63239685D01*
X98167094Y-63259346D01*
X98105155Y-63286586D01*
X98049121Y-63303135D01*
X97985031Y-63312571D01*
X97898925Y-63318470D01*
X97801375Y-63320333D01*
X97643048Y-63305442D01*
X97507017Y-63265874D01*
X97389687Y-63200388D01*
X97287461Y-63107746D01*
X97264297Y-63080662D01*
X97197742Y-62977004D01*
X97160150Y-62862710D01*
X97148329Y-62729093D01*
X97148784Y-62700644D01*
X97165921Y-62569730D01*
X97209804Y-62457094D01*
X97283130Y-62355257D01*
X97328953Y-62308698D01*
X97441595Y-62225745D01*
X97571295Y-62170614D01*
X97721130Y-62142217D01*
X97894177Y-62139468D01*
X97979681Y-62147409D01*
G37*
G36*
X116069454Y-86437721D02*
G01*
X113783454Y-86437721D01*
X113783454Y-86056721D01*
X116069454Y-86056721D01*
X116069454Y-86437721D01*
G37*
G36*
X116069454Y-64128055D02*
G01*
X115275704Y-64128213D01*
X115092299Y-64128515D01*
X114854752Y-64130642D01*
X114680296Y-64135832D01*
X114555585Y-64145275D01*
X114467268Y-64160158D01*
X114401998Y-64181673D01*
X114346426Y-64211007D01*
X114214728Y-64321639D01*
X114116638Y-64489494D01*
X114087744Y-64676807D01*
X114130336Y-64864692D01*
X114246699Y-65034268D01*
X114377555Y-65165221D01*
X115223505Y-65178272D01*
X116069454Y-65191323D01*
X116069454Y-65576222D01*
X115233371Y-65557974D01*
X114979989Y-65550611D01*
X114725298Y-65538991D01*
X114515386Y-65524725D01*
X114363550Y-65508735D01*
X114283084Y-65491946D01*
X114274578Y-65488281D01*
X114126757Y-65397928D01*
X113978014Y-65267075D01*
X113854051Y-65121539D01*
X113780566Y-64987137D01*
X113769056Y-64949077D01*
X113736116Y-64722729D01*
X113755270Y-64498986D01*
X113824335Y-64311509D01*
X113872537Y-64228158D01*
X113903725Y-64160289D01*
X113894442Y-64133049D01*
X113846954Y-64128055D01*
X113828698Y-64124981D01*
X113793940Y-64076464D01*
X113783454Y-63958721D01*
X113783454Y-63789388D01*
X116069454Y-63789388D01*
X116069454Y-64128055D01*
G37*
G36*
X114802128Y-61292217D02*
G01*
X115066689Y-61295657D01*
X115265983Y-61303069D01*
X115412184Y-61315264D01*
X115517461Y-61333051D01*
X115593986Y-61357242D01*
X115704991Y-61411607D01*
X115894956Y-61564515D01*
X116031776Y-61778555D01*
X116091208Y-61963242D01*
X116107190Y-62208491D01*
X116062471Y-62448791D01*
X115961688Y-62662272D01*
X115809479Y-62827062D01*
X115741612Y-62874167D01*
X115635510Y-62929517D01*
X115510251Y-62970142D01*
X115352755Y-62998131D01*
X115149940Y-63015570D01*
X114888728Y-63024547D01*
X114556038Y-63027152D01*
X113783454Y-63027388D01*
X113783454Y-62646388D01*
X114589890Y-62646388D01*
X114723976Y-62646168D01*
X115009892Y-62642837D01*
X115227250Y-62633573D01*
X115387577Y-62615920D01*
X115502399Y-62587424D01*
X115583243Y-62545630D01*
X115641637Y-62488085D01*
X115689108Y-62412333D01*
X115712873Y-62357984D01*
X115743745Y-62181834D01*
X115724759Y-61999077D01*
X115658062Y-61848697D01*
X115609026Y-61791595D01*
X115533556Y-61734600D01*
X115432356Y-61692832D01*
X115293656Y-61664028D01*
X115105688Y-61645926D01*
X114856683Y-61636263D01*
X114534871Y-61632777D01*
X113783454Y-61630388D01*
X113783454Y-61291721D01*
X114610314Y-61291721D01*
X114802128Y-61292217D01*
G37*
G36*
X115877783Y-84756894D02*
G01*
X116013809Y-84836434D01*
X116094061Y-84949712D01*
X116112706Y-85088005D01*
X116057921Y-85218232D01*
X115932977Y-85320789D01*
X115902064Y-85334863D01*
X115752917Y-85354745D01*
X115619246Y-85301839D01*
X115524612Y-85184035D01*
X115483973Y-85068434D01*
X115493489Y-84968023D01*
X115564527Y-84855930D01*
X115603139Y-84815088D01*
X115733004Y-84750121D01*
X115877783Y-84756894D01*
G37*
G36*
X115407793Y-74035845D02*
G01*
X115577986Y-74135632D01*
X115814858Y-74342863D01*
X115983894Y-74588818D01*
X116081955Y-74862979D01*
X116105906Y-75154828D01*
X116052608Y-75453846D01*
X115918925Y-75749514D01*
X115772072Y-75993388D01*
X116123889Y-75971439D01*
X116361145Y-75943333D01*
X116635414Y-75861903D01*
X116844760Y-75729446D01*
X116992256Y-75543815D01*
X117080978Y-75302863D01*
X117100630Y-75174107D01*
X117080568Y-74921710D01*
X116979990Y-74690756D01*
X116800547Y-74484311D01*
X116543890Y-74305438D01*
X116542877Y-74300696D01*
X116560568Y-74245020D01*
X116602899Y-74148795D01*
X116632038Y-74092322D01*
X116680817Y-74035071D01*
X116743382Y-74028033D01*
X116837170Y-74072107D01*
X116979621Y-74168189D01*
X117063688Y-74234326D01*
X117264807Y-74462643D01*
X117405613Y-74741766D01*
X117406636Y-74744648D01*
X117463880Y-75030276D01*
X117443072Y-75328794D01*
X117345363Y-75623375D01*
X117335971Y-75642919D01*
X117196917Y-75869531D01*
X117016420Y-76049791D01*
X116772885Y-76205661D01*
X116742365Y-76221517D01*
X116691637Y-76243858D01*
X116632839Y-76261620D01*
X116556396Y-76275444D01*
X116452734Y-76285970D01*
X116312279Y-76293841D01*
X116125456Y-76299698D01*
X115882691Y-76304180D01*
X115574409Y-76307930D01*
X115191038Y-76311589D01*
X113783454Y-76324291D01*
X113783454Y-76131673D01*
X113784310Y-76051863D01*
X113796298Y-75973932D01*
X113835243Y-75943959D01*
X113917015Y-75939055D01*
X114001785Y-75935655D01*
X114022012Y-75915343D01*
X113982132Y-75863424D01*
X113922912Y-75785533D01*
X113823252Y-75585403D01*
X113755520Y-75350657D01*
X113742461Y-75226712D01*
X114093930Y-75226712D01*
X114132984Y-75400979D01*
X114248411Y-75623026D01*
X114422571Y-75795099D01*
X114643921Y-75906882D01*
X114900920Y-75948060D01*
X115061937Y-75936532D01*
X115306269Y-75858335D01*
X115506636Y-75709707D01*
X115656525Y-75494555D01*
X115711736Y-75354399D01*
X115746733Y-75109466D01*
X115711065Y-74873805D01*
X115612123Y-74661096D01*
X115457302Y-74485018D01*
X115253994Y-74359251D01*
X115009591Y-74297474D01*
X114747946Y-74309716D01*
X114514474Y-74392999D01*
X114321889Y-74536942D01*
X114180639Y-74730943D01*
X114101170Y-74964401D01*
X114093930Y-75226712D01*
X113742461Y-75226712D01*
X113730538Y-75113555D01*
X113740470Y-74961085D01*
X113817901Y-74667552D01*
X113964559Y-74405492D01*
X114171403Y-74188898D01*
X114429391Y-74031765D01*
X114595518Y-73974504D01*
X114877952Y-73933538D01*
X115009591Y-73943165D01*
X115158073Y-73954024D01*
X115407793Y-74035845D01*
G37*
G36*
X116069454Y-72671010D02*
G01*
X115336045Y-72685782D01*
X115073360Y-72691537D01*
X114875905Y-72698102D01*
X114734104Y-72707452D01*
X114633335Y-72721660D01*
X114558976Y-72742801D01*
X114496408Y-72772949D01*
X114431007Y-72814178D01*
X114380784Y-72851112D01*
X114223446Y-73026378D01*
X114118173Y-73243958D01*
X114079788Y-73475920D01*
X114079788Y-73653055D01*
X113915392Y-73653055D01*
X113831390Y-73649075D01*
X113759478Y-73622389D01*
X113726421Y-73559081D01*
X113716104Y-73490551D01*
X113721484Y-73368581D01*
X113736493Y-73295055D01*
X113762277Y-73169478D01*
X113782165Y-73114352D01*
X113845165Y-72998856D01*
X113931330Y-72873145D01*
X114079228Y-72679388D01*
X113931341Y-72679388D01*
X113887832Y-72679010D01*
X113815632Y-72666656D01*
X113787946Y-72618474D01*
X113783454Y-72510055D01*
X113783454Y-72340721D01*
X116069454Y-72340721D01*
X116069454Y-72671010D01*
G37*
G36*
X115234679Y-66253199D02*
G01*
X115434454Y-66322598D01*
X115537046Y-66380107D01*
X115755996Y-66546834D01*
X115922863Y-66755983D01*
X116055552Y-67027888D01*
X116101554Y-67236424D01*
X116099453Y-67481047D01*
X116053706Y-67731269D01*
X115969551Y-67958581D01*
X115852226Y-68134475D01*
X115758362Y-68234388D01*
X116069454Y-68234388D01*
X116069454Y-68615388D01*
X111836121Y-68615388D01*
X111836121Y-68234388D01*
X114033957Y-68234388D01*
X113909335Y-68033305D01*
X113820666Y-67861563D01*
X113740142Y-67570919D01*
X113735298Y-67291289D01*
X114087637Y-67291289D01*
X114088031Y-67517201D01*
X114155699Y-67743907D01*
X114297908Y-67960104D01*
X114416022Y-68070114D01*
X114626799Y-68183505D01*
X114856940Y-68228561D01*
X115091013Y-68207447D01*
X115313585Y-68122325D01*
X115509221Y-67975362D01*
X115662488Y-67768721D01*
X115739824Y-67542408D01*
X115743913Y-67306447D01*
X115681763Y-67077906D01*
X115560512Y-66873621D01*
X115387294Y-66710423D01*
X115169246Y-66605148D01*
X115091021Y-66585371D01*
X114840397Y-66569188D01*
X114613440Y-66621608D01*
X114417418Y-66731330D01*
X114259598Y-66887052D01*
X114147248Y-67077472D01*
X114087637Y-67291289D01*
X113735298Y-67291289D01*
X113735045Y-67276706D01*
X113801792Y-66991526D01*
X113936803Y-66727982D01*
X114136495Y-66498678D01*
X114397288Y-66316217D01*
X114519081Y-66267585D01*
X114745226Y-66225497D01*
X114840397Y-66223690D01*
X114994348Y-66220767D01*
X115234679Y-66253199D01*
G37*
G36*
X115130235Y-69304244D02*
G01*
X115414901Y-69392865D01*
X115582233Y-69494252D01*
X115775324Y-69665503D01*
X115937013Y-69865813D01*
X116042465Y-70068447D01*
X116054723Y-70104937D01*
X116108667Y-70408197D01*
X116083343Y-70712221D01*
X115981809Y-71001530D01*
X115807119Y-71260643D01*
X115760171Y-71310292D01*
X115634171Y-71422097D01*
X115498009Y-71521895D01*
X115374879Y-71593581D01*
X115287974Y-71621055D01*
X115282302Y-71615537D01*
X115270018Y-71553666D01*
X115265121Y-71445199D01*
X115265682Y-71407983D01*
X115281484Y-71305048D01*
X115332239Y-71221291D01*
X115435564Y-71123450D01*
X115487651Y-71076906D01*
X115638053Y-70900718D01*
X115719792Y-70709176D01*
X115744461Y-70478055D01*
X115724806Y-70270495D01*
X115643929Y-70062685D01*
X115491150Y-69877050D01*
X115386119Y-69795920D01*
X115248402Y-69715385D01*
X115113264Y-69655105D01*
X115012481Y-69631388D01*
X114997407Y-69669603D01*
X114984954Y-69791312D01*
X114976003Y-69995551D01*
X114970599Y-70281263D01*
X114968788Y-70647388D01*
X114968788Y-71663388D01*
X114806216Y-71663388D01*
X114789440Y-71663150D01*
X114561572Y-71619135D01*
X114329994Y-71508632D01*
X114113243Y-71345392D01*
X113929854Y-71143166D01*
X113798363Y-70915705D01*
X113782470Y-70872692D01*
X113742462Y-70675657D01*
X113731775Y-70446468D01*
X113738950Y-70360155D01*
X114091028Y-70360155D01*
X114094026Y-70616644D01*
X114178191Y-70862979D01*
X114192657Y-70888670D01*
X114283347Y-71011841D01*
X114395455Y-71125044D01*
X114506511Y-71207906D01*
X114594048Y-71240055D01*
X114604803Y-71205259D01*
X114614931Y-71098431D01*
X114622948Y-70932715D01*
X114628222Y-70721470D01*
X114630121Y-70478055D01*
X114628763Y-70215629D01*
X114623612Y-69987671D01*
X114614235Y-69832598D01*
X114600232Y-69744146D01*
X114581200Y-69716055D01*
X114565695Y-69717555D01*
X114470253Y-69763156D01*
X114357992Y-69857273D01*
X114250356Y-69979459D01*
X114168788Y-70109269D01*
X114091028Y-70360155D01*
X113738950Y-70360155D01*
X113750409Y-70222319D01*
X113798363Y-70040404D01*
X113870756Y-69896581D01*
X114054757Y-69658501D01*
X114286520Y-69474693D01*
X114552230Y-69350692D01*
X114581200Y-69344747D01*
X114838073Y-69292031D01*
X115130235Y-69304244D01*
G37*
G36*
X114793600Y-87442801D02*
G01*
X114905288Y-87369055D01*
X114955609Y-87325897D01*
X115072688Y-87288312D01*
X115186735Y-87313257D01*
X115273180Y-87391814D01*
X115307454Y-87515061D01*
X115307484Y-87519354D01*
X115341867Y-87633695D01*
X115438053Y-87692601D01*
X115591621Y-87693295D01*
X115631567Y-87688562D01*
X115776711Y-87708876D01*
X115869458Y-87785041D01*
X115899442Y-87903119D01*
X115856298Y-88049171D01*
X115843571Y-88085006D01*
X115845870Y-88180509D01*
X115882490Y-88264380D01*
X115941188Y-88300388D01*
X115993997Y-88310856D01*
X116087865Y-88341673D01*
X116099230Y-88346453D01*
X116178622Y-88422126D01*
X116203780Y-88531890D01*
X116174511Y-88647571D01*
X116090621Y-88740995D01*
X116066928Y-88757691D01*
X115997869Y-88844375D01*
X116004879Y-88948018D01*
X116087875Y-89078897D01*
X116135642Y-89143275D01*
X116165126Y-89226192D01*
X116146137Y-89321093D01*
X116131792Y-89356421D01*
X116067335Y-89430740D01*
X115949322Y-89469440D01*
X115869887Y-89487404D01*
X115779719Y-89534644D01*
X115746263Y-89619032D01*
X115755398Y-89761864D01*
X115763442Y-89839463D01*
X115750726Y-89936225D01*
X115695856Y-90008189D01*
X115693833Y-90010014D01*
X115629101Y-90054748D01*
X115556159Y-90061178D01*
X115439834Y-90032665D01*
X115381991Y-90017375D01*
X115252896Y-90011374D01*
X115169815Y-90068418D01*
X115117751Y-90196117D01*
X115057176Y-90316518D01*
X114958120Y-90373279D01*
X114838443Y-90358404D01*
X114714788Y-90268888D01*
X114678376Y-90232381D01*
X114586373Y-90173697D01*
X114491328Y-90181321D01*
X114367100Y-90254145D01*
X114271199Y-90306565D01*
X114145654Y-90316424D01*
X114045297Y-90246717D01*
X113975471Y-90099555D01*
X113927209Y-89930221D01*
X113717356Y-89935285D01*
X113583660Y-89931420D01*
X113497184Y-89904269D01*
X113434693Y-89843824D01*
X113413959Y-89814274D01*
X113383867Y-89727448D01*
X113406809Y-89618426D01*
X113419974Y-89577747D01*
X113437660Y-89444680D01*
X113391617Y-89355767D01*
X113275454Y-89295288D01*
X113170133Y-89242128D01*
X113087330Y-89132690D01*
X113084591Y-89124786D01*
X113071056Y-89046798D01*
X113099909Y-88975414D01*
X113182580Y-88880356D01*
X113221926Y-88838110D01*
X113246105Y-88808388D01*
X113900685Y-88808388D01*
X113933865Y-89030607D01*
X114040797Y-89243593D01*
X114212904Y-89413538D01*
X114441305Y-89528610D01*
X114557921Y-89554275D01*
X114777538Y-89542851D01*
X114987985Y-89463412D01*
X115169501Y-89324956D01*
X115302326Y-89136482D01*
X115377934Y-88913715D01*
X115377190Y-88695443D01*
X115296871Y-88468450D01*
X115205344Y-88326034D01*
X115031523Y-88169148D01*
X114825457Y-88079400D01*
X114602251Y-88059797D01*
X114377011Y-88113348D01*
X114164841Y-88243058D01*
X114049312Y-88360520D01*
X113937316Y-88565883D01*
X113900685Y-88808388D01*
X113246105Y-88808388D01*
X113290606Y-88753685D01*
X113317788Y-88702856D01*
X113316485Y-88695664D01*
X113279588Y-88634258D01*
X113207741Y-88549990D01*
X113164305Y-88500783D01*
X113119472Y-88410975D01*
X113126143Y-88305599D01*
X113146650Y-88238527D01*
X113201035Y-88179860D01*
X113310273Y-88148848D01*
X113376422Y-88134651D01*
X113491187Y-88079808D01*
X113538556Y-87985358D01*
X113529595Y-87835489D01*
X113515978Y-87722161D01*
X113536277Y-87654824D01*
X113601167Y-87600399D01*
X113635012Y-87580073D01*
X113726737Y-87555086D01*
X113842835Y-87579362D01*
X113848544Y-87581224D01*
X113994205Y-87606373D01*
X114089454Y-87567581D01*
X114142870Y-87461478D01*
X114184025Y-87346312D01*
X114260755Y-87265669D01*
X114380328Y-87242055D01*
X114471125Y-87259399D01*
X114570514Y-87347888D01*
X114577297Y-87357797D01*
X114602251Y-87377963D01*
X114677296Y-87438608D01*
X114793600Y-87442801D01*
G37*
G36*
X116069454Y-83516721D02*
G01*
X115381538Y-83517651D01*
X115326771Y-83517809D01*
X115023239Y-83523343D01*
X114788966Y-83538741D01*
X114610851Y-83566840D01*
X114475798Y-83610475D01*
X114370709Y-83672486D01*
X114282485Y-83755708D01*
X114278043Y-83760793D01*
X114179221Y-83918415D01*
X114107476Y-84112818D01*
X114079788Y-84298528D01*
X114079519Y-84337340D01*
X114068090Y-84413809D01*
X114021489Y-84443233D01*
X113914983Y-84448055D01*
X113819901Y-84441248D01*
X113742774Y-84402490D01*
X113715629Y-84315518D01*
X113728191Y-84164746D01*
X113731655Y-84143697D01*
X113821218Y-83869857D01*
X113986707Y-83633138D01*
X114095628Y-83516721D01*
X113939541Y-83516721D01*
X113889902Y-83516324D01*
X113815751Y-83503954D01*
X113787775Y-83455785D01*
X113783454Y-83347388D01*
X113783454Y-83178055D01*
X116069454Y-83178055D01*
X116069454Y-83516721D01*
G37*
G36*
X114930558Y-77008497D02*
G01*
X115226301Y-77054035D01*
X115439690Y-77135733D01*
X115701571Y-77308376D01*
X115906954Y-77543612D01*
X116053343Y-77839071D01*
X116077588Y-77917233D01*
X116111818Y-78199205D01*
X116073261Y-78484862D01*
X115967963Y-78756888D01*
X115801972Y-78997965D01*
X115581333Y-79190777D01*
X115484018Y-79253094D01*
X115370620Y-79311290D01*
X115304174Y-79313383D01*
X115272925Y-79257563D01*
X115265121Y-79142016D01*
X115271106Y-79032145D01*
X115300592Y-78957399D01*
X115366591Y-78912078D01*
X115478578Y-78835269D01*
X115603231Y-78682085D01*
X115697227Y-78490347D01*
X115748754Y-78285554D01*
X115745996Y-78093204D01*
X115721697Y-77995343D01*
X115636840Y-77787163D01*
X115524599Y-77617300D01*
X115442130Y-77546145D01*
X115308155Y-77464979D01*
X115167337Y-77403044D01*
X115055141Y-77378388D01*
X115045581Y-77378545D01*
X115020717Y-77383896D01*
X115001895Y-77404303D01*
X114988276Y-77449710D01*
X114979018Y-77530061D01*
X114973281Y-77655301D01*
X114970224Y-77835374D01*
X114969007Y-78080225D01*
X114968788Y-78399798D01*
X114968788Y-79421209D01*
X114790669Y-79392727D01*
X114586665Y-79344828D01*
X114299086Y-79215394D01*
X114061948Y-79027909D01*
X113882988Y-78791047D01*
X113769939Y-78513482D01*
X113730537Y-78203888D01*
X113736538Y-78110323D01*
X114091620Y-78110323D01*
X114100147Y-78355080D01*
X114177192Y-78584677D01*
X114316972Y-78781682D01*
X114513704Y-78928664D01*
X114630121Y-78989229D01*
X114630121Y-78204697D01*
X114628444Y-77957578D01*
X114623789Y-77742453D01*
X114616702Y-77572491D01*
X114607734Y-77460858D01*
X114597433Y-77420721D01*
X114528077Y-77450914D01*
X114428964Y-77530472D01*
X114321142Y-77639090D01*
X114224748Y-77756448D01*
X114159917Y-77862226D01*
X114157393Y-77867839D01*
X114091620Y-78110323D01*
X113736538Y-78110323D01*
X113740556Y-78047685D01*
X113815251Y-77759805D01*
X113953817Y-77506715D01*
X114145443Y-77296728D01*
X114379317Y-77138155D01*
X114597433Y-77056890D01*
X114644626Y-77039307D01*
X114930558Y-77008497D01*
G37*
G36*
X115414901Y-80018531D02*
G01*
X115582233Y-80119919D01*
X115775324Y-80291170D01*
X115937013Y-80491479D01*
X116042465Y-80694113D01*
X116092568Y-80880929D01*
X116105739Y-81183815D01*
X116034841Y-81484032D01*
X115880238Y-81779147D01*
X115736120Y-81993305D01*
X115859737Y-82057229D01*
X115863814Y-82059371D01*
X115997360Y-82174330D01*
X116082838Y-82336210D01*
X116103685Y-82514000D01*
X116103480Y-82516107D01*
X116085584Y-82604892D01*
X116037452Y-82645717D01*
X115931871Y-82662027D01*
X115930395Y-82662148D01*
X115826905Y-82664612D01*
X115782538Y-82639943D01*
X115773121Y-82574868D01*
X115761943Y-82501449D01*
X115713100Y-82392396D01*
X115701110Y-82377588D01*
X115671054Y-82354056D01*
X115622631Y-82336306D01*
X115544790Y-82323283D01*
X115426483Y-82313931D01*
X115256660Y-82307195D01*
X115024271Y-82302019D01*
X114718267Y-82297346D01*
X113783454Y-82284472D01*
X113783454Y-82117430D01*
X113783642Y-82081972D01*
X113792892Y-81992564D01*
X113830147Y-81956855D01*
X113914611Y-81950388D01*
X114045769Y-81950388D01*
X113954145Y-81812805D01*
X113933776Y-81781740D01*
X113812861Y-81560212D01*
X113748670Y-81346215D01*
X113729806Y-81103721D01*
X113730847Y-81075826D01*
X114082986Y-81075826D01*
X114108855Y-81306483D01*
X114197716Y-81522179D01*
X114348157Y-81707580D01*
X114558762Y-81847351D01*
X114651096Y-81886565D01*
X114786893Y-81931975D01*
X114884121Y-81949738D01*
X115031104Y-81933974D01*
X115244010Y-81861748D01*
X115438311Y-81743950D01*
X115591999Y-81594923D01*
X115683067Y-81429012D01*
X115738955Y-81165051D01*
X115728581Y-80912198D01*
X115642517Y-80691405D01*
X115479630Y-80497492D01*
X115382051Y-80419878D01*
X115149158Y-80303879D01*
X114903652Y-80265399D01*
X114658725Y-80305353D01*
X114427566Y-80424654D01*
X114397482Y-80447443D01*
X114225886Y-80630971D01*
X114121525Y-80845544D01*
X114082986Y-81075826D01*
X113730847Y-81075826D01*
X113733793Y-80996928D01*
X113757980Y-80810692D01*
X113798363Y-80666071D01*
X113870756Y-80522248D01*
X114054757Y-80284167D01*
X114286520Y-80100360D01*
X114552230Y-79976359D01*
X114838073Y-79917698D01*
X114903652Y-79920439D01*
X115130235Y-79929911D01*
X115414901Y-80018531D01*
G37*
G36*
X116069454Y-59175055D02*
G01*
X115261069Y-59175055D01*
X115244124Y-59175057D01*
X114955048Y-59176289D01*
X114737572Y-59180406D01*
X114579287Y-59188337D01*
X114467782Y-59201009D01*
X114390648Y-59219352D01*
X114335474Y-59244292D01*
X114188483Y-59374298D01*
X114101978Y-59547776D01*
X114085314Y-59742487D01*
X114144004Y-59938440D01*
X114164641Y-59976154D01*
X114216940Y-60048720D01*
X114284973Y-60103010D01*
X114380224Y-60141618D01*
X114514173Y-60167134D01*
X114698300Y-60182151D01*
X114944089Y-60189261D01*
X115263019Y-60191055D01*
X116069454Y-60191055D01*
X116069454Y-60579711D01*
X115233371Y-60563866D01*
X115058674Y-60560185D01*
X114773323Y-60550938D01*
X114553158Y-60536668D01*
X114385279Y-60514582D01*
X114256785Y-60481889D01*
X114154776Y-60435794D01*
X114066351Y-60373506D01*
X113978611Y-60292231D01*
X113978417Y-60292037D01*
X113829174Y-60085687D01*
X113746676Y-59843334D01*
X113734838Y-59585712D01*
X113797576Y-59333552D01*
X113863801Y-59175055D01*
X111836121Y-59175055D01*
X111836121Y-58794055D01*
X116069454Y-58794055D01*
X116069454Y-59175055D01*
G37*
G36*
X113150835Y-86025538D02*
G01*
X113251264Y-86080912D01*
X113290249Y-86138955D01*
X113317788Y-86247221D01*
X113311571Y-86300932D01*
X113251703Y-86407537D01*
X113149101Y-86468988D01*
X113029502Y-86474561D01*
X112918645Y-86413531D01*
X112885180Y-86370243D01*
X112854446Y-86241452D01*
X112895944Y-86096271D01*
X112931482Y-86055747D01*
X113032432Y-86017660D01*
X113150835Y-86025538D01*
G37*
G36*
X114122121Y-57227721D02*
G01*
X114839032Y-57227721D01*
X114991086Y-57228646D01*
X115233456Y-57234183D01*
X115438844Y-57243972D01*
X115591360Y-57257156D01*
X115675115Y-57272874D01*
X115754254Y-57309904D01*
X115929390Y-57448040D01*
X116052028Y-57629888D01*
X116095838Y-57757188D01*
X116114335Y-57927305D01*
X116084743Y-58068808D01*
X116011397Y-58165552D01*
X115898631Y-58201388D01*
X115853982Y-58200441D01*
X115798785Y-58184167D01*
X115776968Y-58129471D01*
X115773121Y-58013248D01*
X115772946Y-57994634D01*
X115747828Y-57834088D01*
X115671023Y-57706332D01*
X115568926Y-57587555D01*
X114845523Y-57573403D01*
X114122121Y-57559251D01*
X114122121Y-58201388D01*
X113787163Y-58201388D01*
X113774725Y-57894471D01*
X113762288Y-57587555D01*
X112767454Y-57563701D01*
X112767454Y-57230408D01*
X113264871Y-57218481D01*
X113762288Y-57206555D01*
X113775305Y-57026638D01*
X113781186Y-56954918D01*
X113800249Y-56879056D01*
X113850384Y-56850867D01*
X113955222Y-56846721D01*
X114122121Y-56846721D01*
X114122121Y-57227721D01*
G37*
G04 #@! TD*
M02*
